<svg width="278" height="840" viewBox="0 0 278 840" fill="none" xmlns="http://www.w3.org/2000/svg">
<path d="M127.334 1.86677C125.2 2.8001 122.667 3.33344 121.734 3.06677C120.8 2.66677 117.467 4.93344 114.4 8.13344C111.2 11.2001 107.6 14.6668 106.267 15.8668C100.667 20.8001 99.6002 25.0668 100.4 40.0001C100.934 47.7334 101.6 55.4668 102.134 57.2001C102.934 59.8668 102.667 60.1334 100.4 59.4668C96.4002 58.2668 95.4669 64.9334 98.2669 73.7334C100.8 81.8668 102.134 83.8668 106.134 85.3334C108.534 86.2668 109.067 87.8668 109.867 97.6001C110.4 103.733 110.4 112.133 109.867 116.4C108.934 124 108.934 124.133 100.8 129.467C92.6669 134.933 55.6002 153.467 49.3335 155.333C43.2002 157.067 36.4002 165.2 31.4669 176.533C20.6669 201.467 16.2669 214.933 11.0669 238.667C10.1335 243.467 7.86687 250.133 6.0002 253.6C2.53354 260.533 2.53354 260.533 11.3335 264.267L16.6669 266.4L16.4002 276C16.1335 283.067 15.2002 287.333 12.5335 293.067C10.5335 297.2 7.6002 307.6 6.0002 316C3.33354 329.6 2.8002 337.467 1.86687 384.667C0.400204 458.8 0.400204 459.867 4.26687 465.467C5.86687 468 8.8002 473.2 10.5335 476.933C13.2002 482.667 14.6669 484.133 19.2002 485.867C25.4669 488.267 40.0002 488.8 40.0002 486.533C40.0002 484.533 37.2002 479.467 35.4669 478.4C34.6669 477.867 32.5335 477.333 30.6669 477.333C24.9335 477.333 21.8669 474.133 20.1335 466.133C17.4669 454 23.2002 447.6 26.4002 459.333C28.5335 467.2 31.6002 472 34.8002 472C38.4002 472 38.5335 470.8 35.8669 460C34.5335 454.533 33.4669 448.133 33.3335 446C33.3335 441.6 28.5335 431.2 23.2002 424C20.1335 419.733 19.8669 418.533 20.6669 411.333C21.8669 400 26.2669 382.8 30.6669 372.133C38.9335 352 44.0002 329.733 44.0002 313.467C44.1335 301.733 44.8002 298.533 51.0669 281.6C55.4669 269.867 60.0002 262.667 63.0669 262.667C63.8669 262.667 64.0002 267.333 63.2002 275.6C62.5335 282.8 62.0002 301.6 62.0002 317.333C61.8669 336.8 61.0669 350.933 59.6002 361.333C58.2669 369.733 56.6669 381.2 56.0002 386.667C55.2002 392.133 53.8669 401.2 52.8002 406.667C47.8669 431.733 45.0669 453.467 46.5335 455.067C47.4669 456.267 47.4669 459.867 46.6669 466C46.0002 471.2 44.6669 496 43.8669 521.333C43.0669 546.667 42.0002 573.467 41.7335 580.8L41.0669 594.267L47.2002 597.333C54.1335 600.667 54.1335 600.533 51.2002 615.333C48.1335 631.467 48.6669 646.933 53.3335 670.667C55.4669 682 58.9335 699.467 60.8002 709.333C62.6669 719.2 65.0669 731.733 66.1335 737.2C67.8669 746.267 67.8669 747.2 65.7335 748.8C63.7335 750.133 63.6002 750.8 65.0669 752.133C67.7335 754.933 66.9335 764.133 63.3335 771.2C61.6002 774.8 60.4002 778.267 60.8002 778.8C62.0002 780.933 58.5335 789.6 52.5335 799.467C47.8669 806.933 46.6669 810.133 46.6669 814.933C46.6669 821.333 49.8669 830.667 52.0002 830.667C52.6669 830.667 53.6002 832.133 54.1335 833.867C55.0669 838 57.0669 838.8 68.2669 839.333C76.8002 839.867 77.3335 839.733 80.9335 836C82.9335 833.733 85.3335 832 86.1335 832C89.2002 832 91.7335 825.733 93.2002 814.133C94.1335 807.6 95.7335 799.6 96.9335 796.267C98.4002 791.733 98.6669 787.467 98.1335 779.467C97.7335 773.467 97.3335 766.533 97.3335 764.133C97.3335 761.6 96.1335 754.8 94.6669 749.067C93.0669 743.067 92.0002 734.4 92.0002 728.4C92.0002 715.467 95.4669 677.867 97.6002 668C98.5335 663.733 98.9335 652.933 98.6669 642C98.4002 631.733 98.1335 619.733 98.1335 615.333L98.0002 607.333L104 606.667C111.467 605.733 113.2 604.667 115.334 599.6C116.8 596 118 595.2 124.267 594L131.334 592.667L131.467 573.867C131.734 554.667 133.734 531.733 136.267 521.6C137.6 516.4 140.134 514.4 141.867 517.2C142.267 517.867 142 533.067 141.067 550.8C140.267 568.667 139.467 586 139.467 589.333L139.334 595.333L144.667 595.6C147.6 595.867 156.134 596.933 163.6 598.133C176 600.133 177.334 600.667 178.534 603.867C179.467 606 180 616.533 179.867 630.667C179.6 652 179.867 655.2 183.2 668C187.334 684 193.334 723.733 193.334 734.667C193.334 738.667 192.667 744.4 191.867 747.333C189.734 755.733 189.867 789.333 192 793.333C193.6 796.4 194 806.533 192.667 812.667C192.267 814.133 192.4 814.533 192.8 813.6C194.267 810.4 195.6 812.133 197.334 819.467C198.667 824.8 200.534 828.133 204.267 832C209.734 837.467 208.667 837.333 228.134 836C229.334 835.867 232.267 833.467 234.667 830.533C238.267 826 238.934 823.867 239.6 815.6C240.134 807.333 239.734 805.2 237.067 800.4C216.8 763.733 215.734 756.8 223.467 702C230 654.533 230.4 624 224.4 608.4C224 607.6 226.134 605.6 229.067 604.133C232 602.667 235.334 600.4 236.534 599.333C238.934 596.933 239.334 589.067 237.334 585.2C236.534 583.867 235.734 578.933 235.334 574.267C235.067 569.6 234.267 562.267 233.467 557.867C231.2 545.467 229.334 513.467 229.334 488.533V465.867L233.2 462.933C235.6 461.2 237.867 457.6 239.334 453.333C241.734 446.133 242.667 445.467 245.867 448.8C249.867 452.8 246.8 469.2 241.734 470.667C238 471.733 233.334 476.267 233.334 478.933C233.334 485.733 262.534 476.933 262.667 470.133C262.667 469.333 263.867 467.467 265.467 465.867C269.6 461.467 271.067 453.333 271.467 431.333C271.6 420.267 272.134 404.667 272.4 396.667C275.067 324.8 275.067 327.733 272.667 314C271.467 306.667 268.667 295.2 266.4 288.533C262.267 275.867 261.867 268.4 265.334 266.4C266.4 265.867 269.6 264.4 272.267 263.333L277.2 261.333L274.667 254.4C273.334 250.533 270.667 244.267 268.8 240.667C266.934 236.933 265.334 232.667 265.334 231.067C265.334 227.467 253.734 193.067 248.4 180.667C246.134 175.467 243.867 170 243.334 168.267C241.867 163.2 236.934 156.533 232.667 153.867C230.534 152.4 224.134 149.467 218.667 147.333C213.2 145.2 199.734 138.933 188.667 133.467L168.667 123.333L167.6 112.667C166.934 106.8 166.934 98.8001 167.334 94.8001C168.134 88.8001 169.067 86.8001 172.8 83.6001C176.134 80.5334 177.6 77.8668 178.667 72.4001C180.4 64.0001 179.6 58.6668 176.534 58.6668C174.934 58.6668 174.534 57.8668 175.2 55.6001C175.6 54.0001 176.4 45.6001 176.8 36.9334L177.734 21.2001L173.867 17.2001C171.734 14.9334 166.667 11.2001 162.667 8.93344C148.534 0.66677 135.734 -1.86656 127.334 1.86677ZM222.534 273.2C224 276.8 225.734 280 226.4 280.267C226.934 280.4 229.067 284.8 231.2 289.733C234.4 297.333 235.2 301.733 236.134 315.067C237.334 333.733 239.2 345.733 241.867 352.133C245.867 361.6 249.867 384.533 250 397.733C250 409.067 249.6 411.067 247.467 412.667C246.134 413.733 245.467 415.2 246 416C246.534 416.8 245.734 418.8 244.4 420.4C240.134 425.2 234.934 435.467 234 441.2C233.467 444.267 232.534 446.933 232 447.333C229.867 448.667 228.4 439.467 229.467 432C231.067 420.4 230.934 412.267 228.934 411.067C225.734 409.2 221.067 374.933 219.734 345.333C217.334 287.467 217.067 266.667 218.4 266.667C219.067 266.667 220.934 269.6 222.534 273.2Z" fill="black"/>
<path d="M242 416.133C241.467 416.933 241.334 417.733 241.734 418.133C242 418.533 242.667 417.867 243.067 416.667C244 414.4 243.2 414 242 416.133Z" fill="black"/>
</svg>
