<svg width="195" height="518" viewBox="0 0 195 518" fill="none" xmlns="http://www.w3.org/2000/svg">
<path d="M99.0665 2.13329C97.4665 3.06662 95.0665 3.86662 93.9998 3.99995C92.7998 3.99995 89.5998 6.26662 86.9331 9.06662C82.5331 13.6 81.8665 15.2 80.6665 24.5333C79.0665 37.2 79.9998 50 82.6665 54.2666C85.4665 58.5333 85.8665 66.6666 83.3331 68C82.2665 68.6666 75.9998 70.8 69.3331 72.8C53.8665 77.6 39.4665 83.4666 36.2665 86.4C28.1331 93.4666 9.33314 135.067 8.26647 148.267C7.86647 152.4 5.9998 160.4 3.9998 166C-0.933529 180.4 -0.933529 199.733 3.9998 216C6.53314 224.533 7.73314 232.267 8.66647 248C9.73314 267.067 10.1331 268.8 12.9331 271.067C14.7998 272.667 17.1998 273.333 19.3331 272.933C25.7331 271.6 30.2665 277.467 34.6665 292.533C36.5331 298.933 39.0665 306.133 40.2665 308.4C41.4665 310.933 42.6665 317.2 42.9331 324C43.3331 331.467 44.2665 336.133 45.4665 337.467C47.9998 340.267 46.9331 346.933 42.5331 356.933C40.7998 360.8 39.4665 364.533 39.5998 365.067C39.7331 365.6 39.3331 369.333 38.7998 373.333C37.8665 379.867 38.6665 394.933 41.5998 429.733C42.5331 441.467 40.2665 463.467 37.0665 474.667C31.8665 492.4 32.2665 496.8 39.0665 502.8C42.1331 505.6 43.8665 506 51.7331 505.733C61.4665 505.467 62.2665 506.267 59.3331 513.867L57.9998 517.333H73.4665H88.7998L86.6665 513.467C85.5998 511.2 84.1331 509.067 83.3331 508.667C80.5331 506.933 82.2665 499.467 89.8665 482.4C100.533 458.4 109.2 433.867 113.733 415.067L116 405.333L123.333 403.2C142.933 397.467 151.6 387.467 151.6 370.533C151.6 360.133 147.866 352.4 139.466 345.2C133.2 340 132.533 339.067 133.333 335.333C134.8 328 137.866 292.933 138.666 272.667C139.066 261.6 140.133 247.867 140.933 242C142.133 232.667 142 229.333 139.333 215.6C136.133 198.4 136.266 191.467 140.266 185.733C144.266 180 147.333 171.2 147.333 165.333C147.333 162.4 147.866 160 148.533 160C151.2 160 155.066 172.933 160.8 199.867C163.2 211.333 167.466 226 171.466 236.4C178.666 255.2 179.333 260.8 175.466 268.8C172.133 275.733 170.933 298.667 173.866 298.667C174.666 298.667 175.6 295.867 176 292.267C177.333 282.267 178 281.2 181.066 281.6C183.6 282 184 282.8 183.733 288.4C183.333 296.667 180.8 301.733 176.666 302.667C173.866 303.333 173.333 304.267 173.333 308C173.333 312.267 173.6 312.667 177.2 312.4C185.066 311.867 190.266 306.133 193.2 294.8C194.533 289.6 194.666 283.333 193.866 268.267C190.666 212.133 188.933 196.533 183.866 183.333C179.333 171.067 178.4 162 181.333 158.667C182.8 157.067 183.333 154.933 182.933 153.067C180.533 144.133 176.666 127.467 174.666 118.4C173.466 112.667 170.8 105.6 168.666 102.133C165.2 96.8 162.8 95.0666 147.333 87.3333C137.733 82.5333 129.6 77.7333 129.2 76.6666C128.8 75.6 129.866 71.3333 131.466 67.0666C134.533 59.6 135.2 50.5333 135.6 12.9333C135.733 8.79995 132.533 4.66662 127.066 1.86662C122.4 -0.533381 103.6 -0.266714 99.0665 2.13329ZM32.5331 176.8C26.7998 193.067 26.1331 194.133 26.1331 185.333C25.9998 175.6 32.5331 160.667 35.5998 163.733C36.2665 164.4 34.9331 170 32.5331 176.8ZM81.8665 368.533C81.8665 374 82.5331 381.6 83.3331 385.6C84.7998 392 84.6665 393.6 81.4665 403.333C79.5998 409.2 77.7331 415.733 77.3331 418C76.7998 420.133 75.4665 424.133 74.2665 426.667C73.1998 429.2 71.7331 436.4 71.1998 442.667C70.5331 448.933 69.7331 457.6 69.3331 462C68.9331 466.4 67.9998 473.867 67.3331 478.667C66.6665 483.467 65.9998 488.267 65.9998 489.333C65.8665 490.933 65.7331 490.933 64.6665 489.067C63.0665 486.4 62.5331 444.133 63.8665 437.333C64.3998 434.8 65.9998 428.667 67.4665 423.733C68.9331 418.933 70.3998 412.267 70.7998 409.067C71.1998 405.867 72.3998 400.533 73.4665 397.2C75.8665 389.467 76.6665 384.4 76.7998 372.667C76.9331 361.467 77.5998 358.667 80.1331 358.667C81.5998 358.667 81.9998 360.8 81.8665 368.533Z" fill="black"/>
</svg>
