<svg width="223" height="358" viewBox="0 0 223 358" fill="none" xmlns="http://www.w3.org/2000/svg">
<path d="M72.2 1.4C68.7333 2.86667 62.0667 9 60.3333 12.2C59.1333 14.6 59.1333 18.7333 60.4667 31.5333C61.5333 40.3333 62.3333 48.2 62.3333 49C62.3333 50.3333 61.4 50.3333 49 49.2667C41 48.4667 31.9333 52.2 28.6 57.5333C27.4 59.4 26.0667 61.2667 25.5333 61.6667C25.1333 62.0667 23.1333 65.4 21.2667 69.1333C19.2667 73 15.8 78.8667 13.5333 82.3333C8.59999 89.6667 6.73332 96.4667 8.19999 103C9.39999 109.133 12.4667 109.533 22.0667 104.467L29.6667 100.467V111.667C29.6667 117.8 29 124.467 28.0667 126.6C27.1333 128.6 26.4667 136.867 26.3333 145C26.2 153 25.5333 163 24.7333 167C23.9333 171 22.6 179.133 21.6667 185C20.8667 190.867 19.9333 197.533 19.5333 199.933C19 203.267 18.0667 204.333 15 205C9.53332 206.2 4.59999 210.467 2.33332 215.933C0.0666577 221.4 0.333324 235.4 2.73332 239.933C5.53332 245.133 11.8 248.467 20.6 249.4L28.8667 250.333L30.6 257C31.5333 260.6 31.9333 265.8 31.5333 268.467C30.3333 275.933 33.9333 291.4 40.2 306.067C43.2667 313.133 43.8 317.667 41.6667 319.8C40.4667 321 39.6667 336.2 40.2 347.933C40.3333 352.867 44.3333 357.667 48.3333 357.667C49.9333 357.667 52.3333 355.533 54.4667 352.333C57.4 347.8 57.8 346.2 57.1333 341.133C56.2 335 58.3333 324.333 60.6 324.333C61.1333 324.333 61.6667 326.733 61.6667 329.533C61.6667 337.4 66.3333 340.6 76.8667 340.067C84.2 339.667 84.8667 339.4 86.0667 335.933C87.4 331.8 84.6 323.4 80.2 318.333C76.2 313.8 76.0667 309.533 79.6667 297C84.2 280.867 86.7333 252.333 84.6 241.8C81.2667 225.8 82.2 222.2 92.4667 209.533C102.467 197.4 107.133 183.4 105.8 169.667C105 162.733 104.733 162.2 100.067 159.933C94.0667 157 93.8 155.267 98.4667 150.867C103.8 146.067 105.533 140.733 104.467 133.4C103.667 128.333 104.333 124.067 108.067 110.733C110.6 101.667 112.867 94.0667 113.133 93.8C113.4 93.5333 114.733 94.2 115.933 95.2667C117.267 96.3333 123.4 98.6 129.533 100.2C136.2 102.067 143.933 105.267 148.867 108.333C179.533 127.667 186.467 131 196.333 131.533C199.667 131.667 203.933 132.867 205.933 134.2C210.333 137.133 214.067 136.6 214.867 133C215.133 131.533 217.133 128.333 219.267 125.8C222.067 122.733 223 120.467 222.467 118.467C222.067 117 221.667 115.267 221.667 114.6C221.667 112.867 215.8 113.667 210.333 116.333C205 118.867 205 118.867 203.133 116.333C202.067 114.6 199.8 113.667 197.267 113.667C194.467 113.667 188.333 110.6 177.8 103.8C169.267 98.4667 157.933 91.6667 152.467 88.8667C140.467 82.6 138.6 81.1333 124.733 67.8C118.867 61.9333 113.133 56.8667 112.067 56.3333C111.133 55.8 106.467 55 101.8 54.6C97.1333 54.2 92.7333 53.2667 92.0667 52.6C90.0667 50.6 91.9333 42.6 95.1333 38.8667C97.5333 36.0667 97.8 34.6 96.8667 24.3333C96.4667 18.0667 95.1333 11.4 94.2 9.53334C91.1333 3.4 78.4667 -1.26667 72.2 1.4ZM60.0667 272.333C62.4667 280.067 63.4 305.8 61.6667 310.333L59.9333 314.333L58.7333 309.667C58.0667 307.133 56.8667 303.667 56.0667 302.067C55.1333 300.067 55 296.067 55.8 289.4C56.3333 284.067 56.8667 276.467 56.7333 272.467C56.6 264.867 57.8 264.733 60.0667 272.333Z" fill="black"/>
</svg>
