<svg width="241" height="747" viewBox="0 0 241 747" fill="none" xmlns="http://www.w3.org/2000/svg">
<path d="M99.3332 1.53334C92.6665 3.00001 86.1332 6.06668 79.7332 10.7333C75.3332 14.0667 73.8665 16.3333 71.9999 22.6C69.4665 31.1333 69.0665 49.2667 71.1999 53.5333C71.9999 55 72.6665 59.1333 72.6665 62.6C72.6665 67.8 73.9999 71.8 79.3332 82.2C82.9332 89.4 85.5999 95.8 85.1999 96.4667C84.1332 98.2 65.9999 107.267 54.6665 111.667C49.5999 113.667 42.5332 117.133 39.0665 119.267C33.7332 122.6 32.2665 124.467 28.7999 133C20.6665 152.467 20.2665 155 19.9999 196.333L19.7332 234.333L14.9332 243.667C10.5332 252.067 9.99987 254.6 8.66654 269.267C7.99987 278.2 7.3332 299 7.3332 315.667C7.3332 336.867 6.79987 346.733 5.7332 348.733C4.66654 350.467 3.99987 358.2 3.86654 368.333C3.7332 377.933 2.66654 388.6 1.59987 393.533C-0.133464 400.467 -0.266797 404.2 0.933203 413.533L2.26654 424.867L11.5999 433.667C23.0665 444.2 24.6665 445.267 26.1332 442.867C28.1332 440.067 26.2665 433.4 22.6665 429.667C19.9999 427 18.9332 423.667 17.7332 415.4C15.9999 403.667 17.0665 400.333 22.1332 400.333C24.6665 400.333 25.3332 401.8 26.6665 411C27.7332 417.933 30.5332 423 33.3332 423C36.2665 423 37.0665 417.4 35.4665 409.667C34.6665 405.933 33.9999 399.267 33.9999 394.733C33.9999 388.333 33.0665 384.467 29.1999 376.067L24.3999 365.4L25.8665 349.133C26.6665 340.333 28.5332 329.133 29.9999 324.333C33.1999 314.2 38.2665 294.467 41.4665 280.333C42.6665 274.867 43.8665 263.533 44.1332 255.267C44.5332 243.8 45.4665 237.533 48.1332 228.6C50.1332 222.2 52.2665 216.467 52.7999 215.8C53.4665 215 55.7332 218.467 58.2665 223.8L62.5332 233L62.6665 263.667C62.6665 294.2 62.6665 294.467 57.5999 318.067C52.9332 339.933 52.5332 344.067 51.9999 368.733C51.5999 383.533 50.6665 403.4 49.7332 413C48.2665 430.733 48.9332 461.933 51.3332 479.667C51.9999 484.733 52.5332 493.8 52.6665 499.667C52.6665 510.733 54.6665 516.333 58.6665 516.333C59.7332 516.333 61.1999 517.533 61.9999 518.867C65.0665 524.6 62.7999 550.333 57.8665 564.733C54.6665 574.2 54.3999 593 57.3332 609.533C58.3999 615.8 60.3999 628.733 61.8665 638.333C63.3332 647.8 66.3999 661.4 68.6665 668.333C76.5332 692.6 75.5999 703.533 63.9999 719.533C57.8665 727.933 56.9332 731.667 60.1332 735.133C64.5332 739.933 70.7999 741.533 89.0665 742.333C110.4 743.133 111.333 742.733 113.333 731.533C114.133 727.267 115.333 723.667 116.133 723.4C116.8 723.133 118.533 725.4 119.867 728.2C124.667 739.133 133.467 743.133 158.133 745.533C170.933 746.733 177.067 746.6 185.733 744.867C193.867 743.267 206.267 726.2 208.667 713.533C210.4 704.867 207.733 691.667 202.267 680.867C192.8 662.2 168.8 652.733 147.333 659.133C142.667 660.6 141.6 660.467 140.533 658.867C138.933 656.2 138.933 655.8 142 652.333C143.467 650.6 144.667 648.467 144.667 647.4C144.667 646.333 146.133 642.867 148 639.533C149.867 636.2 151.333 632.2 151.333 630.6C151.333 628.867 154 619.533 157.333 609.667C162.4 594.6 163.6 589 164.8 575C165.6 565.8 167.467 551.933 168.933 544.067L171.733 529.667L179.733 525.267C191.867 518.6 193.467 515.933 192.933 501.933C192.667 490.467 193.733 474.733 197.467 440.733C198.533 431 199.333 420.6 199.333 417.533C199.333 412.733 199.6 412.2 201.333 413.667C203.067 415.133 203.733 415 205.333 412.867C206.267 411.533 207.467 408.6 207.867 406.467C208.4 404.333 209.067 403 209.467 403.4C210 403.8 209.6 406.067 208.8 408.467C206.8 414.333 206.933 420.333 209.067 420.333C210.133 420.333 212.267 417.4 214 413.667C215.733 409.933 217.733 407 218.4 407C219.067 407 219.2 408.067 218.667 409.267C218.133 410.6 217.467 413.667 217.067 416.2C216.133 421.8 219.067 421.4 221.867 415.667C222.933 413.533 224.933 410.867 226.267 409.667C227.6 408.6 230 404.067 231.467 399.667C234 392.6 234.533 387.267 235.467 353C236.267 327.133 237.2 311.533 238.533 305.667C241.2 294.2 241.333 262.333 238.667 252.333C237.6 248.333 235.2 240.6 233.333 235.133C229.867 225.533 229.867 224.733 230 191.133V157L224.4 139.133C216.933 116.067 214.667 113.267 197.067 106.067C189.867 103 181.2 99.9333 178 99C168 96.4667 157.867 92.3333 154.267 89.5333C152.4 88.2 149.867 87.2667 148.533 87.6667C145.2 88.7333 142.267 85 141.2 78.0667C140.533 73.8 140.8 71 142 69.1333C146.4 62.3333 147.867 57.9333 147.733 53C147.467 42.8667 144.533 27.6667 141.867 22.0667C138.8 15.8 129.733 7.13334 122.933 3.93334C117.6 1.40001 105.467 0.20001 99.3332 1.53334ZM202.267 225.133C206 239.4 207.067 246.333 207.2 255.667C207.333 271.267 209.733 295.933 212.133 307.4C214.667 319.533 214.533 327.4 211.467 337C208.667 345.8 202.267 356.6 200.4 355.533C199.867 355.133 199.333 352.867 199.333 350.333C199.333 347.8 198.4 341.533 197.333 336.2C192.133 311.8 188.667 276.2 188.667 248.6C188.667 223.533 188.933 220.733 191.733 213.533C193.333 209.267 195.333 205.933 196 206.067C196.8 206.333 199.467 214.867 202.267 225.133ZM121.067 492.6C120.667 497.933 121.2 508.067 122 515C125.067 539.267 125.067 544.6 122.133 554.467C120.533 559.4 118.8 564.067 118.133 564.867C117.467 565.667 115.333 571.533 113.333 577.8C107.067 597.8 106 597.4 104.133 574.2C103.2 561.8 103.2 555.133 104.4 548.6C105.333 543.667 106.933 533.533 108 526.2C111.333 501.533 116.8 483 120.533 483C121.067 483 121.333 487.4 121.067 492.6ZM106.8 627.667C107.733 629.933 103.333 658.067 101.733 660.733C99.4665 664.467 98.9332 659.267 100.267 644.467C101.067 635.8 102.133 627.933 102.533 627.133C103.867 625 106 625.267 106.8 627.667Z" fill="black"/>
</svg>
