<?xml version="1.0" encoding="UTF-8"?>
<svg version="1.1" xmlns="http://www.w3.org/2000/svg" width="433" height="576">
<path d="M0 0 C1.31713989 0.0141394 1.31713989 0.0141394 2.66088867 0.02856445 C11.72856441 0.23998913 20.43862414 1.615943 27.0625 8.375 C29.65722026 13.22599874 29.66886451 18.97122215 29.0625 24.375 C28.73862305 24.95975098 28.41474609 25.54450195 28.08105469 26.14697266 C26.79501755 28.96010183 26.6764785 31.30506748 26.5 34.390625 C26.42523438 35.55980469 26.35046875 36.72898438 26.2734375 37.93359375 C26.20382812 39.15175781 26.13421875 40.36992188 26.0625 41.625 C24.86339715 62.34283256 24.86339715 62.34283256 19.5 67.4375 C16.00628407 71.09792852 15.16715038 73.35178183 15.0625 78.375 C16.0525 78.705 17.0425 79.035 18.0625 79.375 C18.0625 80.035 18.0625 80.695 18.0625 81.375 C19.2690625 81.4678125 19.2690625 81.4678125 20.5 81.5625 C24.46188509 82.46608783 27.27221744 84.00758808 30.75390625 86.0390625 C34.1105046 87.98145952 37.58214231 89.66835779 41.0625 91.375 C42.39630019 92.04073214 43.72975559 92.70715678 45.0625 93.375 C45.0625 94.035 45.0625 94.695 45.0625 95.375 C45.805 95.560625 46.5475 95.74625 47.3125 95.9375 C51.72351171 98.24325612 52.87613365 102.0022673 55.0625 106.375 C56.58778423 118.61964286 55.99092087 129.5897374 52.0625 141.375 C51.74523882 144.18708773 51.45780267 146.99598082 51.1875 149.8125 C49.30328197 168.01382704 49.30328197 168.01382704 45.0625 174.375 C43.08361039 175.10193904 41.08295442 175.77316251 39.0625 176.375 C36.13053653 179.30696347 37.12115472 188.1726731 37.0625 192.375 C37.15754265 195.08957444 37.35284345 197.79212357 37.5625 200.5 C38.05546642 206.96897234 37.9924132 213.27367456 37.625 219.75 C35.59748267 240.17299548 35.59748267 240.17299548 41.0625 259.375 C44.22306517 265.69613035 41.78282253 276.59863245 41.0625 283.375 C40.7325 284.035 40.4025 284.695 40.0625 285.375 C40.12668291 288.14069994 40.25210712 290.86728091 40.4375 293.625 C40.48132813 294.37652344 40.52515625 295.12804687 40.5703125 295.90234375 C40.77043079 299.08755985 41.01694812 302.13996493 41.625 305.27734375 C42.26097503 309.78027407 41.94392266 314.15843481 41.6875 318.6875 C41.62175781 320.03618164 41.62175781 320.03618164 41.5546875 321.41210938 C41.34427833 325.45371884 41.07404542 329.44905022 40.5390625 333.4609375 C39.76443868 340.06281176 39.83914874 346.72201443 39.82226562 353.3605957 C39.81244868 355.69972865 39.78129333 358.03802128 39.75 360.37695312 C39.7434784 361.87239068 39.73822463 363.36783443 39.734375 364.86328125 C39.7158548 365.90552605 39.7158548 365.90552605 39.69696045 366.96882629 C39.71614752 371.13316034 40.29148207 373.27429496 43.0625 376.375 C43.0625 377.035 43.0625 377.695 43.0625 378.375 C43.7225 378.375 44.3825 378.375 45.0625 378.375 C48.97113996 386.67502032 47.85166461 396.59267263 44.9296875 405.06640625 C44.64351562 405.82824219 44.35734375 406.59007812 44.0625 407.375 C41.16967474 414.70006436 41.16967474 414.70006436 41.0625 422.375 C42.4159928 424.71404581 43.91565537 426.89577354 45.4765625 429.1015625 C49.86794104 435.39659282 52.02663668 442.07636924 54.1328125 449.421875 C54.95239008 452.29672476 54.95239008 452.29672476 56.140625 454.53125 C58.89702363 460.04404726 58.18187668 467.46343944 58.25 473.5 C58.26305176 474.16870117 58.27610352 474.83740234 58.28955078 475.52636719 C58.3039295 483.86191518 55.85114961 491.02506897 50.375 497.3125 C46.6092255 499.04272071 43.11840492 499.10000155 39.0625 498.375 C33.8086467 496.01530389 31.17455236 492.70541787 29.0625 487.375 C28.711875 486.6428125 28.36125 485.910625 28 485.15625 C25.08485268 478.75912117 24.58486068 473.35384113 25.0625 466.375 C24.0725 466.045 23.0825 465.715 22.0625 465.375 C22.24039063 464.53582031 22.24039063 464.53582031 22.421875 463.6796875 C24.08886109 453.31103399 20.33730164 444.27464886 16.25 434.875 C14.23173357 429.91669173 13.98451485 426.60522294 14.6875 421.3125 C15.53822421 414.35202917 13.69575452 410.86294833 9.85546875 405.15234375 C7.41301307 401.36893201 6.28447161 397.68784098 5.0625 393.375 C2.4932429 395.9442571 3.73037165 402.86912697 3.6875 406.3125 C3.65011719 407.41658203 3.61273438 408.52066406 3.57421875 409.65820312 C3.50103368 416.5416658 4.43913718 421.06428993 7.82861328 427.04370117 C9.78128139 430.73306163 10.48447417 434.47734988 11.1875 438.5625 C11.34653809 439.42891113 11.50557617 440.29532227 11.66943359 441.18798828 C13.35400202 450.98619523 14.20921031 460.89878729 15.02392578 470.80151367 C15.18610596 472.70574097 15.18610596 472.70574097 15.3515625 474.6484375 C15.48618896 476.34105713 15.48618896 476.34105713 15.62353516 478.06787109 C16.0983355 481.64498203 17.02668591 484.92306633 18.0625 488.375 C18.23580541 490.01644985 18.36616089 491.66346904 18.4375 493.3125 C18.79717599 497.68855791 19.93578461 500.80310209 22.125 504.5859375 C23.12524756 506.49474327 23.61807482 508.27323923 24.0625 510.375 C24.7225 510.375 25.3825 510.375 26.0625 510.375 C29.53133017 516.74013498 30.75399396 522.74768696 31.625 529.91015625 C32.19862016 534.45302309 33.09377397 538.90237131 34.0625 543.375 C34.7225 543.375 35.3825 543.375 36.0625 543.375 C36.0625 547.335 36.0625 551.295 36.0625 555.375 C35.4025 555.375 34.7425 555.375 34.0625 555.375 C33.69125 556.303125 33.69125 556.303125 33.3125 557.25 C31.80505964 559.81264861 30.78554724 560.27508581 28.0625 561.375 C25.98779297 561.63378906 25.98779297 561.63378906 23.8046875 561.640625 C23.01449219 561.64320313 22.22429687 561.64578125 21.41015625 561.6484375 C20.59417969 561.64070312 19.77820313 561.63296875 18.9375 561.625 C18.11378906 561.63273438 17.29007813 561.64046875 16.44140625 561.6484375 C15.65378906 561.64585937 14.86617187 561.64328125 14.0546875 561.640625 C13.33651855 561.63836914 12.61834961 561.63611328 11.87841797 561.63378906 C10.0625 561.375 10.0625 561.375 8.0625 559.375 C5.49188689 558.72732207 5.49188689 558.72732207 3.0625 558.375 C1.21456708 552.52726491 2.99578517 546.63873624 4.03515625 540.76757812 C4.83290858 535.97028368 5.18685692 532.17488627 4.0625 527.375 C3.88332031 526.15425781 3.70414063 524.93351563 3.51953125 523.67578125 C2.33928524 516.11598005 0.81380863 510.07298531 -3.20703125 503.4609375 C-5.42891652 499.49865903 -7.10053307 495.38994145 -8.8125 491.1875 C-11.67663139 484.2055747 -14.7757787 477.42087174 -18.23583984 470.71411133 C-21.42884312 464.51968497 -24.04413422 458.37861977 -26 451.6875 C-27.0694774 448.03237845 -28.23425559 444.76747035 -29.9375 441.375 C-31.95475445 434.58855754 -31.97483643 427.93722679 -31.8125 420.9375 C-31.67446569 414.00871909 -32.33812564 408.50098671 -34.94140625 401.98828125 C-35.91136225 399.44357315 -36.36378405 397.18615361 -36.75 394.5 C-37.66570549 389.23683295 -40.03821631 384.76147577 -42.55004883 380.10791016 C-44.05665943 377.29636436 -44.9375 375.62154659 -44.9375 372.375 C-48.2375 372.705 -51.5375 373.035 -54.9375 373.375 C-58.56574809 366.11850381 -60.48649982 358.73673077 -62.33398438 350.87988281 C-63.01198555 348.06584881 -63.72978523 345.26365473 -64.453125 342.4609375 C-69.17214122 324.11958904 -69.17214122 324.11958904 -70.37890625 314.92578125 C-71.19475472 309.7397235 -72.31995463 304.6283849 -73.4375 299.5 C-73.65156494 298.51185303 -73.86562988 297.52370605 -74.08618164 296.50561523 C-75.82909444 286.1479648 -75.82909444 286.1479648 -80.9375 277.375 C-82.83518759 276.37969206 -82.83518759 276.37969206 -84.9375 276.375 C-87.15521064 277.23290183 -87.15521064 277.23290183 -88.9375 278.375 C-91.51217738 274.51298393 -91.39157025 271.11902797 -91.5625 266.625 C-91.60117188 265.85800781 -91.63984375 265.09101563 -91.6796875 264.30078125 C-92.30479638 250.52606049 -91.71451508 237.01630278 -90.65493774 223.29013062 C-88.95251259 200.95550724 -88.57713535 178.76380916 -88.9375 156.375 C-89.9275 156.375 -90.9175 156.375 -91.9375 156.375 C-92.2159375 156.95378906 -92.494375 157.53257812 -92.78125 158.12890625 C-96.45176188 165.25912358 -100.36297733 169.15937351 -107.765625 172.3671875 C-110.08293778 173.29125108 -110.08293778 173.29125108 -111.9375 175.375 C-112.17181889 177.99996475 -112.30543177 180.55787793 -112.375 183.1875 C-112.81997895 193.20482381 -113.6982689 202.57930815 -119.54296875 210.984375 C-123.03089912 216.9636842 -124.93977622 223.78146872 -126.9375 230.375 C-127.29457031 231.55320313 -127.65164062 232.73140625 -128.01953125 233.9453125 C-130.59787825 244.65899182 -129.9036882 255.37837265 -129.27124023 266.28564453 C-128.72825184 276.60824869 -129.46411884 285.02156666 -133.9375 294.375 C-134.5975 294.375 -135.2575 294.375 -135.9375 294.375 C-135.73125 295.303125 -135.525 296.23125 -135.3125 297.1875 C-134.9375 300.375 -134.9375 300.375 -136.9375 303.375 C-140.59066671 302.12523244 -141.71815836 301.70401247 -143.9375 298.375 C-145.58821429 302.31131869 -146.85556324 306.29641501 -148.05859375 310.38671875 C-148.9375 312.375 -148.9375 312.375 -151.9375 314.375 C-153.113125 314.54 -154.28875 314.705 -155.5 314.875 C-158.9946192 315.03347757 -158.9946192 315.03347757 -160.9375 317.375 C-162.9375 317.3125 -162.9375 317.3125 -164.9375 316.375 C-166.25 314 -166.25 314 -166.9375 311.375 C-166.6075 310.385 -166.2775 309.395 -165.9375 308.375 C-165.84395308 306.30657364 -165.75491763 304.23774691 -165.69873047 302.16796875 C-165.34136418 290.14531476 -164.48875508 277.9816457 -157.375 267.875 C-153.14356715 261.82107369 -152.24832585 255.64932034 -151.25244141 248.51513672 C-150.94047005 246.39518251 -150.56606596 244.29675636 -150.16796875 242.19140625 C-148.56697573 233.58459366 -147.59347146 225.04233541 -146.9375 216.3125 C-145.54334887 198.2354334 -143.35112857 180.71827403 -132.9375 165.375 C-131.54546068 162.83009746 -130.27145402 160.23183937 -129 157.625 C-128.65155029 156.92125244 -128.30310059 156.21750488 -127.9440918 155.49243164 C-126.44098115 152.45451091 -124.95418055 149.40966147 -123.484375 146.35546875 C-121.68025753 142.63875839 -119.93505152 139.25048965 -117.375 136 C-114.46530555 132.15374765 -113.32113514 127.88066591 -111.91015625 123.31640625 C-110.6193862 119.41299322 -108.87750147 115.99633608 -106.9375 112.375 C-106.2670854 111.04354723 -105.59947599 109.71066837 -104.9375 108.375 C-104.2775 108.375 -103.6175 108.375 -102.9375 108.375 C-102.7003125 107.82972656 -102.463125 107.28445312 -102.21875 106.72265625 C-100.60832426 103.77184567 -98.59597894 101.38795783 -96.4375 98.8125 C-94.12510361 96.04588289 -91.93832301 93.37623452 -89.9375 90.375 C-89.2775 90.375 -88.6175 90.375 -87.9375 90.375 C-87.710625 89.818125 -87.48375 89.26125 -87.25 88.6875 C-85.56064043 85.71100932 -83.43997295 83.69872488 -80.9375 81.375 C-80.339375 80.776875 -79.74125 80.17875 -79.125 79.5625 C-75.7326681 77.72094839 -72.75964982 78.18389251 -68.9375 78.375 C-68.4425 76.89 -68.4425 76.89 -67.9375 75.375 C-65.0234375 74.49609375 -65.0234375 74.49609375 -61.3125 73.8125 C-60.04019531 73.56371094 -58.76789063 73.31492187 -57.45703125 73.05859375 C-56.29558594 72.83300781 -55.13414062 72.60742188 -53.9375 72.375 C-50.38383256 71.53774851 -47.16984715 70.48880269 -43.875 68.875 C-38.30444423 66.34642975 -31.9483022 66.08362439 -25.9375 65.375 C-24.9538289 62.23985916 -24.9538289 62.23985916 -25.875 59.125 C-26.225625 58.5475 -26.57625 57.97 -26.9375 57.375 C-27.5975 57.375 -28.2575 57.375 -28.9375 57.375 C-33.04165132 52.54658669 -33.35483821 49.42640408 -32.9375 43.375 C-31.9475 43.045 -30.9575 42.715 -29.9375 42.375 C-29.97302979 41.785979 -30.00855957 41.19695801 -30.04516602 40.59008789 C-30.2045904 37.8729535 -30.35235298 35.15529882 -30.5 32.4375 C-30.55607422 31.51130859 -30.61214844 30.58511719 -30.66992188 29.63085938 C-31.4411526 14.97747565 -31.4411526 14.97747565 -28.3125 9.5625 C-20.35529747 2.23349767 -10.56845359 -0.17561641 0 0 Z M-142.9375 289.375 C-141.9375 291.375 -141.9375 291.375 -141.9375 291.375 Z M-143.9375 293.375 C-142.9375 295.375 -142.9375 295.375 -142.9375 295.375 Z " fill="#090909" transform="translate(241.9375,14.625)"/>
</svg>
