<svg width="217" height="439" viewBox="0 0 217 439" fill="none" xmlns="http://www.w3.org/2000/svg">
<path d="M118.666 2.13342C116.4 2.66676 112.8 5.06676 110.666 7.33342C105.733 12.4001 104.933 21.7334 107.733 38.4001C108.933 44.9334 109.466 51.0668 109.2 52.0001C108.8 52.9334 106.8 54.4001 104.666 55.3334C102.666 56.1334 99.4662 58.4001 97.7329 60.2668C96.1329 62.1334 91.3329 65.7334 87.3329 68.2668C74.7996 76.2668 72.2662 80.5334 67.8662 102.267C66.1329 111.067 63.3329 121.333 61.8662 125.067C52.9329 147.2 52.1329 150.4 53.5996 160.133C55.1996 171.6 53.9996 179.867 49.8662 183.6C47.4662 185.867 45.8662 189.733 43.9996 197.733C41.5996 208.267 41.5996 209.067 43.8662 216.133C45.4662 221.333 45.9996 225.467 45.3329 229.733C44.2662 237.6 46.2662 246.933 49.7329 250.4C51.1996 251.867 55.3329 253.733 58.9329 254.667C64.2662 256 65.3329 256.8 65.7329 259.733C65.9996 261.6 63.4662 273.2 60.2662 285.6C56.9329 297.867 53.5996 312.8 52.6662 318.667C49.3329 341.467 45.9996 361.6 44.7996 366C44.1329 368.533 41.7329 377.867 39.3329 386.533C37.0662 395.333 35.3329 403.867 35.7329 405.733C36.1329 408 35.5996 409.2 33.4662 410C31.9996 410.533 27.0662 414.4 22.6662 418.533C17.0662 423.733 12.5329 426.667 7.73289 428.267C-1.60045 431.2 -2.00045 434.667 6.79955 435.867C16.7996 437.2 65.7329 436.8 66.6662 435.333C67.0662 434.667 66.5329 428.8 65.4662 422.4C63.3329 408.4 64.1329 401.867 69.8662 386.133C72.1329 380 75.5996 369.6 77.4662 362.933C82.1329 346.133 88.6662 330 98.9329 309.467C109.066 288.933 114.133 280.667 116.133 280.667C117.066 280.667 118.133 283.467 118.666 286.933C119.2 290.533 121.866 300.267 124.666 308.667C132.8 333.2 134.533 343.733 133.466 364C132.8 377.067 132 382.533 130 386.267C128.666 388.933 127.866 391.467 128.266 391.867C130.4 394 128.4 405.6 124.666 412.933C122 418.133 120.933 421.867 121.466 424C122 425.867 121.466 428.4 120.133 430.267C116.133 435.867 117.333 438 124.4 438.267C135.066 438.667 144 437.867 144.933 436.267C145.466 435.333 146 433.067 146 430.933C146 428.933 147.066 424 148.533 420.133C150.933 413.067 150.933 412.933 148.4 408.933L145.866 404.8L150.533 400.4C160.666 390.8 162.666 381.6 167.333 324C168.133 313.733 170 295.2 171.466 282.933C172.8 270.667 174.266 253.467 174.8 244.933C175.2 236.4 176.4 226.267 177.466 222.4C178.666 218.667 179.733 210.8 179.866 205.067C180.4 191.867 180.4 191.333 181.733 191.333C182.4 191.333 183.6 197.2 184.533 204.267C185.466 211.467 187.066 219.2 188 221.6C189.733 225.733 194 228.267 196.666 226.667C197.333 226.267 200.133 226.533 202.933 227.2C207.333 228.4 208.266 228.267 210.933 225.733C214.533 222.4 214.8 217.467 212 211.733C210.266 208.133 210.133 206.8 211.866 199.867C214.133 190.933 214.8 184.667 216.133 164.533C217.066 147.867 215.6 139.333 209.066 124.133C206.533 118.133 202.4 108.4 200 102.4C191.333 80.9334 186 74.1334 171.2 66.6668C163.333 62.6668 161.866 61.2001 156.666 52.6668C151.066 43.4668 151.066 43.2001 152.666 37.4668C153.866 32.9334 154 29.8668 152.8 25.0668C152 21.6001 151.066 16.2668 150.533 13.4668C150.133 10.2668 148.266 6.80009 146 4.40009C142.533 0.933425 141.466 0.666758 132.4 0.800091C127.066 0.800091 120.8 1.46676 118.666 2.13342ZM73.8662 206.933C73.5996 210.533 73.9996 215.333 74.5329 217.733C75.3329 221.2 74.7996 223.867 71.4662 230.8C69.1996 235.733 67.3329 241.067 67.3329 242.8C67.3329 244.4 66.7996 246.133 65.9996 246.667C65.3329 247.067 64.6662 242.8 64.3996 235.733C63.9996 225.867 64.5329 222.133 67.7329 212.267C71.8662 199.467 74.3996 197.2 73.8662 206.933Z" fill="black"/>
</svg>
