<svg width="226" height="563" viewBox="0 0 226 563" fill="none" xmlns="http://www.w3.org/2000/svg">
<path d="M166.938 0.624948C168.255 0.639088 168.255 0.639088 169.598 0.653513C178.666 0.864938 187.376 2.24089 194 8.99995C196.595 13.8509 196.606 19.5962 196 24.9999C195.676 25.5847 195.352 26.1695 195.019 26.7719C193.733 29.5851 193.614 31.93 193.438 35.0156C193.363 36.1848 193.288 37.3539 193.211 38.5585C193.141 39.7767 193.072 40.9949 193 42.2499C191.801 62.9678 191.801 62.9678 186.438 68.0624C182.944 71.7229 182.105 73.9767 182 78.9999C182.99 79.3299 183.98 79.6599 185 79.9999C185 80.6599 185 81.3199 185 81.9999C186.207 82.0928 186.207 82.0928 187.438 82.1874C191.399 83.091 194.21 84.6325 197.691 86.664C201.048 88.6064 204.52 90.2933 208 91.9999C209.334 92.6657 210.667 93.3321 212 93.9999C212 94.6599 212 95.3199 212 95.9999C212.743 96.1856 213.485 96.3712 214.25 96.5624C218.661 98.8682 219.814 102.627 222 107C223.525 119.245 222.928 130.215 219 142C218.683 144.812 218.395 147.621 218.125 150.437C216.241 168.639 216.241 168.639 212 175C210.021 175.727 208.02 176.398 206 177C203.068 179.932 204.059 188.798 204 193C204.095 195.715 204.29 198.417 204.5 201.125C204.993 207.594 204.93 213.899 204.562 220.375C202.535 240.798 202.535 240.798 208 260C211.161 266.321 208.72 277.224 208 284C207.67 284.66 207.34 285.32 207 286C207.064 288.766 207.19 291.492 207.375 294.25C207.419 295.001 207.463 295.753 207.508 296.527C207.708 299.712 207.954 302.765 208.562 305.902C209.198 310.405 208.881 314.783 208.625 319.312C208.559 320.661 208.559 320.661 208.492 322.037C208.282 326.079 208.012 330.074 207.477 334.086C206.702 340.688 206.777 347.347 206.76 353.986C206.75 356.325 206.719 358.663 206.688 361.002C206.681 362.497 206.676 363.993 206.672 365.488C206.653 366.53 206.653 366.53 206.634 367.594C206.654 371.758 207.229 373.899 210 377C210 377.66 210 378.32 210 379C210.66 379 211.32 379 212 379C215.909 387.3 214.789 397.218 211.867 405.691C211.581 406.453 211.295 407.215 211 408C208.107 415.325 208.107 415.325 208 423C209.353 425.339 210.853 427.521 212.414 429.727C216.805 436.022 218.964 442.701 221.07 450.047C221.89 452.922 221.89 452.922 223.078 455.156C225.835 460.669 225.119 468.088 225.188 474.125C225.201 474.794 225.214 475.462 225.227 476.151C225.241 484.487 222.789 491.65 217.312 497.937C213.547 499.668 210.056 499.725 206 499C200.746 496.64 198.112 493.33 196 488C195.649 487.268 195.299 486.536 194.938 485.781C192.022 479.384 191.522 473.979 192 467C191.01 466.67 190.02 466.34 189 466C189.178 465.161 189.178 465.161 189.359 464.305C191.026 453.936 187.275 444.9 183.188 435.5C181.169 430.542 180.922 427.23 181.625 421.937C182.476 414.977 180.633 411.488 176.793 405.777C174.351 401.994 173.222 398.313 172 394C169.431 396.569 170.668 403.494 170.625 406.937C170.588 408.042 170.55 409.146 170.512 410.283C170.439 417.167 171.377 421.689 174.766 427.669C176.719 431.358 177.422 435.102 178.125 439.187C178.284 440.054 178.443 440.92 178.607 441.813C180.292 451.611 181.147 461.524 181.961 471.426C182.124 473.331 182.124 473.331 182.289 475.273C182.424 476.966 182.424 476.966 182.561 478.693C183.036 482.27 183.964 485.548 185 489C185.173 490.641 185.304 492.288 185.375 493.937C185.735 498.313 186.873 501.428 189.062 505.211C190.063 507.12 190.556 508.898 191 511C191.66 511 192.32 511 193 511C196.469 517.365 197.691 523.373 198.562 530.535C199.136 535.078 200.031 539.527 201 544C201.66 544 202.32 544 203 544C203 547.96 203 551.92 203 556C202.34 556 201.68 556 201 556C200.629 556.928 200.629 556.928 200.25 557.875C198.743 560.438 197.723 560.9 195 562C192.925 562.259 192.925 562.259 190.742 562.266C189.952 562.268 189.162 562.271 188.348 562.273C187.532 562.266 186.716 562.258 185.875 562.25C185.051 562.258 184.228 562.265 183.379 562.273C182.591 562.271 181.804 562.268 180.992 562.266C180.274 562.263 179.556 562.261 178.816 562.259C177 562 177 562 175 560C172.429 559.352 172.429 559.352 170 559C168.152 553.152 169.933 547.264 170.973 541.393C171.77 536.595 172.124 532.8 171 528C170.821 526.779 170.642 525.558 170.457 524.301C169.277 516.741 167.751 510.698 163.73 504.086C161.509 500.124 159.837 496.015 158.125 491.812C155.261 484.831 152.162 478.046 148.702 471.339C145.509 465.145 142.893 459.004 140.938 452.312C139.868 448.657 138.703 445.392 137 442C134.983 435.213 134.963 428.562 135.125 421.562C135.263 414.634 134.599 409.126 131.996 402.613C131.026 400.069 130.574 397.811 130.188 395.125C129.272 389.862 126.899 385.386 124.387 380.733C122.881 377.921 122 376.246 122 373C118.7 373.33 115.4 373.66 112 374C108.372 366.743 106.451 359.362 104.604 351.505C103.926 348.691 103.208 345.889 102.484 343.086C97.7654 324.745 97.7654 324.745 96.5586 315.551C95.7427 310.365 94.6175 305.253 93.5 300.125C93.2859 299.137 93.0719 298.149 92.8513 297.131C91.1084 286.773 91.1084 286.773 86 278C84.1023 277.005 84.1023 277.005 82 277C79.7823 277.858 79.7823 277.858 78 279C75.4253 275.138 75.5459 271.744 75.375 267.25C75.3363 266.483 75.2977 265.716 75.2578 264.926C74.6327 251.151 75.223 237.641 76.2826 223.915C77.985 201.58 78.3604 179.389 78 157C77.01 157 76.02 157 75 157C74.7216 157.579 74.4431 158.158 74.1562 158.754C70.4857 165.884 66.5745 169.784 59.1719 172.992C56.8546 173.916 56.8546 173.916 55 176C54.7657 178.625 54.6321 181.183 54.5625 183.812C54.1175 193.83 53.2392 203.204 47.3945 211.609C43.9066 217.589 41.9977 224.406 40 231C39.6429 232.178 39.2859 233.356 38.918 234.57C36.3396 245.284 37.0338 256.003 37.6663 266.911C38.2092 277.233 37.4734 285.647 33 295C32.34 295 31.68 295 31 295C31.2062 295.928 31.4125 296.856 31.625 297.812C32 301 32 301 30 304C26.3468 302.75 25.2193 302.329 23 299C21.3493 302.936 20.0819 306.921 18.8789 311.012C18 313 18 313 15 315C13.8244 315.165 12.6487 315.33 11.4375 315.5C7.94288 315.658 7.94288 315.658 6 318C4 317.937 4 317.937 2 317C0.6875 314.625 0.6875 314.625 0 312C0.33 311.01 0.66 310.02 1 309C1.09355 306.932 1.18258 304.863 1.23877 302.793C1.59614 290.77 2.44874 278.607 9.5625 268.5C13.7939 262.446 14.6892 256.274 15.6851 249.14C15.997 247.02 16.3714 244.922 16.7695 242.816C18.3705 234.21 19.344 225.667 20 216.937C21.3942 198.86 23.5864 181.343 34 166C35.392 163.455 36.666 160.857 37.9375 158.25C38.2859 157.546 38.6344 156.842 38.9934 156.117C40.4965 153.079 41.9833 150.035 43.4531 146.98C45.2572 143.264 47.0024 139.875 49.5625 136.625C52.4722 132.779 53.6164 128.506 55.0273 123.941C56.3181 120.038 58.06 116.621 60 113C60.6704 111.668 61.338 110.336 62 109C62.66 109 63.32 109 64 109C64.2372 108.455 64.4744 107.909 64.7188 107.348C66.3292 104.397 68.3415 102.013 70.5 99.4374C72.8124 96.6708 74.9992 94.0012 77 90.9999C77.66 90.9999 78.32 90.9999 79 90.9999C79.2269 90.4431 79.4537 89.8862 79.6875 89.3124C81.3769 86.336 83.4975 84.3237 86 81.9999C86.5981 81.4018 87.1963 80.8037 87.8125 80.1874C91.2048 78.3459 94.1779 78.8088 98 78.9999C98.495 77.5149 98.495 77.5149 99 75.9999C101.914 75.121 101.914 75.121 105.625 74.4374C106.897 74.1887 108.17 73.9399 109.48 73.6835C110.642 73.458 111.803 73.2324 113 72.9999C116.554 72.1627 119.768 71.1137 123.062 69.4999C128.633 66.9714 134.989 66.7086 141 65.9999C141.984 62.8648 141.984 62.8648 141.062 59.7499C140.712 59.1724 140.361 58.5949 140 57.9999C139.34 57.9999 138.68 57.9999 138 57.9999C133.896 53.1715 133.583 50.0514 134 43.9999C134.99 43.6699 135.98 43.3399 137 42.9999C136.964 42.4109 136.929 41.8219 136.892 41.215C136.733 38.4979 136.585 35.7802 136.438 33.0624C136.381 32.1363 136.325 31.2101 136.268 30.2558C135.496 15.6024 135.496 15.6024 138.625 10.1874C146.582 2.85845 156.369 0.449332 166.938 0.624948ZM24 290C25 292 25 292 25 292L24 290ZM23 294C24 296 24 296 24 296L23 294Z" fill="#090909"/>
</svg>
