<?xml version="1.0" encoding="UTF-8"?>
<svg version="1.1" xmlns="http://www.w3.org/2000/svg" width="393" height="634">
<path d="M0 0 C1.20946289 -0.00580078 1.20946289 -0.00580078 2.44335938 -0.01171875 C3.21873047 -0.01042969 3.99410156 -0.00914063 4.79296875 -0.0078125 C5.49317139 -0.00668457 6.19337402 -0.00555664 6.91479492 -0.00439453 C8.8125 0.125 8.8125 0.125 11.8125 1.125 C12.8025 2.61 12.8025 2.61 13.8125 4.125 C17.13866279 4.85594365 20.40754873 5.35015984 23.78320312 5.765625 C30.46719823 6.77966311 33.08430642 9.95367986 37.25 15.1875 C40.15267043 19.33548014 42.23604981 23.88110067 44.3828125 28.453125 C45.60563193 31.09179941 45.60563193 31.09179941 47.35839844 32.54516602 C49.12481113 34.46431587 49.27717472 35.50498612 49.5078125 38.07421875 C49.58386719 38.84056641 49.65992188 39.60691406 49.73828125 40.39648438 C49.80402344 41.19376953 49.86976563 41.99105469 49.9375 42.8125 C50.08544993 44.37895238 50.23388422 45.94535908 50.3828125 47.51171875 C50.45016602 48.27919434 50.51751953 49.04666992 50.58691406 49.83740234 C50.80774059 52.07673627 51.11071772 54.29234771 51.4296875 56.51953125 C51.8125 60.125 51.8125 60.125 50.8125 63.125 C47.8125 65.125 47.8125 65.125 44.8125 65.125 C44.998125 65.74375 45.18375 66.3625 45.375 67 C45.8125 69.125 45.8125 69.125 44.8125 71.125 C44.1525 71.125 43.4925 71.125 42.8125 71.125 C42.4825 72.115 42.1525 73.105 41.8125 74.125 C41.1525 74.125 40.4925 74.125 39.8125 74.125 C39.6578125 75.0840625 39.6578125 75.0840625 39.5 76.0625 C39.1596875 77.0834375 39.1596875 77.0834375 38.8125 78.125 C37.8225 78.455 36.8325 78.785 35.8125 79.125 C35.4721875 80.300625 35.4721875 80.300625 35.125 81.5 C33.8125 84.125 33.8125 84.125 32.015625 84.875 C30.61810011 85.28303646 29.2068602 85.64736541 27.78515625 85.9609375 C24.59535747 87.8432346 24.06421929 90.71122013 22.8125 94.125 C23.43181396 94.13958252 24.05112793 94.15416504 24.68920898 94.16918945 C27.54337773 94.24447417 30.39647749 94.34086314 33.25 94.4375 C34.22388672 94.46005859 35.19777344 94.48261719 36.20117188 94.50585938 C44.61435111 94.81537433 52.6816763 95.84669944 58.8125 102.125 C60.74909386 104.7898232 62.47188101 107.56431152 64.1875 110.375 C67.55162232 115.75150272 70.91341454 120.61409833 75.265625 125.24609375 C77.81054236 128.33726862 79.50871771 131.85526345 81.34375 135.3984375 C82.72157807 137.95621407 84.2222269 140.30109802 85.875 142.6875 C88.49840803 146.51018027 90.51058694 150.45608353 92.515625 154.62890625 C94.27485751 158.01489894 96.38362464 161.098427 98.578125 164.21484375 C100.67637012 167.46181168 100.91011555 170.01228258 100.76953125 173.765625 C100.73762695 175.12494141 100.73762695 175.12494141 100.70507812 176.51171875 C100.65211911 178.40532657 100.58720884 180.29864166 100.50976562 182.19140625 C100.38844399 188.54506529 101.27802077 191.85576718 104.8125 197.125 C107.52374392 203.31352184 109.49176819 209.36397353 109.8125 216.125 C109.90724609 217.28322266 109.90724609 217.28322266 110.00390625 218.46484375 C110.35479198 225.99190854 108.63870457 232.7059347 106.82421875 239.9375 C105.95406853 243.44023005 105.28309202 246.92782783 104.75 250.5 C104.5953125 251.53125 104.440625 252.5625 104.28125 253.625 C103.92396827 256.2927036 103.62119718 258.94897719 103.34375 261.625 C102.0087384 273.17758066 98.94019839 281.8409146 91.8125 291.125 C90.8225 291.785 89.8325 292.445 88.8125 293.125 C88.15718772 295.57433349 88.15718772 295.57433349 87.875 298.375 C87.12755956 303.28127572 85.61346175 306.01692276 82.8125 310.125 C82.16556758 315.11562151 83.21020843 318.51605347 85.09375 323.015625 C85.87688057 325.31394297 86.0877312 327.33219485 86.25 329.75 C86.62695985 334.1830478 88.24577514 336.4582502 90.8125 340.125 C97.68388416 355.16775991 104.32878654 379.65047346 101.8125 396.125 C100.78857422 398.39160156 100.78857422 398.39160156 99.4921875 400.703125 C96.59306741 406.26595333 95.02211682 411.89240881 93.4375 417.9375 C91.17722455 426.1457367 88.68005187 433.23125222 84.3125 440.5625 C82.94731911 442.89468402 81.95928053 445.08412183 81.0625 447.625 C77.98991817 456.22822912 71.76754769 465.16353055 64.8125 471.125 C64.1525 471.125 63.4925 471.125 62.8125 471.125 C62.5753125 471.70121094 62.338125 472.27742188 62.09375 472.87109375 C60.53606009 475.61129826 58.71710321 477.15195773 56.3125 479.1875 C51.38068964 483.48849741 47.11988688 488.10271355 42.84375 493.03515625 C42.1734375 493.72480469 41.503125 494.41445313 40.8125 495.125 C40.1525 495.125 39.4925 495.125 38.8125 495.125 C38.6578125 495.9603125 38.6578125 495.9603125 38.5 496.8125 C37.40662937 500.49020121 35.23009276 503.46648835 33.1875 506.6875 C31.05736118 510.46365518 30.69332633 512.37023341 31.375 516.6875 C31.8125 520.125 31.8125 520.125 29.8125 523.125 C29.1525 523.125 28.4925 523.125 27.8125 523.125 C27.956875 523.76566406 28.10125 524.40632812 28.25 525.06640625 C29.87129554 532.6211931 30.69344236 538.74258521 27.8125 546.125 C27.1525 546.125 26.4925 546.125 25.8125 546.125 C25.709375 547.40375 25.60625 548.6825 25.5 550 C25.32421875 552.1796875 25.32421875 552.1796875 24.8125 554.125 C21.49879 556.33414 20.4678979 556.34981553 16.625 556.25 C15.72394531 556.23195313 14.82289063 556.21390625 13.89453125 556.1953125 C12.86392578 556.16050781 12.86392578 556.16050781 11.8125 556.125 C7.57070057 563.89185756 7.57070057 563.89185756 4.625 572.1875 C3.77458329 575.26208349 3.28792261 576.22869002 0.8125 578.125 C-1.09765625 578.26953125 -1.09765625 578.26953125 -3.25 577.9375 C-4.03632813 577.81632813 -4.82265625 577.69515625 -5.6328125 577.5703125 C-6.47585937 577.42335938 -7.31890625 577.27640625 -8.1875 577.125 C-9.09242188 576.99867188 -9.99734375 576.87234375 -10.9296875 576.7421875 C-11.81914062 576.60039063 -12.70859375 576.45859375 -13.625 576.3125 C-14.44871094 576.18230469 -15.27242188 576.05210937 -16.12109375 575.91796875 C-18.1875 575.125 -18.1875 575.125 -19.3515625 573.10546875 C-19.76535156 572.12513672 -19.76535156 572.12513672 -20.1875 571.125 C-20.826875 570.83625 -21.46625 570.5475 -22.125 570.25 C-25.23072087 568.55597043 -25.83600759 566.3446218 -27.1875 563.125 C-27.94873502 558.37003923 -27.99245503 553.87754271 -27.1875 549.125 C-25.6171875 547.0703125 -25.6171875 547.0703125 -23.6875 545.375 C-20.28024305 542.15396965 -19.69737715 539.58518873 -19.54248047 534.91601562 C-19.61028537 526.94480567 -20.62596144 519.45347436 -22.41015625 511.68359375 C-23.15773991 508.26123839 -23.60629157 504.91593427 -24 501.4375 C-25.40222375 491.02777112 -28.42919817 480.24003823 -32.75390625 470.65234375 C-36.15405236 462.28631667 -36.57550868 453.82291758 -36.5625 444.875 C-36.56117065 443.22890747 -36.56117065 443.22890747 -36.55981445 441.54956055 C-36.41920505 431.89176457 -34.98058887 423.67686462 -30.59765625 414.96484375 C-27.58600207 408.89982273 -27.36918375 401.61751903 -29.1875 395.125 C-30.65688293 392.9102779 -32.29694971 391.13939342 -34.15234375 389.23828125 C-41.23134173 381.8875367 -45.77885864 373.67712288 -49.1875 364.125 C-49.54070312 363.16207031 -49.89390625 362.19914062 -50.2578125 361.20703125 C-51.1875 358.125 -51.1875 358.125 -51.5859375 354.68359375 C-52.2661659 350.6596452 -53.74767012 347.63866069 -55.8125 344.1875 C-56.17005371 343.57124756 -56.52760742 342.95499512 -56.89599609 342.32006836 C-58.9197087 338.92647864 -61.04835829 336.00100138 -63.8125 333.1875 C-68.79898179 327.84969791 -70.84318646 320.90424094 -73.1875 314.125 C-73.43306641 313.43180664 -73.67863281 312.73861328 -73.93164062 312.02441406 C-77.50445772 301.83858591 -80.41920692 292.7042673 -76.1875 282.125 C-74.0625 280.1875 -74.0625 280.1875 -72.1875 279.125 C-72.673396 278.64844971 -73.15929199 278.17189941 -73.65991211 277.6809082 C-75.90219161 273.92920227 -75.62830856 270.52598557 -75.62890625 266.23046875 C-75.64211411 265.36488846 -75.65532196 264.49930817 -75.66893005 263.60749817 C-75.70978247 260.84246639 -75.73147025 258.0777649 -75.75 255.3125 C-75.77386788 252.5580499 -75.8021555 249.80390724 -75.84178162 247.04963684 C-75.86592885 245.33790258 -75.88095743 243.62600711 -75.88539124 241.91410828 C-75.94980241 236.93534446 -76.64716914 232.85968547 -78.1875 228.125 C-78.33222454 226.75367564 -78.44523182 225.377852 -78.5 224 C-79.3057559 219.45846674 -80.68213531 218.00119667 -84.1875 215.125 C-84.14625 216.0325 -84.105 216.94 -84.0625 217.875 C-84.1875 221.125 -84.1875 221.125 -86.1875 225.125 C-90.1475 225.125 -94.1075 225.125 -98.1875 225.125 C-99.42379495 233.40102406 -99.51602405 241.68379464 -99.70507812 250.0390625 C-99.88741324 256.17653115 -100.39671326 261.90240695 -101.73120117 267.89453125 C-103.81017626 278.05692632 -102.27134827 288.29905771 -99.9375 298.25 C-99.73310303 299.1263208 -99.52870605 300.0026416 -99.31811523 300.90551758 C-97.95675099 306.25582822 -96.030601 310.40817132 -93.1875 315.125 C-92.3312886 319.07674494 -91.90776941 321.28580823 -93.1875 325.125 C-93.28880351 326.999115 -93.36964797 328.87437596 -93.4375 330.75 C-93.96234798 337.62300931 -96.02410559 342.88049291 -100.86328125 347.84375 C-104.19040182 349.67786016 -107.36147326 349.59984981 -111.0625 349.5625 C-111.75730469 349.58248047 -112.45210937 349.60246094 -113.16796875 349.62304688 C-118.34965007 349.6181677 -121.30277012 348.51581423 -125.1875 345.125 C-129.48995536 338.82214105 -133.44995607 331.26391687 -132.89453125 323.44921875 C-131.50056943 318.86685808 -128.33137922 315.62322532 -125.1875 312.125 C-119.78741195 301.3248239 -125.80749284 281.43409515 -127.75 269.8125 C-129.53471886 259.08269361 -130.65398103 248.71902584 -130.625 237.8125 C-130.62250244 236.68610107 -130.62000488 235.55970215 -130.61743164 234.39916992 C-130.52837364 229.65027223 -130.43999074 226.34400349 -128.1875 222.125 C-127.97083793 220.02694322 -127.83172949 217.92013019 -127.75 215.8125 C-127.41124508 210.55011758 -126.4923862 206.90550472 -124.1875 202.125 C-123.56521336 200.0470071 -122.96314454 197.96291311 -122.375 195.875 C-121.08155738 191.52073896 -119.60508198 187.87682726 -117.25 184 C-114.38505015 179.07631735 -112.97879392 174.23283852 -111.625 168.75 C-108.6362441 156.66497912 -105.0741135 145.03789707 -97.1875 135.125 C-96.5275 135.125 -95.8675 135.125 -95.1875 135.125 C-94.94 134.403125 -94.6925 133.68125 -94.4375 132.9375 C-87.64557535 117.65566953 -67.45117024 109.21680655 -52.9765625 103.20703125 C-50.80089553 102.12919401 -50.80089553 102.12919401 -49.75 98.75 C-48.04304128 94.78985576 -46.84081185 93.33397926 -43.1875 91.125 C-39.875 90.375 -39.875 90.375 -37.1875 90.125 C-37.6825 86.66 -37.6825 86.66 -38.1875 83.125 C-38.909375 83.021875 -39.63125 82.91875 -40.375 82.8125 C-43.43241993 82.06513068 -45.57079635 80.84454811 -48.1875 79.125 C-47.8575 77.475 -47.5275 75.825 -47.1875 74.125 C-48.8375 74.125 -50.4875 74.125 -52.1875 74.125 C-54.53979382 70.44954091 -54.1875 67.39725674 -54.1875 63.125 C-54.5175 62.073125 -54.8475 61.02125 -55.1875 59.9375 C-56.58545723 54.60778807 -57.05843724 49.59088201 -56.1875 44.125 C-54.9096697 42.10038576 -53.50273163 40.68687075 -51.76953125 39.04296875 C-49.68523556 36.51608188 -49.04290017 34.0689372 -48.125 30.9375 C-45.70393963 23.02476609 -41.24532911 21.1186222 -34.32421875 17.33203125 C-29.94022209 14.85551394 -27.13163058 12.13243186 -24.25 8.0625 C-21.0437241 3.65079557 -17.95622947 1.7168211 -12.57421875 0.56640625 C-8.36079324 0.0172516 -4.24359889 -0.02065012 0 0 Z M62.8125 200.125 C62.66794265 203.46588096 62.71920501 206.78260566 62.8125 210.125 C62.83183594 211.3109375 62.85117187 212.496875 62.87109375 213.71875 C63.62112344 225.25766824 68.25474626 232.83146911 74.6484375 242.28271484 C76.02725908 244.46488507 77.00117134 246.67652601 77.8125 249.125 C81.23809084 247.92141403 83.34508609 246.76607354 85.8125 244.125 C85.64234375 243.56554687 85.4721875 243.00609375 85.296875 242.4296875 C84.77279634 240.69576767 84.25528486 238.95985731 83.7421875 237.22265625 C83.10457263 235.09816636 82.44173804 232.98113069 81.7578125 230.87109375 C79.36105423 223.18222325 78.28114275 216.19796642 77.98828125 208.20703125 C77.94519039 205.08691273 77.94519039 205.08691273 76.8125 202.125 C75.7296875 202.558125 75.7296875 202.558125 74.625 203 C70.71875 204.5625 70.71875 204.5625 66.8125 206.125 C66.52375 205.320625 66.235 204.51625 65.9375 203.6875 C65.07987432 200.9923532 65.07987432 200.9923532 62.8125 200.125 Z M83.8125 268.125 C84.8125 272.125 84.8125 272.125 84.8125 272.125 Z M-106.1875 329.125 C-106.5175 330.115 -106.8475 331.105 -107.1875 332.125 C-106.1975 332.125 -105.2075 332.125 -104.1875 332.125 C-104.1875 331.135 -104.1875 330.145 -104.1875 329.125 C-104.8475 329.125 -105.5075 329.125 -106.1875 329.125 Z M12.8125 368.125 C11.67610359 371.53418923 12.12117301 373.92815942 12.54296875 377.4375 C13.9913794 391.87962362 11.60681875 406.3136293 7.625 420.1875 C5.45401653 427.94814205 5.13614534 434.15271661 6.8125 442 C7.89861674 447.43058369 8.03818538 452.73159413 8.0625 458.25 C8.07603516 459.50272705 8.07603516 459.50272705 8.08984375 460.78076172 C8.06635959 465.7447263 7.44226263 470.14813228 6.2578125 474.95996094 C5.54723331 478.41468478 5.62393884 481.65985535 5.6875 485.1875 C5.70554688 486.49847656 5.72359375 487.80945313 5.7421875 489.16015625 C5.76539063 490.13855469 5.78859375 491.11695313 5.8125 492.125 C7.81863134 491.30968266 7.81863134 491.30968266 9.8125 490.125 C10.62421228 487.56980079 10.62421228 487.56980079 10.8125 485.125 C11.4725 485.125 12.1325 485.125 12.8125 485.125 C14.11988074 482.13670118 14.99188722 479.30865284 15.625 476.125 C16.63813514 471.88396918 18.72098006 470.21651994 21.8125 467.125 C26.63482302 459.69936635 28.67312555 452.09737033 30.42529297 443.56103516 C32.90015479 431.61229083 38.98810717 420.67672901 47.8125 412.125 C48.73294862 410.91415633 49.62935748 409.68463658 50.5 408.4375 C50.93699219 407.81488281 51.37398437 407.19226563 51.82421875 406.55078125 C52.15035156 406.08027344 52.47648437 405.60976563 52.8125 405.125 C51.93078125 404.72667969 51.0490625 404.32835937 50.140625 403.91796875 C46.73812376 402.08493111 44.35195322 400.09432584 41.5625 397.4375 C38.65224212 394.21088744 38.65224212 394.21088744 34.8125 393.125 C34.4825 392.135 34.1525 391.145 33.8125 390.125 C33.008125 389.485625 32.20375 388.84625 31.375 388.1875 C28.78709498 386.10455206 28.20838941 385.00402191 26.8125 382.125 C26.008125 381.34125 25.20375 380.5575 24.375 379.75 C21.8125 377.125 21.8125 377.125 20.25 373.875 C19.11077938 370.96908123 19.11077938 370.96908123 16.625 370.25 C16.026875 370.20875 15.42875 370.1675 14.8125 370.125 C14.8125 369.465 14.8125 368.805 14.8125 368.125 C14.1525 368.125 13.4925 368.125 12.8125 368.125 Z " fill="#0A0A0A" transform="translate(236.1875,20.875)"/>
</svg>
