<svg width="244" height="580" viewBox="0 0 244 580" fill="none" xmlns="http://www.w3.org/2000/svg">
<path d="M133.188 0.875C134.397 0.869199 134.397 0.869199 135.631 0.863281C136.406 0.86457 137.182 0.865859 137.98 0.867188C138.681 0.868315 139.381 0.869443 140.102 0.870605C142 1 142 1 145 2C145.99 3.485 145.99 3.485 147 5C150.326 5.73094 153.595 6.22516 156.971 6.64062C163.655 7.65466 166.272 10.8287 170.438 16.0625C173.34 20.2105 175.424 24.7561 177.57 29.3281C178.793 31.9668 178.793 31.9668 180.546 33.4202C182.312 35.3393 182.465 36.38 182.695 38.9492C182.771 39.7156 182.847 40.4819 182.926 41.2715C182.992 42.0688 183.057 42.8661 183.125 43.6875C183.273 45.254 183.421 46.8204 183.57 48.3867C183.638 49.1542 183.705 49.9217 183.774 50.7124C183.995 52.9517 184.298 55.1673 184.617 57.3945C185 61 185 61 184 64C181 66 181 66 178 66C178.186 66.6187 178.371 67.2375 178.563 67.875C179 70 179 70 178 72C177.34 72 176.68 72 176 72C175.67 72.99 175.34 73.98 175 75C174.34 75 173.68 75 173 75C172.845 75.9591 172.845 75.9591 172.688 76.9375C172.347 77.9584 172.347 77.9584 172 79C171.01 79.33 170.02 79.66 169 80C168.66 81.1756 168.66 81.1756 168.313 82.375C167 85 167 85 165.203 85.75C163.806 86.158 162.394 86.5224 160.973 86.8359C157.783 88.7182 157.252 91.5862 156 95C156.619 95.0146 157.239 95.0292 157.877 95.0442C160.731 95.1195 163.584 95.2159 166.438 95.3125C167.411 95.3351 168.385 95.3576 169.389 95.3809C177.802 95.6904 185.869 96.7217 192 103C193.937 105.665 195.659 108.439 197.375 111.25C200.739 116.627 204.101 121.489 208.453 126.121C210.998 129.212 212.696 132.73 214.531 136.273C215.909 138.831 217.41 141.176 219.063 143.562C221.686 147.385 223.698 151.331 225.703 155.504C227.462 158.89 229.571 161.973 231.766 165.09C233.864 168.337 234.098 170.887 233.957 174.641C233.925 176 233.925 176 233.893 177.387C233.84 179.28 233.775 181.174 233.697 183.066C233.576 189.42 234.466 192.731 238 198C240.711 204.189 242.679 210.239 243 217C243.095 218.158 243.095 218.158 243.191 219.34C243.542 226.867 241.826 233.581 240.012 240.812C239.142 244.315 238.471 247.803 237.938 251.375C237.783 252.406 237.628 253.438 237.469 254.5C237.111 257.168 236.809 259.824 236.531 262.5C235.196 274.053 232.128 282.716 225 292C224.01 292.66 223.02 293.32 222 294C221.345 296.449 221.345 296.449 221.063 299.25C220.315 304.156 218.801 306.892 216 311C215.353 315.991 216.398 319.391 218.281 323.891C219.064 326.189 219.275 328.207 219.438 330.625C219.814 335.058 221.433 337.333 224 341C230.871 356.043 237.516 380.525 235 397C233.976 399.267 233.976 399.267 232.68 401.578C229.781 407.141 228.21 412.767 226.625 418.812C224.365 427.021 221.868 434.106 217.5 441.438C216.135 443.77 215.147 445.959 214.25 448.5C211.177 457.103 204.955 466.039 198 472C197.34 472 196.68 472 196 472C195.763 472.576 195.526 473.152 195.281 473.746C193.724 476.486 191.905 478.027 189.5 480.062C184.568 484.363 180.307 488.978 176.031 493.91C175.361 494.6 174.691 495.289 174 496C173.34 496 172.68 496 172 496C171.845 496.835 171.845 496.835 171.688 497.688C170.594 501.365 168.418 504.341 166.375 507.562C164.245 511.339 163.881 513.245 164.563 517.562C165 521 165 521 163 524C162.34 524 161.68 524 161 524C161.144 524.641 161.289 525.281 161.438 525.941C163.059 533.496 163.881 539.618 161 547C160.34 547 159.68 547 159 547C158.897 548.279 158.794 549.558 158.688 550.875C158.512 553.055 158.512 553.055 158 555C154.686 557.209 153.655 557.225 149.813 557.125C148.911 557.107 148.01 557.089 147.082 557.07C146.051 557.036 146.051 557.036 145 557C140.758 564.767 140.758 564.767 137.813 573.062C136.962 576.137 136.475 577.104 134 579C132.09 579.145 132.09 579.145 129.938 578.812C129.151 578.691 128.365 578.57 127.555 578.445C126.712 578.298 125.869 578.151 125 578C124.095 577.874 123.19 577.747 122.258 577.617C121.368 577.475 120.479 577.334 119.563 577.188C118.739 577.057 117.915 576.927 117.066 576.793C115 576 115 576 113.836 573.98C113.422 573 113.422 573 113 572C112.361 571.711 111.721 571.423 111.063 571.125C107.957 569.431 107.352 567.22 106 564C105.239 559.245 105.195 554.753 106 550C107.57 547.945 107.57 547.945 109.5 546.25C112.907 543.029 113.49 540.46 113.645 535.791C113.577 527.82 112.562 520.328 110.777 512.559C110.03 509.136 109.581 505.791 109.188 502.312C107.785 491.903 104.758 481.115 100.434 471.527C97.0335 463.161 96.612 454.698 96.625 445.75C96.6263 444.104 96.6263 444.104 96.6277 442.425C96.7683 432.767 98.2069 424.552 102.59 415.84C105.602 409.775 105.818 402.493 104 396C102.531 393.785 100.891 392.014 99.0352 390.113C91.9562 382.763 87.4086 374.552 84 365C83.6468 364.037 83.2936 363.074 82.9297 362.082C82 359 82 359 81.6016 355.559C80.9213 351.535 79.4398 348.514 77.375 345.062C77.0175 344.446 76.6599 343.83 76.2915 343.195C74.2678 339.801 72.1391 336.876 69.375 334.062C64.3885 328.725 62.3443 321.779 60 315C59.7544 314.307 59.5089 313.614 59.2559 312.899C55.683 302.714 52.7683 293.579 57 283C59.125 281.062 59.125 281.062 61 280C60.5141 279.523 60.0282 279.047 59.5276 278.556C57.2853 274.804 57.5592 271.401 57.5586 267.105C57.5454 266.24 57.5322 265.374 57.5186 264.483C57.4777 261.717 57.456 258.953 57.4375 256.188C57.4136 253.433 57.3854 250.679 57.3457 247.925C57.3216 246.213 57.3066 244.501 57.3021 242.789C57.2377 237.81 56.5403 233.735 55 229C54.8553 227.629 54.7423 226.253 54.6875 224.875C53.8818 220.333 52.5054 218.876 49 216C49.0413 216.908 49.0825 217.815 49.125 218.75C49 222 49 222 47 226C43.04 226 39.08 226 35 226C33.7637 234.276 33.6715 242.559 33.4824 250.914C33.3001 257.052 32.7908 262.777 31.4563 268.77C29.3773 278.932 30.9162 289.174 33.25 299.125C33.4544 300.001 33.6588 300.878 33.8694 301.781C35.2308 307.131 37.1569 311.283 40 316C40.8562 319.952 41.2797 322.161 40 326C39.8987 327.874 39.8179 329.749 39.75 331.625C39.2252 338.498 37.1634 343.755 32.3242 348.719C28.9971 350.553 25.826 350.475 22.125 350.438C21.4302 350.457 20.7354 350.477 20.0195 350.498C14.8379 350.493 11.8847 349.391 8.00001 346C3.69755 339.697 -0.262447 332.139 0.292978 324.324C1.68694 319.742 4.85613 316.498 8.00001 313C13.4001 302.2 7.38002 282.309 5.43751 270.688C3.65279 259.958 2.53353 249.594 2.56251 238.688C2.56501 237.561 2.5675 236.435 2.57008 235.274C2.65914 230.525 2.74752 227.219 5.00001 223C5.21667 220.902 5.35578 218.795 5.43751 216.688C5.77626 211.425 6.69512 207.781 9.00001 203C9.6223 200.922 10.2244 198.838 10.8125 196.75C12.106 192.396 13.5824 188.752 15.9375 184.875C18.8025 179.951 20.2087 175.108 21.5625 169.625C24.5513 157.54 28.1134 145.913 36 136C36.66 136 37.32 136 38 136C38.2475 135.278 38.495 134.556 38.75 133.812C45.5419 118.531 65.7363 110.092 80.2109 104.082C82.3866 103.004 82.3866 103.004 83.4375 99.625C85.1445 95.6649 86.3467 94.209 90 92C93.3125 91.25 93.3125 91.25 96 91C95.505 87.535 95.505 87.535 95 84C94.2781 83.8969 93.5563 83.7938 92.8125 83.6875C89.7551 82.9401 87.6167 81.7195 85 80C85.33 78.35 85.66 76.7 86 75C84.35 75 82.7 75 81 75C78.6477 71.3245 79 68.2723 79 64C78.67 62.9481 78.34 61.8963 78 60.8125C76.6021 55.4828 76.1291 50.4659 77 45C78.2778 42.9754 79.6848 41.5619 81.418 39.918C83.5023 37.3911 84.1446 34.9439 85.0625 31.8125C87.4836 23.8998 91.9422 21.9936 98.8633 18.207C103.247 15.7305 106.056 13.0074 108.938 8.9375C112.144 4.5258 115.231 2.59182 120.613 1.44141C124.827 0.892252 128.944 0.85435 133.188 0.875ZM196 201C195.855 204.341 195.907 207.658 196 211C196.019 212.186 196.039 213.372 196.059 214.594C196.809 226.133 201.442 233.706 207.836 243.158C209.215 245.34 210.189 247.552 211 250C214.426 248.796 216.533 247.641 219 245C218.83 244.441 218.66 243.881 218.484 243.305C217.96 241.571 217.443 239.835 216.93 238.098C216.292 235.973 215.629 233.856 214.945 231.746C212.549 224.057 211.469 217.073 211.176 209.082C211.133 205.962 211.133 205.962 210 203C208.917 203.433 208.917 203.433 207.813 203.875C203.906 205.438 203.906 205.438 200 207C199.711 206.196 199.423 205.391 199.125 204.562C198.267 201.867 198.267 201.867 196 201ZM217 269C218 273 218 273 218 273L217 269ZM27 330C26.67 330.99 26.34 331.98 26 333C26.99 333 27.98 333 29 333C29 332.01 29 331.02 29 330C28.34 330 27.68 330 27 330ZM146 369C144.864 372.409 145.309 374.803 145.73 378.312C147.179 392.755 144.794 407.189 140.813 421.062C138.642 428.823 138.324 435.028 140 442.875C141.086 448.306 141.226 453.607 141.25 459.125C141.264 460.378 141.264 460.378 141.277 461.656C141.254 466.62 140.63 471.023 139.445 475.835C138.735 479.29 138.811 482.535 138.875 486.062C138.893 487.373 138.911 488.684 138.93 490.035C138.953 491.014 138.976 491.992 139 493C141.006 492.185 141.006 492.185 143 491C143.812 488.445 143.812 488.445 144 486C144.66 486 145.32 486 146 486C147.307 483.012 148.179 480.184 148.813 477C149.826 472.759 151.908 471.092 155 468C159.822 460.574 161.861 452.972 163.613 444.436C166.088 432.487 172.176 421.552 181 413C181.92 411.789 182.817 410.56 183.688 409.312C184.125 408.69 184.561 408.067 185.012 407.426C185.338 406.955 185.664 406.485 186 406C185.118 405.602 184.237 405.203 183.328 404.793C179.926 402.96 177.539 400.969 174.75 398.312C171.84 395.086 171.84 395.086 168 394C167.67 393.01 167.34 392.02 167 391C166.196 390.361 165.391 389.721 164.563 389.062C161.975 386.98 161.396 385.879 160 383C159.196 382.216 158.391 381.433 157.563 380.625C155 378 155 378 153.438 374.75C152.298 371.844 152.298 371.844 149.813 371.125C149.214 371.084 148.616 371.043 148 371C148 370.34 148 369.68 148 369C147.34 369 146.68 369 146 369Z" fill="#0A0A0A"/>
</svg>
