<svg width="361" height="769" viewBox="0 0 361 769" fill="none" xmlns="http://www.w3.org/2000/svg">
<path d="M93.3998 8.73333C77.9332 23.5333 73.9332 33.6667 77.1332 49.2667C78.8665 57.1333 78.8665 58.3333 76.9998 59.2667C75.9332 59.9333 74.9998 61.9333 74.9998 63.6667C74.9998 68.6 82.4665 83.9333 85.6665 85.6667C88.8665 87.4 97.6665 105 97.6665 109.667C97.6665 113.4 86.9998 124.6 76.3332 132.067C64.4665 140.467 48.7332 153.267 42.7332 159.4C32.4665 170.067 24.8665 191.267 11.1332 247.667C8.19983 259.4 4.86649 271.667 3.66649 275C0.466493 283.8 -0.466841 298.6 1.93316 304.333C5.79983 313.533 16.0665 323.133 27.9332 328.467C34.4665 331.533 39.1332 334.6 39.5332 336.067C40.0665 337.4 41.7998 339.933 43.3998 341.533C47.1332 345 61.3998 353.667 63.3998 353.667C65.1332 353.667 75.3998 346.867 76.1998 345.267C76.4665 344.6 78.0665 343.667 79.7998 343C83.7998 341.4 83.9332 337.8 80.1998 333.133C77.7998 330.067 77.6665 329.8 79.9332 330.6C81.2665 331 86.0665 334.067 90.7332 337.267C95.3998 340.6 100.067 342.867 101.133 342.467C103.8 341.4 103.4 337.133 100.333 334.333C98.5998 332.733 97.9332 330.867 98.4665 328.467C98.9998 325.533 98.1998 324.467 92.7332 320.867C81.5332 313.667 75.3998 311.667 64.3332 311.667C54.4665 311.667 53.9332 311.533 47.7998 306.6C40.8665 300.867 36.3332 293.133 36.3332 287.133C36.3332 284.6 37.9332 281.267 40.8665 277.8C43.3998 274.733 45.9332 271 46.4665 269.267C46.9998 267.667 49.9332 263.4 53.1332 259.933C56.4665 256.2 59.7998 250.733 61.1332 246.6C63.7998 238.333 64.7332 237 67.3998 238.467C71.7998 241.133 82.3332 255.933 86.3332 265.4C90.8665 276.067 97.2665 289.533 101.667 297.667C105.133 304.067 108.067 323.8 109.8 353C111.267 377.933 112.867 386.733 120.333 407.933C123 415.4 124.467 422.733 125 431.267C125.933 445 130.067 463.8 133.8 471.267C135.133 473.933 136.866 479 137.666 482.467C138.466 485.933 141.133 492.2 143.666 496.2C147.533 502.867 150.066 508.733 160.6 536.067C162.466 540.733 164.6 543.8 167 545C172.466 547.8 179.933 556.867 181 561.8C182.733 569.667 187.8 578.067 197.533 589C202.733 594.867 209.133 603 211.666 607C223.666 625.8 232.333 641.267 232.333 644.333C232.333 646.2 233.533 651.267 234.866 655.667C237 662.333 237.4 667.533 237.133 686.333C237 708.2 236.866 709.267 233 718.067C230.466 724.2 227.933 727.8 225.666 729C223.8 729.933 219.266 733.267 215.666 736.2C212.066 739.267 208.066 741.667 206.733 741.667C205.533 741.667 204.066 742.2 203.666 743C203.266 743.667 201.933 744.333 200.866 744.333C196.866 744.333 186.733 750.2 185.266 753.267C183.266 757.8 187.4 765.667 191.8 765.667C193.4 765.667 195 766.467 195.4 767.267C195.8 768.6 201.133 769 217.133 768.867C239.933 768.6 268.867 767.533 270.6 766.733C271.133 766.6 288.867 766.333 309.933 766.333C331.133 766.333 348.333 765.933 348.333 765.267C348.333 764.733 349.4 764.333 350.733 764.333C352.067 764.333 354.6 762.733 356.467 760.867C359.133 757.933 359.667 755.8 360.2 746.867C360.733 733.667 359.933 730.467 355.667 728.6C353 727.4 352.333 726.067 352.333 722.467C352.333 719.933 351.8 717.4 351 717C350.333 716.6 349.667 717.4 349.667 718.867C349.667 720.467 348.733 721.667 347.667 721.667C346.6 721.667 345.667 721.133 345.667 720.333C345.667 719.667 343.667 716.733 341.267 714.067C337.133 709.267 330.6 700.067 327.667 694.867C322.6 685.8 307.667 663 306.733 663C305 663 297.8 649.4 295.533 641.667C294.333 637.667 292.467 631 291.267 627C290.067 622.733 286.467 616.333 282.6 611.267C277 603.933 275.667 601.133 273.533 591.133C270.333 576.067 268.067 569.4 263.267 559.667C256.333 545.8 255.8 542.333 257.4 524.867C258.333 516.2 259.533 508.6 260.2 507.933C260.867 507.267 266.333 505.8 272.467 504.6C282.333 502.6 283.8 501.933 285.933 498.2L288.333 494.2L280.2 482.467C275.667 476.067 272.067 469.533 271.933 467.933C271.933 466.333 272.6 458.333 273.533 450.333C276.333 425.267 273 376.2 267.933 366.067C264.333 359 258.067 342.333 257.133 337.133C256.067 331.667 250.067 318.067 248.2 316.867C247.533 316.467 247 314.733 247 312.867C247 308.733 243.8 302.067 239.533 297.667C235 292.733 230.866 276.067 232.466 268.333C234.466 257.533 233.8 250.467 229.133 236.333C226.6 228.6 224.866 222.067 225.133 221.8C225.533 221.4 229.133 224.733 233.4 229.267C238.333 234.467 243.4 241.933 247.667 250.2C252.6 260.067 256.067 265 262.067 270.467C269.267 277.133 269.8 278.067 269 282.067C268.467 284.333 266.6 288.333 264.733 290.733C257.8 300.067 266.333 302.067 275.933 293.4C277.533 291.933 279.4 291.133 280.333 291.667C281.133 292.2 279.533 295 275.667 299.267C267.133 308.733 266.067 315 272.6 317.533C274.333 318.2 280.333 319.133 285.933 319.533C294.6 320.333 297 320.2 302.067 317.933C307.8 315.4 308.067 315 310.333 305.8C312.6 296.467 312.6 296.067 309.933 289.933C308.467 286.467 306.867 281.533 306.333 279C305.8 276.467 304.067 271.667 302.333 268.333C300.733 265 296.867 255.4 293.8 246.867C289.667 235.4 286.733 229.667 282.2 224.2C273.533 213.8 257.4 189.267 251.8 177.933C249 172.467 245.133 163.267 243.133 157.267C241.133 151.267 237.933 143.933 236.066 140.867C232.2 134.867 220.866 123 218.866 123C218.2 123 215.133 121.8 211.933 120.467C206.6 118.067 198.6 115.8 173.133 109.533C166.6 107.933 159.133 105.4 156.6 103.933L152.066 101.267L152.6 89.8C153 81.8 153.8 77.2667 155.533 74.7333C158.866 69.6667 160.066 51.8 157.4 48.6C156.2 47.4 155 43.8 154.6 40.6C152.733 25.5333 139.267 8.86667 125.933 5.13333C121.667 3.93333 116.067 3 113.533 3C111 3 107.667 2.2 106.2 1.13333C103.667 -0.733333 102.733 -0.199999 93.3998 8.73333ZM283.933 702.6C294.867 717.267 296.733 720.333 298.6 726.067C300.067 731.133 300.067 731.133 292.467 739C288.333 743.4 284.333 747 283.533 747C281.933 747 275.933 730.467 276.067 725.933C276.067 723.933 275.133 720.467 273.933 718.333C270.867 712.333 271.667 692.333 275 692.333C275.667 692.333 279.667 697 283.933 702.6Z" fill="black"/>
</svg>
