<svg width="295" height="789" viewBox="0 0 295 789" fill="none" xmlns="http://www.w3.org/2000/svg">
<path d="M113 5.33333C108.2 8.13333 102.067 13.2 99.1336 16.2667C88.0669 28.5333 80.6002 50 83.5336 60.8C84.3336 63.6 85.0002 67.8667 85.0002 70.1333C85.0002 74.4 87.4002 81.7333 91.0002 88.1333C93.4002 92.5333 95.9336 102.4 95.8002 106.667C95.2669 118.667 94.8669 120.267 91.6669 122.933C89.8002 124.4 77.4002 130.933 64.2002 137.467C29.2669 154.667 26.2002 158.533 19.1336 194C17.2669 203.6 15.1336 215.467 14.4669 220.533C13.6669 226 11.2669 233.6 8.33356 239.733C3.66689 249.467 3.66689 250.133 5.13356 256.267C6.60023 261.867 6.46689 263.867 3.93356 272.933C-0.599774 289.333 -1.13311 297.2 2.06689 304.4C6.20023 313.733 9.66689 315.333 24.7336 314.933C31.8002 314.667 39.8002 313.733 42.8669 312.667C45.8002 311.6 48.6002 311.067 49.2669 311.467C49.8002 311.867 50.3336 316.133 50.3336 321.067C50.3336 327.467 49.6669 331.067 47.9336 333.733C45.8002 336.933 45.4002 340.8 45.1336 364.4C44.8669 394.933 45.1336 396.4 56.8669 427.333C66.0669 451.467 72.3336 475.467 80.3336 517.867C85.2669 543.867 84.2002 564.267 77.1336 578.533C75.8002 581.2 74.3336 585.067 73.8002 587.333C73.2669 589.467 69.0002 598.267 64.3336 606.667C53.2669 626.533 53.0002 627.467 51.6669 644.133C50.6002 656.8 49.5336 661.067 41.6669 682.8C30.8669 712.533 20.4669 734.133 11.6669 744.8C4.33356 753.733 1.66689 761.067 2.60023 770.667C3.53356 779.867 5.13356 781.333 14.2002 781.333C18.3336 781.333 26.4669 781.867 32.3336 782.533C65.2669 786.4 79.1336 787.067 93.0002 785.467C113.534 783.2 113.667 781.067 93.6669 776.667C84.6002 774.667 82.4669 773.6 79.0002 769.6C76.8669 766.933 73.9336 763.733 72.6002 762.267C71.1336 760.933 68.7336 756.667 67.0002 752.8C65.2669 749.067 63.0002 745.067 61.8002 744.133C59.2669 742 58.8669 733.2 61.2669 728.933C62.0669 727.333 65.0002 723.333 67.8002 720C79.8002 705.467 105.534 661.333 107.534 651.733C109.534 642.4 118.467 620.933 119.8 622.267C120.467 622.933 122.467 629.333 124.467 636.667C127.267 647.333 129.8 653.067 137.534 666C160.6 704.267 176.334 734.4 179.267 746C181.267 754 183.267 758.933 190.6 774.4C195.534 784.933 199.134 786.933 214.467 787.733C227.134 788.4 226.6 788.667 228.2 779.333C228.6 777.067 229.934 774.667 231 774C232.2 773.2 235 771.067 237.267 769.067C239.534 767.067 242.6 765.067 243.934 764.533C245.267 764.133 246.734 762.4 247.134 760.667C248.2 756.533 244.334 740 242.067 738.533C241.134 737.867 236.6 737.333 231.934 737.333C222.734 737.333 214.867 734.267 211.934 729.333C211 727.733 208.467 725.867 206.2 725.067C201.4 723.333 199 719.067 197 708C195.4 698.933 179.934 641.867 175.534 628.667C174.067 624.267 170.6 616.8 168.067 612.133C163 603.067 162.867 601.467 161.934 568.667L161.667 560.8L170.467 559.333C182.467 557.333 187.4 555.067 190.067 550.133C192.067 546.4 192.334 538.8 192.734 474C193 432 192.6 392.667 191.8 379.6C190.6 361.2 190.6 356.533 192.2 352.8C193.534 349.733 193.8 345.067 193.4 336.8C193 329.6 193.267 322.933 194.334 319.333C195.667 314.4 195.667 312.933 194.2 311.2C193.134 309.867 192.334 304.667 192.2 296.933C192.067 286.533 192.467 283.6 195.267 277.333C198.2 270.533 198.467 268.933 197.534 257.333C196.867 246.667 197 244.267 198.734 242.8C200.467 241.333 201.134 241.733 203.134 245.6C204.334 248 207 251.467 209 253.333C211.267 255.467 214.467 262.267 218.334 272.667C227.4 298 228.6 299.867 239.267 305.333L245 308.267L253.267 304.267C262.2 300.133 267.267 295.733 280.867 280.267C288.334 271.6 289.534 269.333 291.8 260.4C294.867 248.133 294.867 240.8 291.934 234.667C289.667 230.133 289.4 230 280.734 229.6C267.267 229.067 257 235.067 257 243.6C257 246 256.467 248 255.934 248C254.467 248 245 227.867 245 224.8C245 223.467 244.067 218.667 242.867 214.133C241.667 209.733 239.934 202.667 239 198.667C235 180.933 227.4 156.4 223.934 150.267C221.934 146.533 218.067 141.867 215.4 140C212.6 138 200.867 133.2 188.734 129.2C176.734 125.333 166.2 121.6 165.4 120.933C162.6 118.8 163.134 99.2 166.334 90.6667C167.8 86.6667 169.8 82.6667 170.734 81.7333C172.867 79.6 171.4 63.6 169 60.5333C168.2 59.6 166.6 54 165.667 48.1333C162.2 28.9333 155.534 15.7333 144.867 7.6C136.067 0.933333 133.934 -4.08232e-07 127.4 -4.08232e-07C123 -4.08232e-07 119.534 1.33333 113 5.33333Z" fill="black"/>
</svg>
