<svg width="328" height="835" viewBox="0 0 328 835" fill="none" xmlns="http://www.w3.org/2000/svg">
<path d="M140.533 0.866664C131.6 2.6 110.533 13.9333 105.6 19.6667C96.0001 31 92.1335 48.8667 95.4668 66.8667C96.5335 72.6 96.4001 77.1333 95.3335 83.8C93.0668 96.7333 95.2001 104.867 102.533 112.2L108 117.667L103.333 122.467C97.6001 128.467 85.6001 135.8 67.3335 144.6C59.6001 148.333 50.0001 154.067 46.0001 157.267C35.3335 165.8 26.6668 182.333 17.4668 211.133C1.73345 260.467 0.000117546 270.733 1.06678 309C1.73345 331.667 2.26678 337.267 5.86678 353C8.13345 362.867 10.9335 373.667 11.8668 377C12.9335 380.333 14.8001 388.067 16.1335 394.333C17.3335 400.6 19.7335 408.6 21.6001 412.067C23.8668 416.733 25.0668 421.933 25.8668 431.133C26.8001 441.8 27.4668 444.333 30.8001 449.133C32.9335 452.067 36.5335 457.533 38.9335 461.267L43.2001 467.933L42.9335 486.2C42.8001 498.733 43.2001 505.267 44.4001 507.267C46.1335 510.333 49.2001 526.467 50.6668 540.333C51.2001 544.733 52.9335 555.8 54.8001 565C56.5335 574.2 59.8668 592.467 62.0001 605.667C66.1335 629.267 66.1335 629.933 64.5335 647.8C63.0668 663.667 63.2001 668.2 65.2001 684.467C66.5335 694.6 69.6001 712.333 72.1335 723.667C75.4668 738.467 77.0668 749 77.6001 761.133L78.4001 777.933L74.5335 778.867C68.8001 780.333 67.3335 782.067 67.3335 787.267C67.3335 791 68.4001 793 72.2668 796.467C74.9335 799 77.7335 801 78.4001 801C79.0668 801 78.0001 803.667 76.1335 807C74.2668 810.333 71.8668 816.6 70.8001 820.733C69.6001 824.867 68.4001 829.667 67.8668 831.267L67.0668 834.333H95.8668H124.667V828.6C124.667 825.533 123.467 814.867 122 805C120 791.133 119.333 779.667 119.333 754.6C119.333 725.933 119.6 721 122.133 711.4C125.733 697.8 125.2 687.8 120 665.933C116.267 650.2 116.267 650.2 118.4 638.6C119.6 632.2 120.933 622.2 121.333 616.333C122.133 604.867 131.733 533.533 134.133 520.333C136.533 506.733 140.4 505.267 144.4 516.067C145.867 519.933 148.4 531.8 149.867 542.467C152.533 561.267 158.4 591.267 162.667 609C169.6 637.533 169.733 639 163.733 669.667C162.267 677.267 161.867 683.8 162.533 692.333C164.533 720.6 164.933 731.933 164 741.4C163.2 751.133 162.933 751.533 158 755C153.2 758.333 145.467 768.6 137.733 781.933C131.333 793.133 131.6 809.267 138.267 827.267L140.8 834.333H193.2H245.6L244.933 830.067C244.533 827.8 245.067 819.933 246 812.6C248.133 796.467 246.933 786.6 240.8 774.067C234.667 761.133 228 754.333 216.133 748.867C207.2 744.867 206.133 743.933 206 740.733C206 736.333 209.2 717 212.667 700.333C218.933 669.933 221.2 652.733 223.333 617.667C224.133 605.133 225.6 583.267 226.667 569C227.733 554.733 228.933 525.933 229.333 505C230 469.933 231.2 457 233.733 457C234.267 457 235.467 458.2 236.4 459.8C239.2 464.2 243.467 462.467 248.267 455.133C252.133 449.133 252.533 448.867 253.867 451.533C255.6 454.733 260.933 455.267 263.067 452.6C265.6 449.667 272.667 431.8 277.333 417C279.733 409.267 284.4 398.6 287.467 393.133C292.267 385 294.133 382.867 298.8 381C304.533 378.467 305.067 377.533 306.533 369C306.933 366.467 310.933 353.533 315.467 340.333C327.2 305.267 327.867 302.6 327.867 284.333C327.867 270.333 327.467 267.133 324.4 259C316.4 237.667 300.8 206.6 288.4 187.4C285.2 182.467 281.067 175.8 279.067 172.6C273.733 164.2 254.133 143.8 248.4 140.867C245.733 139.533 238.267 136.867 231.733 135C225.333 133.133 216.4 130.2 212 128.467C207.6 126.6 202.933 124.867 201.733 124.467C198.267 123.4 198.8 119.267 203.333 110.733C209.867 98.6 208.8 87 200.267 75.4C198.267 72.7333 197.867 70.7333 198.533 67.4C199.067 65 200 59.5333 200.667 55.2667C201.467 50.8667 203.2 45.6667 204.667 43.6667C214.133 30.3333 198 5 178 1.8C170.133 0.599997 145.6 -0.0666695 140.533 0.866664ZM249.6 256.6C251.867 262.6 254.533 267.933 264.133 286.2C268.4 294.067 268.667 295.533 268.667 306.867C268.667 324.2 266.8 334.733 262.267 343.4C260.133 347.533 257.6 353.267 256.8 355.933C253.733 365.4 247.733 374.333 239.733 381.667L231.467 389L230.933 376.733C230.667 369.933 229.067 352.867 227.333 339C224.667 317 224.4 312.467 225.867 304.333C227.733 293 233.067 275.533 236.8 267.533C238.4 264.333 240.8 259.133 242.133 256.067C243.467 252.867 245.2 250.333 245.867 250.333C246.533 250.333 248.133 253.133 249.6 256.6ZM60.6668 305C59.7335 311.933 58.6668 324.867 58.0001 333.667C57.2001 348.067 54.9335 358.467 53.3335 356.733C52.9335 356.333 53.3335 349.8 54.1335 342.2C55.0668 334.2 55.3335 320.467 54.9335 309.933C54.2668 293.267 54.4001 290.867 56.8001 286.6C58.1335 283.933 59.4668 280.733 59.4668 279.667C59.6001 278.6 60.2668 281 60.9335 285C61.8668 290.2 61.8668 296.067 60.6668 305Z" fill="black"/>
</svg>
