<svg width="189" height="397" viewBox="0 0 189 397" fill="none" xmlns="http://www.w3.org/2000/svg">
<path d="M87.4678 397C85.3367 393.483 84.7628 389.797 84.6201 385.894C84.1635 373.411 78.5684 362.116 75.9259 350.103C72.744 335.64 70.4907 321.424 73.3348 306.613C74.6835 299.59 73.7867 292.328 72.806 285.203C72.5515 283.355 71.6589 281.64 69.9138 281.605C66.1641 281.53 64.857 278.561 62.4775 276.661C58.4687 273.459 58.4444 269.574 58.9332 265.432C60.6589 250.807 59.7037 236.147 59.7409 221.501C59.7486 218.473 59.7478 215.566 56.6809 213.581C54.9737 212.475 55.3114 210.415 55.4824 208.524C56.0531 202.21 57.1452 195.989 58.4559 189.796C59.0014 187.219 58.7626 184.442 55.3399 185.253C44.4209 187.842 35.5445 183.022 25.6588 177.239C25.149 183.785 24.0715 189.407 27.0674 195.096C30.324 201.28 35.0534 206.529 37.9598 212.947C39.1073 215.481 40.2389 217.67 37.2861 219.345C34.344 221.013 32.6906 218.811 31.2162 216.681C29.678 214.459 29.6794 211.097 26.0539 210.004C24.4422 214.306 26.7332 218.123 27.4079 222.01C28.4138 227.805 27.5594 228.88 21.8061 228.357C18.8461 228.089 15.8965 227.819 12.8692 227.929C8.54078 228.088 5.64653 223.894 1.34675 223.24C0.268506 223.076 -0.00274925 221.064 0.393872 219.672C1.35106 216.313 1.66031 212.531 3.45555 209.694C8.5415 201.658 8.03065 192.87 8.01259 184.066C7.98285 169.585 7.45591 155.09 9.78764 140.699C10.3525 137.212 10.9389 133.724 12.8432 130.743C19.6466 120.091 25.909 109.068 34.0489 99.3151C34.7917 98.4251 35.6251 97.5277 36.0719 96.4859C44.0892 77.794 59.7466 67.8654 77.4874 60.3524C81.0488 58.8442 84.2011 56.7006 87.469 54.7037C91.6804 52.1302 92.6439 48.6605 90.2518 44.5549C87.322 39.5266 87.3895 34.4185 89.0443 29.1432C89.7714 26.8252 89.593 24.5611 89.2293 22.2352C86.6763 5.90983 101.053 -1.28118 112.685 0.649481C125.937 2.84915 130.403 4.72043 131.517 16.8237C132.215 24.4158 132.248 32.4407 129.425 39.9721C128.762 41.74 127.833 43.192 126.512 44.5331C120.398 50.7424 121.016 55.6923 128.482 60.1371C134.633 63.7994 140.825 67.3973 147.057 70.9204C155.374 75.622 158.695 83.365 160.23 92.2181C163.351 110.218 165.614 128.387 172.968 145.416C176.005 152.449 177.126 160.116 178.379 167.686C179.111 172.107 180.227 176.471 181.305 180.827C182.705 186.48 184.299 192.07 184.334 197.983C184.356 201.822 185.18 205.473 187.034 208.998C190.128 214.881 187.364 230.993 182.712 235.977C181.576 237.195 180.349 238.612 178.503 238.245C176.376 237.822 176.661 235.73 176.302 234.184C175.724 231.7 176.038 229.217 176.494 226.743C177.188 222.974 176.672 219.461 174.188 216.311C172.147 216.42 172.036 218.62 170.719 219.537C168.082 221.376 165.439 221.569 162.809 219.8C160.292 218.108 160.934 215.834 162.023 213.589C162.169 213.289 162.255 212.952 162.44 212.682C170.939 200.242 167.467 187.784 161.47 176.025C156.678 166.629 152.934 156.912 149.203 147.125C148.086 144.196 146.532 141.434 144.398 138.73C144.398 145.704 143.794 152.742 144.525 159.638C145.986 173.417 146.122 187.23 146.619 201.038C147.02 212.176 147.827 223.248 149.292 234.333C151.033 247.508 152.041 260.783 154.446 273.879C154.853 276.1 154.651 278.08 153.076 279.946C151.115 282.269 151.094 285.262 151.317 288.064C151.925 295.686 149.236 302.079 144.6 307.892C143.045 309.842 141.324 311.787 140.313 314.021C134.675 326.48 124.274 334.088 113.239 341.099C110.274 342.982 106.888 349.604 106.771 353.78C107.648 354.757 108.652 353.917 109.592 353.958C110.707 354.007 111.548 354.477 111.881 355.532C112.233 356.648 111.679 357.546 110.693 357.977C106.054 360.002 107.137 363.287 108.711 366.686C111.369 372.429 114.107 378.149 114.225 384.665C114.371 392.826 113.877 393.575 106.274 396.784C99.9784 397 93.9572 397 87.4678 397ZM103.577 319.851C105.883 317.108 106.851 313.74 107.972 310.442C109.495 305.961 111.475 301.459 115.585 299.066C121.781 295.456 119.032 290.599 118.313 285.923C117.597 281.266 113.496 282.21 110.508 281.373C109.56 281.108 108.529 281.153 107.553 280.964C104.379 280.348 102.744 281.443 103.043 284.854C103.521 290.299 101.819 295.277 100.064 300.34C97.4734 307.813 97.276 315.383 100.426 323.651C101.716 322.098 102.431 321.237 103.577 319.851ZM53.7253 129.874C53.1774 127.01 52.1155 124.797 48.5343 125.307C43.4569 126.03 32.5584 135.668 31.3494 140.66C31.2641 141.012 31.6837 141.487 32.0162 142.238C38.3579 138.89 44.8639 136.822 52.048 138.277C53.9886 138.67 54.7653 137.331 54.6155 135.571C54.4755 133.928 54.1186 132.303 53.7253 129.874Z" fill="black"/>
</svg>
