<svg width="266" height="863" viewBox="0 0 266 863" fill="none" xmlns="http://www.w3.org/2000/svg">
<path d="M113.2 2.99994C112.666 4.06661 111.6 4.99994 110.666 4.99994C109.733 4.99994 108.666 5.53327 108.4 6.06661C108.266 6.59994 106 8.46661 103.733 10.0666C101.333 11.7999 98.2665 15.7999 96.7998 19.1333C95.3332 22.3333 93.5998 24.9999 92.9332 24.9999C92.3998 24.9999 91.0665 32.3333 90.1332 41.2666C88.6665 54.5999 87.8665 58.0666 85.7332 59.7999C83.3332 61.6666 83.1998 62.8666 83.9998 70.9999C85.0665 80.5999 89.0665 87.1333 93.0665 85.5333C95.1998 84.7333 97.1998 93.7999 98.7998 111.933L99.7332 122.333L94.6665 127C91.8665 129.533 87.4665 132.333 84.7998 133.133C82.2665 134.067 77.3332 136.333 73.9998 138.333C70.6665 140.333 61.8665 144.467 54.6665 147.667C39.0665 154.467 27.3332 163.267 22.7998 171.667C18.7998 179 13.7332 197.933 10.7998 217C2.26649 271.267 2.39982 268.733 6.66649 270.333C9.59982 271.4 9.99982 272.333 9.99982 278.067C9.99982 287.8 7.46649 305.533 5.19982 311.933C1.59982 322.067 0.666487 330.467 0.666487 351.667C0.533154 367.267 1.33315 376.2 3.46649 388.333C5.06649 397.133 6.39982 406.467 6.26649 409C6.13315 411.533 6.13315 419 6.26649 425.667C6.53315 439.667 6.53315 441 5.33315 466.2C3.99982 493.4 7.86649 511.4 16.7998 520.867C21.8665 526.333 31.5998 531.667 37.8665 532.467C41.1998 532.867 44.5332 533.4 45.3332 533.4C45.9998 533.533 47.0665 531.8 47.4665 529.667C47.9998 527.133 48.5332 530.2 48.6665 537.667C48.7998 544.2 49.1998 555.4 49.3332 562.333C49.4665 569.267 49.0665 578.333 48.3998 582.333C47.3332 588.867 47.4665 590.333 50.3998 595.8C53.9998 602.467 53.9998 599.133 49.8665 637.133C48.5332 649.267 48.5332 657.667 49.7332 676.467C50.6665 689.533 51.8665 703.933 52.5332 708.333C55.5998 727.4 56.9332 762.2 55.1998 776.067L53.4665 789.667L47.5998 793.667C44.2665 795.8 40.5332 799.133 39.4665 801C37.0665 804.6 37.7332 804.333 45.0665 799.4C49.0665 796.6 49.7332 797.667 46.6665 801.8C45.5998 803.133 44.6665 805.133 44.6665 806.2C44.6665 809.667 34.7998 824.867 32.1332 825.533C30.6665 825.933 30.1332 826.733 30.6665 827.8C31.3332 828.733 30.3998 830.333 28.5332 831.667C25.8665 833.8 25.4665 835.133 25.5998 841.4C25.8665 850.467 28.3998 854.733 35.7332 858.2C48.3998 864.067 56.7998 864.2 58.3998 858.333C58.7998 856.6 59.8665 856.2 62.5332 856.6C64.7998 857.133 66.1332 856.6 66.3998 855.533C66.7998 854.467 67.9998 850.467 69.3332 846.6C70.6665 842.733 71.7332 838.067 71.7332 836.2C71.7332 833.933 72.7998 832.333 75.1998 831.133C84.3998 826.333 89.1998 815.933 88.2665 802.867C87.0665 787 84.9332 769.267 83.9998 767.8C82.5332 765.267 88.9332 718.867 93.3332 701C96.7998 687 98.1332 670.467 97.1998 653.933C96.1332 633.267 97.9998 620.733 103.733 609.8C106.933 603.667 108.8 601.533 111.333 601.267C113.2 601 116.4 599 118.533 596.867C121.733 593.667 123.333 593 128.933 593C133.333 593 135.6 592.333 136.133 591.133C136.533 590.067 136.133 581.133 135.2 571.4C133.333 553.133 133.333 530.733 135.2 519L136.133 512.333L137.866 521C139.6 529.933 139.733 532.733 139.333 563.8C139.2 574.733 139.6 583.133 140.533 584.733C141.466 586.467 144 587.8 147.2 588.333C151.2 589 152.8 590.067 154 592.867C155.6 597 162.8 601 168.4 601C174.133 601 176.266 603.533 181.866 616.867C184.4 622.867 185.2 628.467 186.8 653.267C187.733 669.533 189.466 685.667 190.666 689.533C193.466 699.133 196.666 717 197.466 727.4C197.866 732.333 199.066 740.733 200.266 746.067C201.866 753.533 202.133 760.333 201.466 776.067C200.266 804.067 200.4 808.2 203.066 816.067C204.8 821.4 206.133 823.133 208.666 823.667C210.8 824.2 212 825.4 212 827C212 828.867 212.933 829.667 215.066 829.533C217.866 829.4 218.533 830.467 218.133 833.933C218 834.867 219.866 840.067 222.266 845.667C226.4 855.267 226.8 855.667 230.933 855.667C233.866 855.667 235.333 856.333 235.333 857.533C235.333 858.6 236.266 859.8 237.466 860.2C240.133 861.267 240.8 861.267 240.267 859.933C240.133 859.4 240.667 859 241.333 859C242.133 859 242.533 859.4 242.4 859.933C241.6 862.333 253.867 859.8 259.067 856.6C260 855.933 261.867 853.133 263.333 850.333C267.733 841.533 266.267 830.333 260.667 830.333C257.467 830.333 255.733 827.667 258.133 826.2C260.267 825 259.2 823.667 255.733 823.133C254.4 822.867 253.2 821.4 252.933 819.533C252.667 817.8 251.6 815.4 250.667 814.333C248.267 811.533 243.333 801.4 243.333 799.267C243.333 798.2 241.333 795.4 238.933 792.867C233.333 787 232.4 784.733 234.266 779.667C235.466 776.2 235.333 775.267 233.2 773.667C229.6 771.133 229.2 750.733 232 719.667C233.333 706.067 234.4 681.533 234.533 665C234.666 638.733 234.266 633.4 231.733 621.667C230.133 614.333 228.666 604.733 228.4 600.467C228 592.867 228.133 592.467 231.333 591.667C234.133 591 234.666 590.2 234.4 586.2C234.133 583.667 234 573.667 234 563.933C234 549.133 233.733 546.333 232 546.333C230.533 546.333 230 544.733 230 540.467C230 537.267 229.733 533.667 229.333 532.6C228.8 531.4 230.4 530.067 234.533 528.467C249.867 522.6 260.667 500.333 264.267 467C265.467 456.067 265.467 409.667 264.267 408.067C263.6 407.133 263.733 399.4 264.667 388.733C267.333 360.2 264.8 321.267 259.333 306.333C257.867 302.333 256.133 294.2 255.467 288.333C254.4 278.6 254.533 277.533 256.8 275.667C259.067 273.8 259.2 272.733 258.133 266.333C257.333 262.333 255.867 253.267 254.667 246.333C247.333 203.4 244.533 190.6 239.733 177C236.666 168.867 234.666 165.667 228 159C221.2 152.333 217.466 150.067 205.866 145.133C186 136.733 171.6 129.267 164.933 123.933L159.2 119.4L159.6 108.467C160 102.6 160.933 95.7999 161.733 93.6666C162.533 91.3999 163.6 88.0666 164 85.9333C164.4 83.9333 165.466 82.3333 166.4 82.3333C169.466 82.3333 172.666 73.3999 172.666 65.2666C172.666 56.8666 171.333 53.6666 167.733 53.6666C166 53.6666 165.2 52.4666 165.066 49.6666C164 36.5999 155.733 14.3333 152 14.3333C151.2 14.3333 148.4 12.7333 145.866 10.8666C134.533 2.33327 115.2 -2.33339 113.2 2.99994ZM214 281.933C215.2 282.733 217.2 287 218.4 291.267C221.2 300.733 225.866 335 227.333 355.667C228 364.067 229.733 375.8 231.333 381.667C233.6 389.667 234.4 396.867 234.533 410.333C235.066 436.067 234.266 443.667 231.2 443.667C228.4 443.667 228 442.2 230 440.2C231.6 438.6 229.733 422.467 227.733 421.267C226.266 420.2 224.266 411.933 221.2 393.667C220.133 387 218 377.4 216.666 372.333C213.333 360.067 210 340.6 210 332.733C210 329.267 209.333 324.867 208.533 322.733C205.6 315 204.666 303.933 206 291.267C206.666 284.333 207.733 277.667 208.266 276.333C209.066 274.067 209.333 274.2 210.533 277.133C211.333 278.867 212.933 281 214 281.933ZM52.7998 277.267C52.7998 277.533 53.3332 284.6 53.9998 293.133C54.5332 301.533 55.8665 311 56.7998 314.067C57.9998 318.333 58.1332 322.067 56.9332 330.6C56.1332 336.733 55.0665 349.8 54.5332 359.667C54.1332 369.533 52.9332 382.467 51.9998 388.333C50.9332 394.2 49.8665 408.6 49.3332 420.333C48.9332 432.067 47.8665 444.867 47.0665 448.867C45.8665 454.467 45.8665 456.333 47.0665 456.733C49.0665 457.4 49.1998 469 47.1998 469C46.5332 469 43.9998 465 41.7332 459.933C39.3332 455 37.0665 450.733 36.3998 450.6C34.3998 449.667 35.1998 402.333 37.4665 393C38.5332 388.2 40.1332 373.8 40.7998 361C43.8665 301.533 44.2665 298.333 49.4665 278.6C49.8665 277.267 52.5332 276.2 52.7998 277.267ZM230.266 483.933C228.933 486.867 228.8 486.733 228.8 482.333C228.666 478.867 229.066 478.2 230.266 479.4C231.333 480.467 231.333 481.667 230.266 483.933ZM38.9332 494.333C40.6665 497.533 43.4665 501.667 45.3332 503.667C47.8665 506.2 48.6665 508.6 48.6665 512.733C48.6665 515.8 48.3998 518.333 47.9998 518.333C47.5998 518.333 44.3998 516.867 40.7998 515.133C35.5998 512.467 34.1332 510.867 32.9332 506.6C31.1998 500.867 30.7998 489.933 32.2665 488.467C33.9998 486.733 35.9998 488.467 38.9332 494.333Z" fill="black"/>
<path d="M239.333 786.867C239.333 787.133 240.4 788.2 241.733 789.133C243.733 790.867 243.866 790.733 242.133 788.6C240.4 786.467 239.333 785.8 239.333 786.867Z" fill="black"/>
<path d="M216.666 845.533C216.666 845.8 217.733 846.867 219.066 847.8C221.066 849.533 221.199 849.4 219.466 847.267C217.733 845.133 216.666 844.467 216.666 845.533Z" fill="black"/>
</svg>
