<svg width="216" height="465" viewBox="0 0 216 465" fill="none" xmlns="http://www.w3.org/2000/svg">
<path d="M172.323 417.915C179.924 435.152 175.604 448.792 161.375 459.571C152.363 466.398 142.291 464.711 132.746 461.124C124.792 458.136 116.974 458.101 108.743 458.733C97.1563 459.622 92.581 456.821 93.7034 444.089C93.8629 442.28 94.1445 440.377 94.8724 438.74C98.6565 430.234 98.8678 421.482 97.9091 412.348C96.4669 398.609 95.7768 384.791 94.735 371.009C94.6371 369.714 94.7833 368.317 93.6141 367.001C86.8579 367.308 81.4926 371.72 75.3492 373.978C67.4968 376.864 60.3926 381.233 53.5577 386.039C49.4134 388.954 49.0965 392.747 48.9295 397.677C48.5044 410.224 53.1331 422.209 52.1825 434.697C51.8855 438.599 51.2047 442.495 47.2019 444.402C43.3341 446.245 39.8931 444.375 37.0568 442.043C31.1905 437.219 27.6951 430.803 26.8865 423.274C26.3924 418.673 26.6956 413.997 27.3724 409.333C28.0743 404.495 25.6254 400.301 23.3343 396.239C21.6999 393.341 19.7494 390.62 18.1317 387.714C12.6668 377.896 17.3368 368.743 28.7316 368.028C35.686 367.591 40.8836 364.521 46.2486 360.647C54.5353 354.664 62.1069 348.154 68.5517 340.101C73.5981 333.795 80.7915 329.82 88.3727 327.022C91.5811 325.838 92.8536 324.11 92.7908 320.799C92.6898 315.47 92.8403 310.135 92.9168 304.804C92.9464 302.741 92.8141 300.862 90.7448 299.601C89.9755 299.132 89.1099 298.08 89.074 297.26C88.58 285.987 81.0712 277.664 76.588 268.142C72.6922 259.868 68.7519 251.388 62.3551 244.494C61.0715 243.111 60.7688 241.276 61.0968 239.331C62.8754 228.787 61.7539 218.422 58.8685 208.222C56.8671 201.147 57.2203 195.117 60.5237 187.785C63.4236 181.349 66.6224 174.232 66.393 165.82C66.0675 153.882 61.9942 142.476 62.8004 130.533C62.9451 128.39 62.0088 126.306 59.9404 124.663C56.4284 125.582 54.0989 128.152 52.105 131.029C50.5909 133.214 48.928 134.41 46.2582 133.126C43.0468 131.581 40.8982 133.976 38.5125 135.304C30.9755 139.501 25.6194 144.916 25.9419 154.544C26.1248 160.003 24.3002 165.364 22.7402 170.652C18.7379 184.22 17.9065 197.547 26.2625 210.021C29.7606 215.243 29.6351 221.433 30.8569 227.254C31.0743 228.29 30.7711 229.673 30.2093 230.591C28.3491 233.628 28.2641 236.477 30.3252 239.434C31.0888 240.529 31.7695 241.887 30.3766 242.992C29.1676 243.951 27.6853 243.623 26.6625 242.757C24.129 240.61 21.4417 238.517 19.4213 235.93C17.4017 233.344 14.8795 232.413 11.6465 231.503C11.3314 234.687 13.4414 235.89 15.1195 237.336C16.2623 238.321 17.8025 239.38 16.5855 241.005C15.38 242.615 13.8185 241.395 12.5743 240.686C11.433 240.035 10.009 239.329 9.46979 238.264C6.36857 232.133 2.2789 225.823 3.34952 218.875C5.54252 204.643 4.24961 190.677 2.05452 176.703C0.56809 167.241 0.284803 157.851 1.56125 148.363C2.81489 139.046 7.41759 131.54 13.5624 124.707C18.6821 119.013 23.4047 112.856 26.4251 105.864C30.6502 96.0824 37.7604 89.2 46.1761 83.2776C46.8572 82.7983 47.7658 82.4566 48.1751 81.804C55.4146 70.2633 68.4171 70.1316 79.3998 66.1411C86.6524 63.506 86.551 63.7998 85.6404 56.4548C84.4793 47.0882 83.4683 37.6727 83.0849 28.2501C82.8037 21.3385 85.5049 14.8635 88.4134 8.67768C90.6925 3.83035 95.5762 2.25974 100.221 1.04338C111.65 -1.94941 121.815 1.75828 130.37 8.95479C135.495 13.2657 135.942 20.0866 134.928 26.6363C134.134 31.7634 133.651 36.7834 135.382 41.9145C136.865 46.3094 134.095 49.9287 132.121 53.5516C129.243 58.8317 129.516 60.008 135.267 61.7336C142.435 63.8841 149.606 66.0397 156.786 68.1211C164.659 70.4037 169.284 76.0452 173.662 82.0919C176.085 85.4384 177.79 89.3071 179.797 92.9527C183.244 99.2152 186.324 105.699 191.579 110.79C194.976 114.081 197.227 118.113 198.97 122.529C202.475 131.407 208.336 139.015 212.79 147.398C215.876 153.207 216.03 158.523 212.064 163.73C207.501 169.719 204.6 176.052 204.812 183.909C204.992 190.59 199.471 195.179 196.928 200.91C196.4 202.1 194.99 202.211 193.822 201.967C191.226 201.423 189.294 202.072 186.999 203.686C183.701 206.005 181.338 202.198 178.685 200.93C176.527 199.898 176.762 197.694 177.659 195.659C178.386 194.012 179.021 192.324 179.929 190.08C175.673 190.387 172.832 189.197 171.881 185.064C171.462 183.245 169.271 183.198 167.899 182.326C165.907 181.059 164.508 179.349 165.47 176.934C166.412 174.567 168.444 175.647 170.23 175.852C177.428 176.679 183.163 172.723 189.197 169.817C189.688 169.58 190.16 168.713 190.161 168.137C190.184 160.713 193.03 152.918 186.593 146.414C181.937 141.71 178.256 135.989 171.452 133.819C169.422 133.171 168.814 130.96 168.007 129.12C167.163 127.193 167.222 124.85 165.462 123.306C163.716 123.994 164.223 125.571 163.964 126.756C161.935 136.012 161.601 145.589 158.673 154.682C158.372 155.615 158.147 156.701 158.317 157.639C160.809 171.418 154.414 184.435 155.022 198.129C155.627 211.765 155.15 225.45 155.138 239.113C155.136 241.481 154.969 243.876 153.179 245.642C149.848 248.93 149.52 253.241 149.911 257.296C150.878 267.34 148.447 277.204 148.872 287.207C149.014 290.55 146.759 293.473 145.731 296.632C139.042 317.182 131.694 337.564 128.033 358.949C125.45 374.034 123.381 389.21 121.256 404.369C120.952 406.54 120.514 409.041 122.876 411.721C132.86 403.271 144.384 400.243 157.05 404.391C163.783 406.595 168.649 411.424 172.323 417.915Z" fill="black"/>
</svg>
