<?xml version="1.0" encoding="UTF-8"?>
<svg version="1.1" xmlns="http://www.w3.org/2000/svg" width="404" height="617">
<path d="M0 0 C9.79364737 -0.53494713 16.66060403 3.31141852 24.00390625 9.5 C29.40306745 15.81572969 28.83794801 22.19701192 28.6640625 30.09765625 C28.65052734 31.26296875 28.63699219 32.42828125 28.62304688 33.62890625 C28.58782071 36.49396743 28.53855965 39.35807002 28.4765625 42.22265625 C29.7965625 42.55265625 31.1165625 42.88265625 32.4765625 43.22265625 C32.87485044 50.15581665 32.69489698 56.91566377 29.4765625 63.22265625 C28.4246875 63.82078125 27.3728125 64.41890625 26.2890625 65.03515625 C23.24539786 66.95085194 23.24539786 66.95085194 22.703125 70.0625 C22.29440518 74.88428928 22.14615795 78.63171414 25.3515625 82.46484375 C27.69504506 84.18673185 30.07477073 85.70309408 32.60498047 87.13476562 C35.53888792 88.84015196 38.34948626 90.72859634 41.18383789 92.59326172 C44.02416483 94.45697108 46.88557281 96.28642594 49.75 98.11279297 C51.33645902 99.13259539 52.90734803 100.17651327 54.4765625 101.22265625 C54.4765625 101.88265625 54.4765625 102.54265625 54.4765625 103.22265625 C55.00765625 103.30128906 55.53875 103.37992187 56.0859375 103.4609375 C65.23458402 106.37594742 72.67525328 114.54929813 77.07006836 122.78833008 C82.26705644 133.43329311 82.9206495 145.28349832 84.27587891 156.8815918 C85.22876728 164.84751382 86.58284063 172.68011634 88.20678711 180.53540039 C89.88274425 188.74014714 89.88274425 188.74014714 89.4765625 192.22265625 C87.338014 194.36120475 86.34380936 194.64920688 83.4765625 195.22265625 C83.43692383 196.37975098 83.39728516 197.5368457 83.35644531 198.72900391 C81.85749213 241.03835351 81.85749213 241.03835351 77.4765625 259.22265625 C77.15077747 260.65849968 76.82653249 262.0946935 76.50390625 263.53125 C75.33309578 268.65695622 74.09291109 273.7649833 72.81396484 278.86474609 C67.27422423 298.76301923 67.27422423 298.76301923 71.4765625 318.22265625 C72.09375 321.546875 72.09375 321.546875 72.3515625 324.91015625 C72.45210937 326.02777344 72.55265625 327.14539063 72.65625 328.296875 C72.4765625 331.22265625 72.4765625 331.22265625 71.14453125 332.9765625 C70.59410156 333.38777344 70.04367187 333.79898437 69.4765625 334.22265625 C65.46374963 337.68849651 65.46374963 337.68849651 63.8515625 342.59765625 C62.17069768 347.02902714 61.07008472 347.14931383 56.9765625 349.22265625 C52.67183064 351.72075685 52.67183064 351.72075685 50.625 356.05078125 C50.43070565 358.48223631 50.26869097 360.91636554 50.12890625 363.3515625 C49.50643458 369.9773637 47.0778468 376.15811972 44.9140625 382.41015625 C44.294104 384.20211426 44.294104 384.20211426 43.66162109 386.03027344 C42.90853896 388.19828401 42.1501589 390.36446763 41.38452148 392.52807617 C40.10442737 396.32705405 39.35512803 399.6641605 39.1953125 403.671875 C39.13923828 404.94514648 39.13923828 404.94514648 39.08203125 406.24414062 C39.04722656 407.12392578 39.01242187 408.00371094 38.9765625 408.91015625 C38.7735711 413.9285548 38.54990586 418.88643755 37.8828125 423.8671875 C37.3617517 428.19901284 37.83942061 431.9080511 38.4765625 436.22265625 C39.38783245 451.41546841 36.18808818 464.17461667 30.69116211 478.30395508 C29.01468014 482.6420573 27.63517448 486.97876642 26.4140625 491.47265625 C24.37278078 498.9039339 21.73578851 506.06839641 18.046875 512.8515625 C15.0388154 518.55328 14.01466649 523.2903196 13.9765625 529.66015625 C13.97035889 530.3469043 13.96415527 531.03365234 13.95776367 531.74121094 C14.06491505 535.97499713 14.88882943 537.97726726 17.4765625 541.22265625 C17.296875 543.125 17.296875 543.125 16.6015625 545.16015625 C14.75764967 551.98150249 15.58305868 559.14136139 17.08203125 565.98828125 C17.4765625 568.22265625 17.4765625 568.22265625 16.4765625 570.22265625 C12.93615353 571.40279257 9.81444231 571.27388863 6.140625 571.1796875 C4.66928435 571.15729668 3.19792921 571.13584156 1.7265625 571.11523438 C-0.58666221 571.07816976 -2.89914599 571.03513808 -5.21191406 570.97583008 C-7.44867557 570.92117596 -9.68461104 570.89220353 -11.921875 570.8671875 C-12.60849213 570.8434053 -13.29510925 570.81962311 -14.00253296 570.79512024 C-18.85947405 570.76876999 -21.00728943 571.98005534 -24.5234375 575.22265625 C-29.90919178 577.01790768 -36.02775308 577.07388212 -41.3984375 575.09765625 C-45.01113935 572.93003514 -46.55758514 570.91845868 -48.5234375 567.22265625 C-48.5234375 566.56265625 -48.5234375 565.90265625 -48.5234375 565.22265625 C-49.5959375 564.99578125 -50.6684375 564.76890625 -51.7734375 564.53515625 C-56.03463792 563.0437361 -56.9966117 561.84443989 -59.5234375 558.22265625 C-61.17083826 556.53694385 -62.83409828 554.86633765 -64.5234375 553.22265625 C-66.29044382 551.45564993 -65.82034978 549.05985209 -65.8984375 546.66015625 C-65.84752049 540.54284064 -64.56324628 536.79227602 -60.5234375 532.22265625 C-57.72525162 529.62921568 -55.00525273 527.77012968 -51.5234375 526.22265625 C-52.24115498 522.87067901 -53.48672862 519.93052555 -54.8359375 516.78515625 C-60.20593308 502.85094359 -61.68757147 487.67110217 -63.7734375 472.97265625 C-63.94883057 471.74740234 -64.12422363 470.52214844 -64.30493164 469.25976562 C-65.43820077 460.94341044 -66.21507202 453.40031996 -64.58203125 445.1328125 C-63.3140272 438.68272635 -62.92117525 432.25926206 -62.6706543 425.69750977 C-62.58583227 423.65762559 -62.46389271 421.6219327 -62.34179688 419.58398438 C-62.00172572 411.00663416 -62.94076843 405.46771069 -67.5234375 398.22265625 C-68.58624033 396.11864252 -69.64879696 394.01450439 -70.7109375 391.91015625 C-71.44376953 390.46189453 -71.44376953 390.46189453 -72.19140625 388.984375 C-73.5234375 386.22265625 -73.5234375 386.22265625 -74.57421875 383.4921875 C-75.41541313 381.07767591 -75.41541313 381.07767591 -77.5234375 379.22265625 C-79.70644993 366.11840797 -78.39204384 352.23840367 -78.0234375 339.03515625 C-77.93145184 335.68201416 -77.84155727 332.32888345 -77.75842285 328.97550964 C-77.70698908 326.90417407 -77.65048845 324.8329564 -77.58825684 322.76191711 C-77.56493286 321.82961777 -77.54160889 320.89731842 -77.51757812 319.93676758 C-77.49457642 319.12041336 -77.47157471 318.30405914 -77.44787598 317.46296692 C-77.52289733 315.23867155 -77.89939004 313.3526775 -78.5234375 311.22265625 C-79.27109375 311.20847656 -80.01875 311.19429688 -80.7890625 311.1796875 C-88.83176178 310.79018505 -88.83176178 310.79018505 -91.9609375 308.22265625 C-93.68726416 304.90810907 -95.2572997 301.56427869 -96.69140625 298.11328125 C-97.37494453 296.25035531 -97.37494453 296.25035531 -98.5234375 295.22265625 C-98.99679326 290.20508516 -98.48379081 286.87789789 -96.5859375 282.22265625 C-91.23706495 267.07710316 -92.88282253 250.35257609 -97.02441406 235.16552734 C-98.28156496 230.27100344 -98.93875548 225.23587039 -99.5234375 220.22265625 C-99.62696533 219.35189453 -99.73049316 218.48113281 -99.8371582 217.58398438 C-100.58589145 210.34446793 -100.33312311 203.67022275 -99.3359375 196.47265625 C-99.19792725 195.42408447 -99.05991699 194.3755127 -98.91772461 193.29516602 C-97.92757902 186.16250127 -96.46877223 179.36924369 -94.55859375 172.42578125 C-93.17629058 167.15664443 -92.39410592 161.78248389 -91.5234375 156.41015625 C-90.24374398 148.61909954 -88.59341243 141.52421825 -85.5234375 134.22265625 C-85.1934375 133.06765625 -84.8634375 131.91265625 -84.5234375 130.72265625 C-82.41220028 123.33332598 -80.18800377 116.39192132 -75.5234375 110.22265625 C-74.7190625 109.04703125 -74.7190625 109.04703125 -73.8984375 107.84765625 C-73.4446875 107.31140625 -72.9909375 106.77515625 -72.5234375 106.22265625 C-71.8634375 106.22265625 -71.2034375 106.22265625 -70.5234375 106.22265625 C-70.0284375 104.73765625 -70.0284375 104.73765625 -69.5234375 103.22265625 C-67.80859375 101.828125 -67.80859375 101.828125 -65.5859375 100.41015625 C-64.77253906 99.89066406 -63.95914063 99.37117188 -63.12109375 98.8359375 C-61.83525391 98.03736328 -61.83525391 98.03736328 -60.5234375 97.22265625 C-59.69714844 96.70058594 -58.87085938 96.17851563 -58.01953125 95.640625 C-48.52795604 89.77337585 -38.62172423 86.1190539 -28.12109375 82.4921875 C-24.74071735 81.3830008 -24.74071735 81.3830008 -22.5234375 80.22265625 C-22.29754052 74.57523185 -22.50239549 69.80959003 -26.0859375 65.22265625 C-29.07352509 61.06601265 -28.66012457 55.6096285 -28.6484375 50.66015625 C-28.65101563 49.56574219 -28.65359375 48.47132812 -28.65625 47.34375 C-28.5234375 44.22265625 -28.5234375 44.22265625 -28 41.92578125 C-27.416516 38.61618347 -27.57327906 35.52644333 -27.68945312 32.17675781 C-27.96647318 23.46351059 -27.90996869 16.53294859 -22.5234375 9.22265625 C-21.8634375 9.22265625 -21.2034375 9.22265625 -20.5234375 9.22265625 C-20.1934375 8.23265625 -19.8634375 7.24265625 -19.5234375 6.22265625 C-13.27362551 2.08006057 -7.36093475 0.64949424 0 0 Z M-64.99609375 179.68359375 C-65.52074219 180.31523437 -66.04539062 180.946875 -66.5859375 181.59765625 C-67.11316406 182.22414062 -67.64039063 182.850625 -68.18359375 183.49609375 C-70.62900003 186.64731701 -70.53239216 188.2063354 -70.0859375 192.09765625 C-68.77572326 206.64976908 -69.25417068 219.98141102 -72.5234375 234.22265625 C-74.10860472 242.41749041 -74.71698888 250.45559802 -74.7734375 258.78515625 C-74.78270264 259.64262451 -74.79196777 260.50009277 -74.80151367 261.38354492 C-74.77936704 265.77335397 -74.58057733 269.23082539 -72.5234375 273.22265625 C-70.20751922 268.8996088 -69.41465925 265.25380394 -69.3125 260.36328125 C-68.93579023 246.72125598 -67.86349823 234.01315683 -63.95703125 220.87890625 C-60.62347766 209.61799962 -58.73985335 200.98316424 -60.5234375 189.22265625 C-60.72294912 187.07790637 -60.91156673 184.93209635 -61.0859375 182.78515625 C-61.22984736 181.2641397 -61.37485814 179.74322376 -61.5234375 178.22265625 C-63.63252567 177.98789742 -63.63252567 177.98789742 -64.99609375 179.68359375 Z M-16.5234375 394.22265625 C-18.21637597 397.60853318 -19.02960728 399.95812066 -19.77734375 403.58203125 C-19.99197266 404.61585938 -20.20660156 405.6496875 -20.42773438 406.71484375 C-20.64494141 407.78992188 -20.86214844 408.865 -21.0859375 409.97265625 C-21.30701172 411.03226562 -21.52808594 412.091875 -21.75585938 413.18359375 C-24.18414168 425.00954865 -25.80179453 435.96465841 -23.08886719 447.86499023 C-21.06005342 456.77302443 -20.11298263 465.2621408 -20.0859375 474.41015625 C-20.07626953 475.44865723 -20.06660156 476.4871582 -20.05664062 477.55712891 C-20.11864626 483.19872944 -20.81082186 487.74452943 -22.79516602 493.01342773 C-24.09899748 496.96863086 -24.36269363 501.02915332 -24.7109375 505.16015625 C-24.79279297 505.98966797 -24.87464844 506.81917969 -24.95898438 507.67382812 C-26.12597635 518.06880986 -26.12597635 518.06880986 -24.5234375 528.22265625 C-24.36697897 530.99544916 -24.24702273 533.76039889 -24.1484375 536.53515625 C-23.79178329 544.70924048 -22.55389199 552.27962043 -20.5234375 560.22265625 C-19.8634375 560.22265625 -19.2034375 560.22265625 -18.5234375 560.22265625 C-16.98007497 551.20514815 -15.46099265 542.31150179 -15.0859375 533.16015625 C-14.70311986 525.91787156 -13.03712022 519.95655506 -8.97193909 513.91801453 C-7.37018489 510.93748522 -7.16737437 509.29769412 -7.21459961 505.94848633 C-7.22128159 504.92004105 -7.22796356 503.89159576 -7.23484802 502.83198547 C-7.26748497 501.17878548 -7.26748497 501.17878548 -7.30078125 499.4921875 C-7.30976944 498.34658859 -7.31875763 497.20098969 -7.32801819 496.02067566 C-7.35802087 492.35852691 -7.40776216 488.69703662 -7.4609375 485.03515625 C-7.50893227 481.39117133 -7.55231044 477.74736758 -7.58314514 474.10319519 C-7.60272716 471.83803629 -7.63215195 469.57293346 -7.67308044 467.30805969 C-7.75487614 458.62284765 -6.75302371 450.68392123 -3.4609375 442.59765625 C-1.20402866 436.57923267 0.18833505 431.54438231 -1.453125 425.15234375 C-2.87805025 419.05496019 -3.26253709 412.917508 -3.734375 406.6875 C-4.11135642 402.19622136 -4.45976932 398.31559814 -6.5234375 394.22265625 C-9.8234375 394.22265625 -13.1234375 394.22265625 -16.5234375 394.22265625 Z " fill="#050505" transform="translate(217.5234375,14.77734375)"/>
<path d="M0 0 C1.65 0.33 3.3 0.66 5 1 C5 1.66 5 2.32 5 3 C2.29120665 4.35439668 -0.00933268 4.06501451 -3 4 C-2.01 2.68 -1.02 1.36 0 0 Z " fill="#0C0C0C" transform="translate(149,320)"/>
</svg>
