<svg width="191" height="578" viewBox="0 0 191 578" fill="none" xmlns="http://www.w3.org/2000/svg">
<path d="M100.523 0.777366C110.317 0.242419 117.184 4.08879 124.527 10.2774C129.926 16.5931 129.361 22.9744 129.188 30.875C129.174 32.0403 129.16 33.2056 129.146 34.4063C129.111 37.2713 129.062 40.1354 129 43C130.32 43.33 131.64 43.66 133 44C133.398 50.9332 133.218 57.693 130 64C128.948 64.5981 127.896 65.1963 126.812 65.8125C123.769 67.7282 123.769 67.7282 123.227 70.8399C122.818 75.6617 122.67 79.4091 125.875 83.2422C128.218 84.9641 130.598 86.4805 133.128 87.9121C136.062 89.6175 138.873 91.506 141.707 93.3706C144.548 95.2343 147.409 97.0638 150.273 98.8902C151.86 99.91 153.431 100.954 155 102C155 102.66 155 103.32 155 104C155.531 104.079 156.062 104.157 156.609 104.238C165.758 107.153 173.199 115.327 177.594 123.566C182.79 134.211 183.444 146.061 184.799 157.659C185.752 165.625 187.106 173.457 188.73 181.313C190.406 189.518 190.406 189.518 190 193C187.861 195.139 186.867 195.427 184 196C183.96 197.157 183.921 198.314 183.88 199.506C182.381 241.816 182.381 241.816 178 260C177.674 261.436 177.35 262.872 177.027 264.309C175.857 269.434 174.616 274.542 173.337 279.642C167.798 299.54 167.798 299.54 172 319C172.617 322.324 172.617 322.324 172.875 325.688C172.976 326.805 173.076 327.923 173.18 329.074C173 332 173 332 171.668 333.754C171.118 334.165 170.567 334.576 170 335C165.987 338.466 165.987 338.466 164.375 343.375C162.694 347.806 161.594 347.927 157.5 350C153.195 352.498 153.195 352.498 151.148 356.828C150.954 359.26 150.792 361.694 150.652 364.129C150.03 370.755 147.601 376.935 145.438 383.188C144.818 384.979 144.818 384.979 144.185 386.808C143.432 388.976 142.674 391.142 141.908 393.305C140.628 397.104 139.879 400.442 139.719 404.449C139.663 405.723 139.663 405.723 139.605 407.022C139.571 407.901 139.536 408.781 139.5 409.688C139.297 414.706 139.073 419.664 138.406 424.645C137.885 428.976 138.363 432.685 139 437C139.911 452.193 136.712 464.952 131.215 479.081C129.538 483.419 128.159 487.756 126.937 492.25C124.896 499.681 122.259 506.846 118.57 513.629C115.562 519.331 114.538 524.068 114.5 530.438C114.494 531.124 114.488 531.811 114.481 532.519C114.588 536.752 115.412 538.755 118 542C117.82 543.902 117.82 543.902 117.125 545.938C115.281 552.759 116.106 559.919 117.605 566.766C118 569 118 569 117 571C113.46 572.18 110.338 572.051 106.664 571.957C105.193 571.935 103.721 571.913 102.25 571.893C99.9368 571.856 97.6243 571.812 95.3115 571.753C93.0748 571.699 90.8388 571.67 88.6016 571.645C87.9149 571.621 87.2283 571.597 86.5209 571.572C81.664 571.546 79.5161 572.757 76 576C70.6142 577.795 64.4957 577.851 59.125 575.875C55.5123 573.707 53.9658 571.696 52 568C52 567.34 52 566.68 52 566C50.9275 565.773 49.855 565.546 48.75 565.312C44.4888 563.821 43.5268 562.622 41 559C39.3526 557.314 37.6893 555.644 36 554C34.233 552.233 34.7031 549.837 34.625 547.438C34.6759 541.32 35.9602 537.57 40 533C42.7982 530.407 45.5182 528.547 49 527C48.2823 523.648 47.0367 520.708 45.6875 517.562C40.3175 503.628 38.8359 488.448 36.75 473.75C36.5746 472.525 36.3992 471.3 36.2185 470.037C35.0852 461.721 34.3084 454.178 35.9414 445.91C37.2094 439.46 37.6023 433.037 37.8528 426.475C37.9376 424.435 38.0595 422.399 38.1816 420.361C38.5217 411.784 37.5827 406.245 33 399C31.9372 396.896 30.8746 394.792 29.8125 392.688C29.0797 391.239 29.0797 391.239 28.332 389.762C27 387 27 387 25.9492 384.27C25.108 381.855 25.108 381.855 23 380C20.817 366.896 22.1314 353.016 22.5 339.813C22.592 336.459 22.6819 333.106 22.765 329.753C22.8164 327.682 22.8729 325.61 22.9352 323.539C22.9585 322.607 22.9818 321.675 23.0059 320.714C23.0289 319.898 23.0519 319.081 23.0756 318.24C23.0005 316.016 22.624 314.13 22 312C21.2523 311.986 20.5047 311.972 19.7344 311.957C11.6917 311.568 11.6917 311.568 8.56249 309C6.83617 305.685 5.26613 302.342 3.83202 298.891C3.14849 297.028 3.14849 297.028 1.99999 296C1.52664 290.982 2.03964 287.655 3.93749 283C9.28637 267.854 7.64061 251.13 3.49902 235.943C2.24187 231.048 1.58468 226.013 0.999994 221C0.896466 220.129 0.792938 219.258 0.686273 218.361C-0.0624604 211.122 0.190308 204.448 1.18749 197.25C1.3255 196.201 1.46351 195.153 1.60571 194.073C2.59585 186.94 4.05466 180.147 5.96484 173.203C7.34714 167.934 8.12932 162.56 8.99999 157.188C10.2797 149.396 11.93 142.302 15 135C15.33 133.845 15.66 132.69 16 131.5C18.1112 124.111 20.3354 117.169 25 111C25.8044 109.824 25.8044 109.824 26.625 108.625C27.0787 108.089 27.5325 107.553 28 107C28.66 107 29.32 107 30 107C30.495 105.515 30.495 105.515 31 104C32.7148 102.605 32.7148 102.605 34.9375 101.188C35.7509 100.668 36.5643 100.149 37.4023 99.6133C38.6882 98.8147 38.6882 98.8147 40 98C40.8263 97.478 41.6526 96.9559 42.5039 96.418C51.9955 90.5507 61.9017 86.8964 72.4023 83.2696C75.7827 82.1604 75.7827 82.1604 78 81C78.2259 75.3526 78.021 70.587 74.4375 66C71.4499 61.8434 71.8633 56.387 71.875 51.4375C71.8724 50.3431 71.8698 49.2487 71.8672 48.1211C72 45 72 45 72.5234 42.7031C73.1069 39.3936 72.9502 36.3038 72.834 32.9541C72.557 24.2409 72.6135 17.3103 78 10C78.66 10 79.32 10 80 10C80.33 9.01002 80.66 8.02002 81 7.00002C87.2498 2.85743 93.1625 1.42686 100.523 0.777366ZM35.5273 180.461C35.0027 181.093 34.478 181.724 33.9375 182.375C33.4103 183.001 32.883 183.628 32.3398 184.273C29.8944 187.425 29.991 188.984 30.4375 192.875C31.7477 207.427 31.2693 220.759 28 235C26.4148 243.195 25.8064 251.233 25.75 259.563C25.7407 260.42 25.7315 261.277 25.7219 262.161C25.7441 266.551 25.9429 270.008 28 274C30.3159 269.677 31.1088 266.031 31.2109 261.141C31.5876 247.499 32.6599 234.791 36.5664 221.656C39.9 210.395 41.7836 201.761 40 190C39.8005 187.855 39.6119 185.709 39.4375 183.563C39.2936 182.041 39.1486 180.521 39 179C36.8909 178.765 36.8909 178.765 35.5273 180.461ZM84 395C82.3071 398.386 81.4938 400.735 80.7461 404.359C80.5315 405.393 80.3168 406.427 80.0957 407.492C79.8785 408.567 79.6613 409.642 79.4375 410.75C79.2164 411.81 78.9953 412.869 78.7676 413.961C76.3393 425.787 74.7216 436.742 77.4346 448.642C79.4634 457.55 80.4104 466.04 80.4375 475.188C80.4472 476.226 80.4568 477.265 80.4668 478.335C80.4048 483.976 79.7126 488.522 77.7283 493.791C76.4244 497.746 76.1607 501.807 75.8125 505.938C75.7306 506.767 75.6488 507.597 75.5644 508.451C74.3975 518.846 74.3975 518.846 76 529C76.1565 531.773 76.2764 534.538 76.375 537.312C76.7316 545.487 77.9695 553.057 80 561C80.66 561 81.32 561 82 561C83.5434 551.982 85.0624 543.089 85.4375 533.938C85.8203 526.695 87.4863 520.734 91.5515 514.695C93.1532 511.715 93.3561 510.075 93.3088 506.726C93.3021 505.697 93.2955 504.669 93.2886 503.609C93.2559 501.956 93.2559 501.956 93.2226 500.27C93.2137 499.124 93.2047 497.978 93.1954 496.798C93.1654 493.136 93.1157 489.474 93.0625 485.813C93.0145 482.169 92.9711 478.525 92.9403 474.881C92.9207 472.615 92.8913 470.35 92.8503 468.085C92.7686 459.4 93.7704 451.461 97.0625 443.375C99.3194 437.357 100.712 432.322 99.0703 425.93C97.6454 419.832 97.2609 413.695 96.7891 407.465C96.4121 402.974 96.0637 399.093 94 395C90.7 395 87.4 395 84 395Z" fill="#050505"/>
</svg>
