<svg version="1.1" id="Layer_1" xmlns="http://www.w3.org/2000/svg" xmlns:xlink="http://www.w3.org/1999/xlink" x="0px" y="0px"
	 width="100%" viewBox="0 0 400 608" enable-background="new 0 0 400 608" xml:space="preserve">
<path fill="#000000" opacity="1.000000" stroke="none" 
	d="
M202.021133,48.880363 
	C207.814301,53.773506 211.493973,59.444252 212.496521,66.794205 
	C212.873001,69.554146 214.966949,72.266609 214.765930,74.884621 
	C214.074661,83.887398 217.461319,92.910858 214.850632,101.778610 
	C213.288956,107.083221 212.726471,112.499847 211.374451,118.425865 
	C221.974304,122.038528 231.866531,127.341164 243.062180,128.706451 
	C246.880264,129.172058 249.284180,130.939301 251.549591,133.983627 
	C256.394806,140.494736 262.162781,146.345612 266.736725,153.025711 
	C273.017548,162.198730 278.750519,171.769287 284.311768,181.404129 
	C287.624237,187.142975 291.491119,192.587845 293.638702,199.020630 
	C296.420715,207.353668 291.898956,215.104095 283.166992,216.026810 
	C271.814667,217.226410 260.545471,217.373856 249.733185,212.792450 
	C248.544128,212.288635 247.301910,211.641083 245.270233,212.331299 
	C244.770309,218.462631 245.126541,224.967407 243.499100,231.226028 
	C241.382324,239.366470 243.060287,246.955338 246.896881,254.222702 
	C247.207260,254.810654 247.832382,255.534836 247.691589,256.013458 
	C245.394531,263.822083 251.454712,269.742950 252.340469,276.836761 
	C252.893463,281.265350 254.122803,285.511078 253.606522,290.157623 
	C253.170044,294.086060 254.332886,298.330078 256.314117,301.709076 
	C260.910156,309.547546 262.143127,318.216797 263.853516,326.845917 
	C268.125702,348.399384 268.397888,370.253235 267.153839,391.974060 
	C266.731384,399.350372 266.413086,405.295532 271.149231,411.236847 
	C275.040466,416.118317 275.334869,422.370972 275.692322,428.373077 
	C276.730957,445.813782 278.534332,463.304291 276.216644,480.711945 
	C275.131195,488.864899 275.227234,496.588318 278.380951,504.111542 
	C280.321289,508.740204 279.490906,513.568848 280.144958,518.276978 
	C280.923248,523.879333 281.460907,529.524963 282.497925,535.078064 
	C283.170593,538.679932 282.722046,542.013794 281.674103,545.391357 
	C280.444336,549.354858 278.031891,551.502930 273.616577,551.331726 
	C267.959137,551.112244 262.285583,551.322083 256.626495,551.127319 
	C251.176956,550.939880 249.655777,549.258728 250.695236,544.010803 
	C252.871719,533.022522 251.853943,522.122192 250.271179,511.224731 
	C249.446304,505.545624 251.272614,500.092468 251.640137,494.529419 
	C252.689117,478.651062 249.426773,463.650299 244.074692,449.086731 
	C241.463913,441.982513 239.914993,434.705414 238.124466,427.473053 
	C235.443832,416.645233 231.935699,406.159454 227.444199,395.976044 
	C226.559418,393.970032 224.801834,393.013672 222.877487,392.367615 
	C218.798843,390.998291 215.602768,388.490875 212.835861,385.237823 
	C207.362396,378.802612 196.645691,377.195374 189.586655,381.563568 
	C187.784180,382.678955 187.572174,384.393158 187.245926,386.245941 
	C184.936432,399.360870 184.884750,412.219971 189.032898,425.171539 
	C191.649460,433.341034 190.363831,441.943787 188.837219,450.403412 
	C185.827805,467.079834 186.436722,483.729645 188.778717,500.528503 
	C190.338608,511.717468 195.738922,522.108032 195.095337,533.662659 
	C194.836655,538.306763 193.841721,539.070129 189.566879,537.215942 
	C188.901947,541.733032 186.457260,541.576172 183.620880,539.163391 
	C181.971863,540.595093 182.094910,542.427246 181.603165,543.954834 
	C179.085846,551.775024 176.034866,553.042969 168.740128,549.177551 
	C166.245071,547.855469 164.196655,548.766602 162.723053,550.927307 
	C160.326523,554.441345 159.070053,552.833496 156.787888,550.412537 
	C150.370682,543.605042 151.276138,537.548401 157.016663,530.873230 
	C159.279114,528.242432 160.698349,524.831787 158.586777,520.734863 
	C156.808594,517.284790 159.890121,514.403992 162.279678,512.797424 
	C167.991287,508.957306 167.871246,503.892548 165.662933,498.779358 
	C158.002472,481.041870 155.275803,461.993530 150.695450,443.459015 
	C148.143723,433.133331 150.969666,422.635864 152.368317,412.297943 
	C153.037888,407.348724 153.918915,402.480621 153.781464,397.432648 
	C153.683289,393.826416 153.326233,390.661407 150.746765,387.778931 
	C148.051712,384.767303 148.206863,380.958405 149.623886,377.382202 
	C150.754318,374.529236 150.767166,371.921875 149.313400,369.239716 
	C145.908112,362.956940 145.487473,355.861908 143.788467,349.106354 
	C142.274948,343.088348 141.061722,337.312531 144.406433,331.452362 
	C145.003448,330.406311 144.253128,328.558167 144.044632,327.091827 
	C143.500931,323.267944 142.843338,319.172577 144.592148,315.767059 
	C149.745697,305.731323 148.507523,295.029419 148.545456,284.455383 
	C148.554947,281.808868 148.624634,279.460724 150.921249,277.775970 
	C153.523056,275.867310 152.281784,273.010742 152.217514,270.787018 
	C152.001831,263.323242 154.568604,256.157501 153.939346,248.644012 
	C152.522751,231.729401 151.321274,214.798660 148.587372,198.027298 
	C148.357803,196.619019 147.800552,195.264145 146.954636,192.382584 
	C142.934204,199.108719 140.285233,204.811584 140.035355,211.382080 
	C139.714645,219.815262 140.718765,228.225220 140.386185,236.691040 
	C140.099091,243.999603 135.752487,249.144897 130.948196,252.836472 
	C123.188042,258.799255 113.321716,252.206787 114.468880,241.298080 
	C115.369591,232.732971 114.242065,225.027893 111.797386,217.057022 
	C109.831741,210.648102 110.265038,204.028397 113.611763,198.117249 
	C118.550377,189.394470 117.516960,179.668701 118.647758,170.364594 
	C119.807037,160.826080 124.250595,152.654587 127.823242,144.097443 
	C129.085968,141.072968 132.063095,140.129059 135.225769,139.775055 
	C144.171112,138.773727 151.066864,133.153778 158.670395,129.152374 
	C160.048584,128.427094 160.461929,126.801476 160.624283,125.262131 
	C160.838928,123.226768 161.341125,121.142502 162.714630,119.726692 
	C168.379425,113.887405 166.332550,107.444214 164.318893,101.078384 
	C162.964813,96.797661 161.122803,92.673012 159.554276,88.457993 
	C157.104080,81.873764 156.578262,75.179863 158.558701,68.368835 
	C159.209793,66.129631 159.914948,63.897888 159.724686,61.517082 
	C159.137436,54.169338 163.301804,49.044765 167.774216,43.998356 
	C169.140091,42.457199 170.829483,42.017822 172.629761,41.783379 
	C180.977356,40.696335 189.349136,39.410488 196.601212,45.573044 
	C198.103516,46.849651 199.996262,47.666779 202.021133,48.880363 
M249.461060,193.060486 
	C251.190384,192.851868 253.061340,193.467529 254.795166,192.124313 
	C253.303452,187.893509 250.241913,186.097809 245.707108,185.790466 
	C245.385757,188.937134 243.451187,192.358032 249.461060,193.060486 
z"/>
</svg>