<svg width="965" height="2647" viewBox="0 0 965 2647" fill="none" xmlns="http://www.w3.org/2000/svg">
<path d="M480.095 41.6022C510.466 66.8888 529.757 96.1939 535.012 134.177C536.986 148.439 547.964 162.457 546.91 175.986C543.286 222.51 561.04 269.141 547.354 314.968C539.167 342.381 536.218 370.373 529.13 400.997C584.7 419.666 636.56 447.069 695.253 454.125C715.269 456.531 727.872 465.663 739.748 481.396C765.149 515.044 795.388 545.28 819.367 579.801C852.294 627.205 882.349 676.663 911.504 726.454C928.87 756.111 949.142 784.248 960.4 817.492C974.985 860.555 951.28 900.607 905.502 905.375C845.988 911.575 786.909 912.337 730.226 888.661C723.992 886.057 717.48 882.711 706.829 886.278C704.208 917.963 706.075 951.578 697.544 983.921C686.446 1025.99 695.243 1065.21 715.356 1102.76C716.984 1105.8 720.261 1109.54 719.523 1112.02C707.48 1152.37 739.251 1182.97 743.894 1219.63C746.793 1242.51 753.238 1264.45 750.532 1288.47C748.243 1308.77 754.34 1330.7 764.726 1348.16C788.821 1388.67 795.285 1433.47 804.252 1478.06C826.649 1589.45 828.075 1702.38 821.554 1814.63C819.339 1852.75 817.67 1883.47 842.499 1914.17C862.899 1939.4 864.443 1971.71 866.317 2002.73C871.762 2092.86 881.216 2183.25 869.065 2273.21C863.375 2315.34 863.878 2355.25 880.412 2394.13C890.584 2418.05 886.231 2443 889.659 2467.33C893.74 2496.28 896.558 2525.46 901.995 2554.16C905.521 2572.77 903.17 2590 897.676 2607.45C891.229 2627.94 878.582 2639.04 855.434 2638.15C825.775 2637.02 796.032 2638.1 766.364 2637.1C737.795 2636.13 729.82 2627.44 735.269 2600.32C746.679 2543.53 741.344 2487.2 733.046 2430.89C728.722 2401.54 738.296 2373.36 740.223 2344.61C745.722 2262.56 728.619 2185.03 700.561 2109.77C686.874 2073.06 678.754 2035.45 669.367 1998.08C655.314 1942.12 636.922 1887.94 613.376 1835.31C608.737 1824.94 599.523 1820 589.435 1816.66C568.052 1809.59 551.297 1796.63 536.791 1779.82C508.097 1746.56 451.914 1738.26 414.907 1760.83C405.458 1766.59 404.347 1775.45 402.636 1785.03C390.529 1852.8 390.258 1919.26 412.004 1986.19C425.722 2028.4 418.982 2072.86 410.979 2116.58C395.202 2202.76 398.394 2288.8 410.672 2375.61C418.85 2433.43 447.161 2487.13 443.787 2546.84C442.431 2570.84 437.215 2574.79 414.804 2565.2C411.318 2588.55 398.502 2587.74 383.632 2575.27C374.987 2582.67 375.632 2592.14 373.054 2600.03C359.857 2640.44 343.862 2647 305.62 2627.02C292.539 2620.19 281.8 2624.9 274.075 2636.06C261.511 2654.22 254.924 2645.91 242.96 2633.4C209.318 2598.22 214.065 2566.92 244.159 2532.43C256.02 2518.83 263.461 2501.21 252.391 2480.03C243.069 2462.21 259.223 2447.32 271.751 2439.02C301.694 2419.17 301.064 2393 289.487 2366.57C249.327 2274.91 235.033 2176.47 211.02 2080.69C197.643 2027.33 212.458 1973.08 219.79 1919.66C223.301 1894.08 227.919 1868.92 227.199 1842.84C226.684 1824.2 224.812 1807.85 211.289 1792.95C197.161 1777.39 197.974 1757.7 205.403 1739.22C211.329 1724.48 211.396 1711 203.775 1697.14C185.923 1664.68 183.718 1628.01 174.81 1593.1C166.876 1562 160.516 1532.15 178.05 1501.87C181.18 1496.46 177.246 1486.91 176.153 1479.33C173.303 1459.57 169.856 1438.41 179.024 1420.81C206.041 1368.95 199.55 1313.64 199.749 1259C199.799 1245.32 200.164 1233.19 212.204 1224.48C225.844 1214.62 219.337 1199.85 219 1188.36C217.869 1149.79 231.325 1112.76 228.026 1073.93C220.6 986.523 214.301 899.029 199.969 812.358C198.765 805.081 195.844 798.079 191.409 783.188C170.332 817.947 156.445 847.418 155.135 881.373C153.453 924.953 158.718 968.414 156.974 1012.16C155.469 1049.93 132.682 1076.52 107.495 1095.6C66.8127 1126.41 15.0885 1092.35 21.1025 1035.97C25.8245 991.709 19.9134 951.891 7.09721 910.699C-3.20768 877.58 -0.936121 843.371 16.6091 812.823C42.4998 767.746 37.0821 717.485 43.0103 669.404C49.0878 620.111 72.3832 577.883 91.1128 533.662C97.7326 518.032 113.34 513.154 129.921 511.324C176.816 506.15 212.967 477.107 252.829 456.429C260.054 452.681 262.221 444.28 263.072 436.325C264.198 425.807 266.83 415.036 274.031 407.719C303.729 377.543 292.998 344.246 282.441 311.349C275.342 289.227 265.686 267.912 257.463 246.13C244.618 212.104 241.861 177.512 252.243 142.314C255.657 130.742 259.354 119.209 258.356 106.906C255.277 68.9344 277.109 42.4518 300.556 16.3731C307.716 8.4088 316.573 6.13821 326.011 4.92666C369.773 -0.690927 413.662 -7.33588 451.681 24.5108C459.557 31.108 469.48 35.3307 480.095 41.6022ZM728.799 786.691C737.865 785.613 747.674 788.794 756.763 781.853C748.943 759.989 732.893 750.709 709.119 749.121C707.434 765.382 697.292 783.061 728.799 786.691Z" fill="black"/>
<path d="M480.095 41.6022C510.466 66.8888 529.757 96.1939 535.012 134.177C536.986 148.439 547.964 162.457 546.91 175.986C543.286 222.51 561.04 269.141 547.354 314.968C539.167 342.381 536.218 370.373 529.13 400.997C584.7 419.666 636.56 447.069 695.253 454.125C715.269 456.531 727.872 465.663 739.748 481.396C765.149 515.044 795.388 545.28 819.367 579.801C852.294 627.205 882.349 676.663 911.504 726.454C928.87 756.111 949.142 784.248 960.4 817.492C974.985 860.555 951.28 900.607 905.502 905.375C845.988 911.575 786.909 912.337 730.226 888.661C723.992 886.057 717.48 882.711 706.829 886.278C704.208 917.963 706.075 951.578 697.544 983.921C686.446 1025.99 695.243 1065.21 715.356 1102.76C716.984 1105.8 720.261 1109.54 719.523 1112.02C707.48 1152.37 739.251 1182.97 743.894 1219.63C746.793 1242.51 753.238 1264.45 750.532 1288.47C748.243 1308.77 754.34 1330.7 764.726 1348.16C788.821 1388.67 795.285 1433.47 804.252 1478.06C826.649 1589.45 828.075 1702.38 821.554 1814.63C819.339 1852.75 817.67 1883.47 842.499 1914.17C862.899 1939.4 864.443 1971.71 866.317 2002.73C871.762 2092.86 881.216 2183.25 869.065 2273.21C863.375 2315.34 863.878 2355.25 880.412 2394.13C890.584 2418.05 886.231 2443 889.659 2467.33C893.74 2496.28 896.558 2525.46 901.995 2554.16C905.521 2572.77 903.17 2590 897.676 2607.45C891.229 2627.94 878.582 2639.04 855.434 2638.15C825.775 2637.02 796.032 2638.1 766.364 2637.1C737.795 2636.13 729.82 2627.44 735.269 2600.32C746.679 2543.53 741.344 2487.2 733.046 2430.89C728.722 2401.54 738.296 2373.36 740.223 2344.61C745.722 2262.56 728.619 2185.03 700.561 2109.77C686.874 2073.06 678.754 2035.45 669.367 1998.08C655.314 1942.12 636.922 1887.94 613.376 1835.31C608.737 1824.94 599.523 1820 589.435 1816.66C568.052 1809.59 551.297 1796.63 536.791 1779.82C508.097 1746.56 451.914 1738.26 414.907 1760.83C405.458 1766.59 404.347 1775.45 402.636 1785.03C390.529 1852.8 390.258 1919.26 412.004 1986.19C425.722 2028.4 418.982 2072.86 410.979 2116.58C395.202 2202.76 398.394 2288.8 410.672 2375.61C418.85 2433.43 447.161 2487.13 443.787 2546.84C442.431 2570.84 437.215 2574.79 414.804 2565.2C411.318 2588.55 398.502 2587.74 383.632 2575.27C374.987 2582.67 375.632 2592.14 373.054 2600.03C359.857 2640.44 343.862 2647 305.62 2627.02C292.539 2620.19 281.8 2624.9 274.075 2636.06C261.511 2654.22 254.924 2645.91 242.96 2633.4C209.318 2598.22 214.065 2566.92 244.159 2532.43C256.02 2518.83 263.461 2501.21 252.391 2480.03C243.069 2462.21 259.223 2447.32 271.751 2439.02C301.694 2419.17 301.064 2393 289.487 2366.57C249.327 2274.91 235.033 2176.47 211.02 2080.69C197.643 2027.33 212.458 1973.08 219.79 1919.66C223.301 1894.08 227.919 1868.92 227.199 1842.84C226.684 1824.2 224.812 1807.85 211.289 1792.95C197.161 1777.39 197.974 1757.7 205.403 1739.22C211.329 1724.48 211.396 1711 203.775 1697.14C185.923 1664.68 183.718 1628.01 174.81 1593.1C166.876 1562 160.516 1532.15 178.05 1501.87C181.18 1496.46 177.246 1486.91 176.153 1479.33C173.303 1459.57 169.856 1438.41 179.024 1420.81C206.041 1368.95 199.55 1313.64 199.749 1259C199.799 1245.32 200.164 1233.19 212.204 1224.48C225.844 1214.62 219.337 1199.85 219 1188.36C217.869 1149.79 231.325 1112.76 228.026 1073.93C220.6 986.523 214.301 899.029 199.969 812.358C198.765 805.081 195.844 798.079 191.409 783.188C170.332 817.947 156.445 847.418 155.135 881.373C153.453 924.953 158.718 968.414 156.974 1012.16C155.469 1049.93 132.682 1076.52 107.495 1095.6C66.8127 1126.41 15.0885 1092.35 21.1025 1035.97C25.8245 991.709 19.9134 951.891 7.09721 910.699C-3.20768 877.58 -0.936121 843.371 16.6091 812.823C42.4998 767.746 37.0821 717.485 43.0103 669.404C49.0878 620.111 72.3832 577.883 91.1128 533.662C97.7326 518.032 113.34 513.154 129.921 511.324C176.816 506.15 212.967 477.107 252.829 456.429C260.054 452.681 262.221 444.28 263.072 436.325C264.198 425.807 266.83 415.036 274.031 407.719C303.729 377.543 292.998 344.246 282.441 311.349C275.342 289.227 265.686 267.912 257.463 246.13C244.618 212.104 241.861 177.512 252.243 142.314C255.657 130.742 259.354 119.209 258.356 106.906C255.277 68.9344 277.109 42.4518 300.556 16.3731C307.716 8.4088 316.573 6.13821 326.011 4.92666C369.773 -0.690927 413.662 -7.33588 451.681 24.5108C459.557 31.108 469.48 35.3307 480.095 41.6022ZM728.799 786.691C737.865 785.613 747.674 788.794 756.763 781.853C748.943 759.989 732.893 750.709 709.119 749.121C707.434 765.382 697.292 783.061 728.799 786.691Z" fill="black" fill-opacity="0.2"/>
</svg>
