<svg width="293" height="663" viewBox="0 0 293 663" fill="none" xmlns="http://www.w3.org/2000/svg">
<path d="M122 1.33328C115.867 2.53328 109.6 5.86662 103.6 11.1999C100.934 13.5999 96.5336 16.8 93.8669 18.4C90.4003 20.5333 88.0003 23.6 85.4669 29.2C82.4003 36.1333 82.0003 38.4 82.2669 49.4666C82.6669 60.8 82.4003 62.4 79.7336 65.8666C78.0003 68 76.6669 70.6666 76.6669 71.7333C76.6669 72.9333 76.0003 75.7333 75.0669 78.1333C73.8669 81.7333 73.8669 82.8 75.7336 84.6666C77.0669 85.8666 78.0003 87.7333 78.0003 88.9333C78.0003 90.4 78.9336 90.6666 82.0003 90C85.4669 89.2 86.1336 89.6 87.3336 92.5333C88.4003 95.6 88.9336 95.8666 92.0003 94.6666C101.067 91.2 98.4003 95.7333 88.9336 100C85.4669 101.6 81.3336 103.467 79.8669 104.267C78.2669 105.067 74.2669 105.333 71.2003 104.8C68.0003 104.4 60.8003 103.6 55.2003 103.2C45.7336 102.4 44.5336 102.667 38.5336 106C27.2002 112.4 12.6669 128.267 6.40025 140.667C-0.79975 154.933 -1.86642 184.267 3.73358 209.333C5.73358 217.733 7.86692 230.933 8.53358 238.667C9.73358 251.067 9.60025 253.867 7.33358 262.667C2.80025 280.133 2.93358 280.8 17.7336 291.067C23.2003 294.933 26.5336 296.267 32.5336 296.933C39.7336 297.6 40.6669 297.333 43.8669 294.267C46.8003 291.333 47.0669 290.267 46.4003 283.2C45.0669 267.6 42.2669 258.667 36.8003 251.733C32.6669 246.533 31.3336 243.6 30.5336 237.733C29.2003 226.533 30.6669 212 35.3336 193.333C37.4669 184.267 39.3336 175.333 39.3336 173.733C39.3336 168.8 44.0003 167.333 49.2003 170.667C54.5336 173.867 54.6669 174.4 56.8003 195.6C58.1336 208.667 58.1336 215.867 56.6669 233.067C55.7336 244.8 55.2003 255.467 55.6003 256.933C56.5336 260.533 50.8003 286.667 47.8669 292.267C46.5336 294.667 45.3336 300.933 44.9336 306.133C44.4003 314 44.9336 316.8 47.8669 324.133C52.2669 334.8 55.0669 357.6 52.8003 364.133C50.6669 370.4 50.9336 374.8 54.1336 380C55.7336 382.533 58.1336 388.8 59.6003 393.867C63.4669 408.133 70.9336 423.333 81.8669 439.867C87.4669 448.133 93.2003 457.067 94.6669 459.467L97.2003 463.867L92.9336 468.933C90.5336 471.733 86.8003 477.467 84.6669 481.867C80.4003 490.267 78.8003 491.867 70.6669 496.133C66.2669 498.533 64.8003 498.8 61.3336 497.467C54.6669 495.067 43.3336 495.6 38.4003 498.667C31.0669 503.067 30.1336 509.2 34.4002 527.733C38.8003 546.533 38.8003 551.6 35.2003 565.733C33.3336 572.933 32.6669 578.933 33.0669 583.333C34.0003 592 40.1336 607.467 43.7336 610C47.4669 612.533 52.6669 612.533 56.4003 609.867C59.8669 607.467 65.2003 597.467 66.6669 590.8C67.2003 588.4 68.8003 583.733 70.2669 580.533C72.5336 575.2 73.2003 574.667 77.0669 574.933C79.4669 575.067 82.6669 574.4 84.1336 573.6C88.0003 571.6 95.3336 560.267 95.3336 556.533C95.3336 552.533 88.2669 546.8 81.8669 545.867C75.7336 544.8 75.3336 543.6 80.4003 540.4C82.4003 539.2 86.5336 536.533 89.7336 534.533C92.9336 532.533 97.3336 530.4 99.7336 529.867C104.667 528.8 106.267 530.533 109.467 540.533C110.667 544.267 114.934 554.267 118.934 562.667C130.267 586.533 138 608.533 138 616.933C138 623.6 138.4 624.4 143.867 629.733C148.4 634.133 149.867 636.667 150.534 641.333C152.134 651.6 155.867 658.267 161.334 660.667C170.667 664.533 185.6 662.133 189.867 656.133C196.267 647.067 198.134 642.533 197.2 637.6C196 631.467 191.734 624.667 187.6 622.4C185.867 621.467 182.934 618 180.934 614.667C179.067 611.333 176 606.667 174.267 604.267C169.734 598.267 165.067 575.467 162 544.267C161.2 534.933 159.334 525.867 157.334 520.133C155.467 515.067 154 510.4 154 509.467C154 508.667 156.134 505.733 158.667 503.067C161.467 500.133 164.534 494.533 166.534 488.8C168.267 483.6 172.534 473.067 176 465.333C184.534 445.867 190.8 426.8 193.2 412.667C194.267 406 196.4 397.867 198 394.4C200.934 387.6 201.6 381.867 200.134 375.067C199.467 372.4 200 368.267 201.334 363.733C204.8 352.933 205.734 319.2 202.8 312C201.6 309.067 200.667 305.333 200.667 303.6C200.667 300.933 201.467 300.667 207.334 300.4C214.4 300.133 216.134 301.867 210.667 304C205.734 305.867 206.534 306.667 213.467 306.667C218.8 306.667 220.267 306 223.867 302.267C232.267 293.333 235.334 287.467 236.4 278.533C237.734 268 242 261.2 260.134 241.333C280.934 218.533 292.534 200.533 292.667 191.067C292.667 188.667 291.334 183.333 289.867 179.2C286.4 169.867 271.2 153.333 257.334 144C247.734 137.467 246 135.333 239.6 122.667C235.067 113.867 226.267 107.067 217.067 105.333C213.6 104.667 204.134 102.933 196 101.467C178.534 98.2666 168.267 94.2666 169.2 90.9333C171.334 84.4 172.667 73.3333 171.867 68.6666C171.334 65.0666 171.867 62 173.2 59.3333C174.4 57.0666 175.334 53.4666 175.334 51.2C175.334 49.0666 175.867 46.6666 176.534 45.8666C177.867 44.6666 178.667 36 178.267 28.2666C177.467 14.5333 141.867 -2.53338 122 1.33328ZM84.6669 68.1333C84.6669 70.8 82.6669 71.6 81.3336 69.3333C80.1336 67.3333 81.7336 63.6 83.3336 64.6666C84.0003 65.0666 84.6669 66.6666 84.6669 68.1333ZM229.334 175.6C234.4 179.2 242 183.733 246 186C250 188.133 253.467 191.067 253.734 192.4C254 193.6 251.867 198.4 248.934 203.067C246.134 207.6 241.2 216.267 238.134 222.267C228.134 241.6 207.334 263.2 202.934 258.8C201.6 257.467 202.4 243.2 204.267 234C204.934 231.067 205.067 225.6 204.534 222C204 217.6 204.267 214.133 205.334 212C207.467 207.733 210 191.733 210 182.4C210 174.267 212.667 169.333 217.067 169.333C218.667 169.333 224.267 172.133 229.334 175.6Z" fill="black"/>
</svg>
