<svg width="216" height="576" viewBox="0 0 216 576" fill="none" xmlns="http://www.w3.org/2000/svg">
<path d="M78.8005 2.80003C71.4671 5.46669 69.2005 7.86669 65.7338 16.5334C63.2005 22.9334 62.8005 26.5334 62.8005 41.3334C62.8005 52.8 63.6005 62.4 65.2005 69.7334C66.5338 75.8667 67.2005 81.7334 66.8005 82.6667C66.4005 83.7334 61.7338 87.4667 56.4005 90.9334C36.1338 104.267 26.5338 113.333 20.6671 124.8C19.3338 127.333 16.6671 136.933 14.6671 146.133C10.6671 165.467 5.33379 186.933 2.53379 195.067C0.00045874 202.933 0.133792 212.667 3.46713 229.6C6.00046 243.467 12.8005 260.8 17.6005 266.267C19.0671 267.867 19.4671 270.4 19.0671 274.533C18.1338 282.667 19.6005 284.8 23.7338 280.933L26.9338 277.867L30.2671 281.733C33.3338 285.333 33.7338 287.333 34.8005 304.133C35.3338 314.4 35.8671 339.2 36.0005 359.333C36.0005 404.8 38.1338 421.467 48.0005 456.8C50.4005 465.333 53.3338 478.4 54.5338 485.733C55.7338 493.067 57.8671 502.8 59.4671 507.467C62.5338 516.8 64.0005 531.467 62.6671 540.4C62.0005 544.8 60.2671 547.867 55.4671 553.2C48.4005 560.933 46.1338 566.667 48.9338 569.467C50.0005 570.533 56.4005 571.467 66.4005 572C82.2671 572.8 87.3338 571.867 87.3338 568.133C87.3338 565.2 90.8005 563.2 96.8005 562.533C103.2 561.733 109.467 558.933 110.4 556.4C110.934 554.8 109.867 552.267 101.2 533.6L97.7338 526L99.3338 501.6C101.067 475.867 100.667 448.4 97.8671 412C96.6671 395.333 96.6671 388.267 98.0005 380C99.6005 369.2 106 350.933 109.334 347.467C110.934 345.867 111.334 346.4 112 350.8C112.4 353.6 113.467 358.933 114.134 362.667C116.4 373.733 118.267 448.133 117.2 488.133L116.4 525.6L121.2 531.067C125.734 536 126 536.667 124.4 540.133C123.467 542.267 122 544.533 121.067 545.067C120.134 545.6 119.334 547.6 119.334 549.467C119.334 551.333 118.667 554 118 555.467C116.8 557.467 117.067 558 118.667 558C121.467 558 123.334 563.333 121.6 566.933C120.934 568.533 120.667 570.8 121.2 572.133C122 574.133 123.6 574.267 135.334 573.6C142.8 573.2 148.934 573.467 149.467 574.133C150.534 576 158.4 575.467 161.2 573.333C163.734 571.333 163.2 569.2 159.067 566.267C156.934 564.667 156.667 563.333 157.467 555.733C158.267 548.133 158.134 546.667 156 545.2C154 543.733 153.867 542.133 154.534 533.733C154.934 528.4 155.334 521.867 155.334 519.333C155.334 516.8 156.134 511.6 157.334 508C158.4 504.267 159.334 498.8 159.334 495.733C159.334 490.667 160.134 485.333 163.467 470.267C166.4 457.067 169.467 425.867 169.067 414.667C168.534 400.267 170.667 381.067 174.134 367.333C175.6 361.867 178.134 350.533 180 342.133C181.734 333.867 184.4 324.533 185.867 321.467C188.267 316.667 188.534 312.933 188.8 289.333L189.067 262.667L194.4 254.667C197.467 250.267 201.2 244.933 202.934 242.933C205.867 239.2 210.267 230.8 213.467 222C215.6 216.667 215.867 206.133 214 199.333C210.934 187.067 198.4 153.067 192.267 140C176.534 106.267 171.867 101.733 134.667 84.6667C123.334 79.4667 118 76.1334 118 73.8667C118 73.3334 120 70.5334 122.534 67.6C126.934 62.2667 126.934 62.1334 127.867 44.1334C128.934 24 128.934 24 120.134 13.4667C112.934 4.66669 104.134 0.666693 92.6671 0.800026C87.8671 0.800026 81.6005 1.73336 78.8005 2.80003Z" fill="black"/>
</svg>
