<svg width="228" height="596" viewBox="0 0 228 596" fill="none" xmlns="http://www.w3.org/2000/svg">
<path d="M149.867 5.00004C139.867 10.6 136.533 15.2667 133.867 27.2667C132.667 33 130.8 38.8667 129.867 40.3334C127.467 43.8 127.467 55.6667 130 59.2667C133.2 63.8 133.867 72.0667 131.467 76.7333C129.733 80.2 128.4 81 123.067 81.6667C114.8 82.7333 106.667 86.4667 97.4665 93.5333C93.3332 96.7333 88.5332 100.067 86.6665 101C84.7999 101.933 79.7332 106.067 75.4665 110.2C67.1999 118.067 59.9999 130.733 59.9999 137.4C59.9999 139.4 57.3332 148.467 53.9999 157.533C50.6665 166.733 47.9999 174.6 47.9999 175.133C47.9999 175.667 48.9332 177.133 50.1332 178.467C52.1332 180.733 52.1332 182.2 50.1332 197.933C46.9332 223.667 47.5999 232.867 53.1999 239.8C55.3332 242.467 56.7999 242.867 62.2665 242.6L68.9332 242.333L67.9999 248.067C67.5999 251.133 65.5999 256.067 63.5999 259C60.1332 264.2 47.1999 300.733 43.1999 316.333C42.1332 320.733 40.6665 330.6 40.1332 338.333C39.3332 347.933 38.1332 354.467 36.1332 358.867C32.3999 367.4 30.2665 381.133 31.4665 390.067C32.2665 396.467 32.7999 397.533 37.1999 400.333C45.1999 405.267 46.2665 410.867 42.2665 426.067C39.3332 437 38.3999 439.133 34.1332 442.6C25.8665 449.4 21.8665 459.4 16.6665 486.6C13.9999 500.067 10.7999 515.533 9.3332 521C3.59987 543.933 -0.400131 574.2 1.06654 583C2.39987 590.733 8.66654 593.533 24.6665 593.667H36.6665L37.0665 588.467C37.3332 585.667 36.2665 576.333 34.7999 567.667C32.1332 552.6 32.2665 545.4 35.1999 537C35.5999 535.933 36.1332 532.333 36.5332 529C37.4665 520.333 41.7332 510.067 49.4665 497.4C53.1999 491.267 58.2665 481.533 60.6665 475.667C63.5999 468.2 66.9332 462.867 71.5999 457.933C80.3999 448.733 81.9999 445.4 86.6665 427C88.6665 418.6 90.7999 411.133 91.1999 410.467C91.5999 409.933 94.6665 408.6 97.8665 407.8C105.867 405.8 111.2 401 113.2 394.067C116 384.067 123.067 366.333 124.267 366.333C126.133 366.333 130.667 378.067 133.733 390.867C136.667 403 138.533 405.267 142.8 402.6C146.267 400.467 146.133 400.333 150.4 406.6C153.733 411.533 154.533 414.467 155.867 427C156.8 435 158 444.867 158.8 448.733C159.6 453.933 159.333 460.067 157.867 470.733C155.333 488.2 156 507 159.6 519C162.4 528.867 163.067 565.933 160.4 569.267C159.467 570.333 158.8 573.267 158.933 575.8C159.067 578.333 158 582.067 156.8 583.933C153.2 589.4 154.4 593.4 160 594.6C162.533 595.267 175.733 595.267 189.333 594.733C202.933 594.333 217.067 593.8 220.667 593.8C225.467 593.667 227.333 593.133 227.333 591.8C227.333 588.867 221.2 585.133 214.267 583.8C209.467 583 206.4 581.133 201.333 576.467C197.733 573.133 193.867 570.333 192.667 570.333C191.6 570.333 190.667 569.667 190.667 568.867C190.667 567.8 192.667 567.533 196.8 568.2C200.533 568.6 202.533 568.467 202 567.667C201.6 566.867 198.4 566.333 195.067 566.333C189.867 566.333 189.2 566.067 190 563.933C190.667 562.733 192.133 556.2 193.333 549.667C194.667 543 197.067 531.4 198.667 523.667C202 508.067 202.267 501 200.133 473C199.2 462.333 198.267 443.267 197.867 430.733C197.2 410.733 197.467 407.133 199.333 403.4C205.467 391.8 205.733 364.2 200 343.667C198.533 338.2 196.133 325.267 194.667 315C188.533 273.133 188.8 273.8 179.2 268.2C176.533 266.6 176.133 260.067 178 249.933C179.2 243.933 180.4 243.8 184.133 248.867C191.867 259.4 200.4 256.733 208.4 241.133C211.067 235.667 213.067 230.333 212.8 229.133C212.4 227.933 211.733 223.933 211.333 220.067C210.4 212.867 210.267 213.133 218.933 205.8C220.8 204.2 220.933 203 219.867 198.867C218.8 195.4 218.933 190.6 220 182.733C222.533 165.133 219.333 138.067 213.6 126.867C209.6 119.267 182.133 93.5333 175.6 91.2667C174.4 90.8667 174.667 88.4667 176.4 81.5333C179.2 71.1333 179.733 70.3333 185.6 68.4667C187.867 67.6667 191.067 65.2667 192.533 63.2667C195.067 59.8 195.333 57.9334 194.933 43.9334C194.4 24.7334 192.4 17.5334 185.333 11.1334C173.067 0.0667048 161.733 -1.9333 149.867 5.00004Z" fill="black"/>
</svg>
