<?xml version="1.0" standalone="no"?>
<!DOCTYPE svg PUBLIC "-//W3C//DTD SVG 20010904//EN"
 "http://www.w3.org/TR/2001/REC-SVG-20010904/DTD/svg10.dtd">
<svg version="1.0" xmlns="http://www.w3.org/2000/svg"
 width="765.000000pt" height="1847.000000pt" viewBox="0 0 765.000000 1847.000000"
 preserveAspectRatio="xMidYMid meet">

<g transform="translate(0.000000,1847.000000) scale(0.100000,-0.100000)"
fill="#000000" stroke="none">
<path d="M3985 18441 c-50 -8 -68 -19 -61 -37 6 -16 -19 -8 -53 18 -26 20 -97
26 -85 7 6 -11 -10 -8 -55 9 -11 4 -13 1 -8 -13 6 -15 5 -16 -7 -6 -17 14 -40
5 -30 -11 5 -8 1 -9 -12 -4 -10 4 -35 10 -54 14 -30 5 -33 3 -23 -10 11 -13 9
-15 -16 -16 -43 -1 -109 -21 -118 -35 -4 -7 -42 -24 -83 -38 -70 -24 -76 -29
-88 -64 -7 -21 -14 -51 -16 -66 -1 -16 -10 -37 -19 -47 -10 -10 -17 -24 -17
-30 0 -6 -15 -23 -33 -39 -74 -62 -115 -171 -127 -333 -6 -78 -17 -138 -34
-187 -24 -68 -56 -272 -56 -359 0 -51 -4 -55 -41 -41 -56 22 -59 11 -62 -278
l-2 -260 33 -68 c42 -84 86 -117 169 -126 l58 -6 6 -100 c11 -161 10 -452 -1
-480 -5 -14 -18 -28 -27 -32 -71 -25 -168 -78 -223 -123 -38 -31 -113 -76
-180 -107 -63 -30 -128 -65 -145 -77 -16 -13 -118 -77 -227 -144 -108 -66
-285 -176 -395 -244 -109 -68 -236 -146 -283 -173 -151 -85 -246 -154 -321
-231 -41 -42 -98 -90 -127 -107 -29 -18 -55 -40 -58 -50 -3 -10 -45 -78 -94
-150 -83 -125 -182 -303 -207 -374 -7 -21 -27 -42 -59 -62 -87 -53 -356 -416
-445 -601 -77 -158 -160 -300 -216 -368 -53 -66 -61 -93 -41 -147 14 -37 14
-46 1 -81 -87 -230 -113 -360 -94 -463 29 -157 152 -417 466 -981 217 -390
226 -404 445 -700 92 -124 177 -247 190 -273 32 -64 93 -134 206 -237 101 -93
165 -163 234 -260 70 -98 149 -151 430 -294 118 -60 180 -107 180 -137 0 -9
-14 -70 -31 -135 -39 -151 -46 -189 -59 -321 -6 -59 -22 -176 -36 -260 -23
-143 -35 -261 -50 -500 l-7 -102 52 -7 c92 -12 88 1 100 -329 6 -159 13 -456
16 -660 13 -876 24 -1120 70 -1510 8 -71 15 -191 15 -266 l0 -136 198 1 c168
1 206 -2 257 -18 33 -11 94 -22 135 -25 l75 -6 7 -110 c3 -60 14 -144 23 -185
8 -41 18 -143 22 -226 5 -143 5 -152 -14 -165 -25 -18 -32 -47 -43 -189 -5
-63 -12 -144 -16 -179 -4 -37 -1 -100 6 -148 11 -78 11 -86 -11 -146 l-22 -63
31 -70 c24 -54 32 -88 36 -159 8 -134 73 -418 162 -713 70 -231 294 -883 344
-1003 28 -67 65 -174 81 -238 17 -64 51 -163 76 -221 50 -117 47 -92 64 -467
10 -215 9 -244 -5 -265 -9 -14 -23 -74 -31 -134 -20 -149 -27 -169 -83 -228
-27 -29 -57 -66 -66 -84 -19 -38 -21 -105 -3 -121 21 -17 754 -37 890 -24 59
5 113 15 120 22 9 9 11 100 9 368 -3 344 -2 356 18 395 21 40 21 42 4 142 -21
125 -46 200 -83 246 -42 53 -46 63 -90 240 -88 361 -97 454 -111 1265 -11 595
-16 667 -61 852 -16 68 -33 162 -38 210 -5 49 -14 108 -20 133 -17 74 -42 368
-35 413 21 145 88 502 104 557 10 36 23 87 27 115 8 46 12 52 53 73 25 13 48
29 52 35 4 7 8 64 8 128 0 97 4 129 25 193 14 42 25 86 25 97 0 31 19 59 40
59 24 0 40 -28 40 -69 0 -17 12 -90 26 -163 14 -73 31 -188 38 -256 18 -171
14 -167 199 -166 151 2 311 23 547 73 74 16 138 26 142 22 3 -3 22 -54 41
-112 20 -59 56 -148 81 -198 47 -92 55 -124 35 -137 -8 -5 -9 -30 -3 -88 8
-84 8 -171 3 -731 -5 -442 10 -578 115 -1077 26 -120 41 -233 56 -400 11 -128
25 -291 31 -361 8 -95 9 -135 0 -153 -15 -33 -14 -84 3 -174 8 -41 20 -131 26
-199 6 -68 22 -165 35 -215 27 -104 36 -258 17 -293 -7 -12 -23 -70 -37 -128
-14 -59 -32 -122 -40 -142 -8 -19 -17 -83 -20 -141 -4 -59 -11 -148 -16 -199
-12 -123 -11 -166 4 -186 15 -21 116 -46 182 -46 28 0 403 1 835 2 432 1 799
6 815 10 17 4 40 9 51 12 30 7 49 58 49 130 0 120 -36 154 -243 230 -162 60
-303 132 -369 190 -40 35 -64 70 -108 155 -52 102 -59 112 -104 135 -27 13
-51 31 -54 39 -10 25 38 54 101 61 121 13 124 13 120 43 l-3 27 -205 5 -205 5
-6 45 c-3 25 -12 59 -20 75 -12 25 -14 67 -9 250 l6 220 47 90 c42 81 49 102
63 210 9 66 38 255 65 420 27 165 54 352 59 415 19 226 35 578 33 740 -2 158
-8 222 -49 497 -15 102 -16 132 -7 178 11 51 10 64 -13 137 -39 123 -54 205
-54 303 0 70 -4 96 -17 115 -16 22 -19 59 -23 290 -4 186 -10 274 -19 295 -10
23 -10 44 -2 95 6 36 20 211 30 390 22 366 21 387 -35 692 -38 207 -64 412
-64 503 0 33 -9 105 -19 160 -11 55 -27 174 -36 265 -28 289 -39 333 -120 465
-40 66 -55 100 -55 126 0 20 -7 70 -15 110 -8 41 -19 135 -25 209 -14 173 -52
377 -89 477 l-29 78 47 51 c53 58 81 99 141 207 24 43 86 130 138 195 170 213
216 290 268 452 47 145 124 307 196 410 30 44 38 65 38 100 0 57 25 224 46
315 9 39 48 142 86 230 149 343 189 439 223 543 41 122 228 841 246 946 17
101 6 188 -51 401 -80 297 -99 362 -150 490 -26 66 -60 160 -75 208 -39 125
-81 197 -340 578 l-109 162 -6 96 -6 96 -56 80 c-63 91 -157 246 -212 352 -21
40 -48 79 -60 87 -13 8 -85 74 -161 146 -147 139 -299 249 -420 305 -96 44
-334 134 -664 250 -151 53 -335 121 -409 151 -97 40 -154 57 -209 64 -41 4
-79 12 -84 17 -5 5 -12 52 -16 104 l-6 94 38 59 c54 85 69 123 75 200 l5 69
47 12 c62 15 73 26 99 93 21 56 31 169 42 497 1 44 5 86 7 94 3 9 -6 17 -24
22 -23 6 -32 3 -52 -18 -33 -36 -44 -20 -33 47 20 114 15 228 -14 347 -15 61
-31 153 -36 203 -5 50 -13 96 -20 103 -6 6 -11 23 -11 38 0 15 -4 31 -10 34
-5 3 -10 19 -10 34 0 16 -7 34 -15 41 -8 7 -15 20 -15 30 0 41 -33 107 -70
142 -22 21 -40 44 -40 51 0 8 -7 20 -15 27 -9 7 -25 34 -36 59 -51 117 -74
151 -103 151 -11 1 -38 7 -58 14 -26 9 -40 10 -47 3 -8 -8 -18 -4 -34 11 -26
24 -53 29 -60 10 -3 -10 -9 -8 -24 5 -11 10 -27 15 -36 11 -9 -3 -26 1 -39 10
-24 17 -30 17 -93 7z m2060 -5021 c15 -70 304 -477 367 -516 21 -14 61 -60 95
-109 32 -47 65 -88 74 -90 9 -3 27 -1 40 5 22 10 30 5 83 -46 l59 -57 -6 -81
c-3 -45 -24 -165 -46 -268 -71 -327 -101 -532 -101 -699 0 -163 -10 -228 -71
-472 -110 -439 -233 -672 -399 -757 -59 -30 -321 -117 -367 -122 -28 -3 -28
-2 -31 56 -2 34 10 136 29 245 31 184 31 188 23 376 -12 257 -10 547 5 680 6
61 27 238 46 395 19 157 48 418 65 580 54 535 93 875 102 898 10 29 24 21 33
-18z m-4322 -715 c37 -115 89 -291 117 -390 124 -437 185 -606 291 -796 96
-174 140 -280 178 -424 20 -76 50 -157 84 -224 l52 -106 0 -115 0 -115 -80 -6
c-44 -4 -127 -12 -184 -20 -116 -14 -245 -2 -311 29 -34 16 -158 139 -255 252
-170 199 -339 534 -385 761 -25 124 -85 308 -134 410 -36 78 -123 218 -158
256 l-21 22 48 53 c73 81 116 151 122 200 5 35 18 56 68 113 65 73 77 81 159
110 31 11 66 35 95 65 46 47 106 91 184 136 33 18 44 21 53 11 6 -7 41 -106
77 -222z"/>
</g>
</svg>
