<svg width="284" height="494" viewBox="0 0 284 494" fill="none" xmlns="http://www.w3.org/2000/svg">
<path d="M164.667 0.800072C163.2 1.20007 159.867 2.53341 157.334 3.73341C154.8 4.93341 151.067 5.73341 148.934 5.46674C146.8 5.33341 145.067 5.86674 144.534 7.06674C144.134 8.13341 141.467 10.0001 138.667 11.3334C134.8 13.0667 132.934 15.0667 131.334 19.2001L129.067 24.6667L132.667 27.3334C141.734 33.8667 141.6 33.7334 140.134 37.7334C138.267 42.6667 138.267 48.9334 140.134 50.1334C140.934 50.5334 141.334 52.6667 140.8 54.8001C140 59.2001 141.867 71.2001 144.267 75.7334C145.6 78.4001 145.334 79.2001 141.2 82.6667C134.934 88.1334 128.8 90.8001 119.6 92.0001C111.067 93.2001 107.6 96.0001 108.534 101.067C108.8 103.067 107.867 104.933 105.734 106.667C104 108 102.667 110 102.8 110.933C103.334 114.267 100.8 120.933 89.8671 143.333C77.0671 169.733 74.1338 178.8 71.4671 200.667C70.2671 209.467 68.5338 219.6 67.3338 223.333C66.2671 226.933 65.3338 231.733 65.3338 234C65.3338 236.133 64.5338 239.333 63.6005 240.8C56.4005 253.2 56.0005 254.4 57.2005 260.4C58.4005 267.2 62.8005 274.133 66.8005 275.333C68.2671 275.867 71.0671 277.867 73.0671 279.733L76.6671 283.333L77.0671 280C77.3338 278.267 78.4005 276.133 79.3338 275.333C82.4005 273.067 85.7338 256.667 84.8005 248.933C82.0005 225.6 81.4671 228.533 91.8671 206.8C97.0671 196 102.534 182.4 104 176.533C108.134 160.4 109.334 157.467 112 156.667C113.467 156.267 115.867 154.267 117.334 152.4C118.8 150.4 120 149.733 120 150.8C120 155.467 116.934 170.8 114.534 178.667C113.067 183.467 111.2 191.867 110.534 197.333C109.734 202.8 108.667 211.067 108 215.733C107.467 220.267 106.267 224.8 105.6 225.733C104.8 226.667 104.134 232 104.267 237.467C104.267 246.4 103.734 248.533 100.134 255.067C97.8671 259.2 96.0005 263.6 96.0005 264.8C96.0005 266 94.8005 268.933 93.4671 271.2C90.1338 276.667 83.2005 297.067 80.6671 308.667C79.6005 313.867 78.6671 322.133 78.6671 327.333C78.5338 332.667 77.6005 339.467 76.1338 343.333C73.7338 350.4 73.4671 350.533 61.3338 353.467C51.7338 355.867 46.4005 362.267 41.4671 377.733C39.2005 384.933 35.4671 395.2 33.2005 400.4C29.7338 408.933 28.5338 410.4 23.2005 413.333C15.6005 417.2 14.2671 419.333 11.3338 431.867C10.1338 437.333 6.93379 446.4 4.40046 451.867C0.133789 461.067 -0.132878 462.933 0.267122 472.267C0.800456 483.867 3.46712 489.2 9.86712 490.8C18.1338 493.067 23.0671 488 26.2671 473.733C27.3338 468.8 30.6671 459.6 33.4671 453.467C36.2671 447.333 38.6671 441.333 38.6671 440.267C38.6671 439.067 39.7338 436.933 41.0671 435.467C42.5338 433.867 44.2671 429.2 45.2005 424.933C46.6671 418.267 47.6005 416.8 51.7338 414.133C54.4005 412.4 63.6005 404.267 71.8671 396.133C80.2671 387.867 89.3338 380 91.8671 378.4C100.4 373.333 104.134 368.933 110.934 355.6C114.667 348.4 118.267 341.867 119.2 340.933C120 340 121.734 336.933 123.067 334C127.734 324.133 135.467 315.2 141.334 313.467C144.267 312.667 148.267 310.533 150.267 308.8L153.867 305.733L159.867 323.867C163.067 333.733 166.534 342.667 167.467 343.6C168.4 344.533 169.467 346.933 169.867 348.933C173.334 367.6 171.734 375.333 162.8 384.667C154.4 393.333 152.134 398 150.667 409.733C149.467 420.667 143.334 436.8 137.6 443.867C131.334 451.867 124.4 464.4 123.467 469.467C122.667 473.6 123.2 474.8 127.334 479.067C130.667 482.4 132 485.067 132 488C132 491.067 132.8 492.4 135.067 493.067C138.134 494.267 161.334 493.733 162.534 492.533C162.934 492.133 162.134 489.867 160.8 487.6C156.534 480.4 154.934 476.8 154 472.4C153.334 468.8 153.6 468.133 156 467.733C160.134 467.067 159.867 464.667 155.6 464.267C152.134 463.867 151.867 463.467 152.8 459.6C154.134 452.933 156.8 448.667 162 444.533C171.734 436.8 187.067 421.867 191.734 415.467C194.934 411.067 197.334 405.467 199.334 398C200.934 391.867 203.867 384.4 205.867 381.467C208.934 377.067 209.6 374.8 209.334 369.067C208.934 356.267 209.2 354.4 212.4 348.8C217.467 340.133 219.867 328.8 221.334 306.667C222 295.333 223.067 283.867 223.467 281.2C223.867 278.267 223.334 273.6 221.867 269.467C220.267 264.267 219.867 260.133 220.534 253.333C221.067 247.733 220.8 243.867 220 243.333C219.067 242.8 219.2 241.467 220.267 239.6C221.467 237.6 221.867 231.333 221.734 220C221.6 210.667 222.267 199.733 223.2 195.333L224.8 187.333L227.067 191.6C228.267 194 229.334 196.8 229.334 197.867C229.334 200.667 234.667 210.667 236.134 210.667C236.8 210.667 237.334 211.733 237.334 213.067C237.334 215.333 238.4 215.467 251.734 215.067C264 214.533 266.934 214 273.334 210.8C277.334 208.8 281.334 205.6 282.267 203.867C284.934 198.8 283.067 187.467 277.867 176.533C275.334 171.067 272.267 164.133 271.2 161.067C270.134 158 268.534 154.533 267.467 153.333C264.534 149.867 259.734 137.067 257.867 128C256.934 123.2 254 114.667 251.2 108.8C247.334 100.667 245.334 98.0001 242.134 96.6667C239.867 95.6001 232.667 91.8667 226 88.1334C219.467 84.4001 210.934 80.4001 207.2 79.3334C194.134 75.6001 192.934 69.2001 201.734 50.1334C205.067 43.0667 206.934 36.9334 207.334 31.2001C208.267 21.2001 206.667 17.3334 201.867 17.3334C199.867 17.3334 197.334 16.0001 195.6 13.7334C189.2 6.00007 185.2 2.93341 180.4 2.26674C169.067 0.400072 167.2 0.266739 164.667 0.800072ZM239.334 162.267C242.667 165.6 256 190.267 256 192.933C256 193.867 255.6 194.667 255.067 194.667C253.467 194.667 249.334 190.267 249.334 188.667C249.334 187.733 247.867 186.533 246 186.133C244.134 185.6 242.667 184.4 242.667 183.467C242.667 180.4 239.067 180 235.6 182.667C232.667 184.933 226.667 185.067 226.667 182.8C226.667 180.267 230.8 161.333 232 158C233.467 154.267 233.6 154.133 234.934 156.667C235.734 158.133 237.734 160.667 239.334 162.267ZM77.3338 263.2C77.3338 266.667 75.3338 268.933 74.1338 266.933C73.2005 265.333 74.6671 260 76.1338 260C76.8005 260 77.3338 261.467 77.3338 263.2Z" fill="black"/>
</svg>
