<svg width="339" height="768" viewBox="0 0 339 768" fill="none" xmlns="http://www.w3.org/2000/svg">
<path d="M109 3.06663C104.2 4.66663 98.0667 7.7333 95.2667 9.99997C89.1333 14.8 78.4667 28.5333 77.8 32.5333C74.6 49.8666 74.2 54 75.1333 64.1333C75.9333 73.4666 76.6 76 79.5333 79.3333C81.4 81.6 84.0667 85.8666 85.4 88.8C86.8667 91.8666 89.2667 95.0666 90.8667 96C92.6 96.8 94.6 99.7333 95.5333 102.267C96.6 104.933 99.8 109.6 103 112.667C107.533 117.333 108.733 119.467 109.267 124.533C109.933 129.733 109.533 131.067 107.267 132.667C105.8 133.733 104.067 134.267 103.533 133.867C103 133.6 98.3333 135.333 93.4 137.867C88.4667 140.4 81 144 77 145.867C56.4667 155.333 52.2 159.067 45 174.133C41.9333 180.267 37.1333 187.867 34.2 191.067C31.4 194.133 25.5333 201.733 21.4 208C17.2667 214.267 11.1333 222.133 7.79999 225.6C4.46666 229.2 1.66666 233.467 1.39999 235.6C1.13333 237.6 0.599992 241.733 0.199992 244.8C-0.333341 248.933 0.199992 251.733 2.33333 255.867C7.39999 266 39.6667 309.733 50.7333 321.6C53.2667 324.4 56.8667 328.533 58.6 330.933C62.0667 335.333 81.1333 348 84.4667 348C87.1333 348 87.5333 349.467 89 363.467C90.0667 373.067 89.9333 380.267 88.7333 389.867L87.1333 403.067L91.5333 406.8C94.2 409.067 96.3333 412.267 97.1333 415.467C97.6667 418.4 98.3333 438.8 98.3333 460.933V501.2L103.4 501.6L108.333 502L109.133 526.8C109.667 540.4 110.467 552.933 111.133 554.8C111.667 556.533 112.2 568.8 112.333 582C112.6 605.2 113.133 611.467 117.8 643.333C122.2 672.533 121.533 689.333 116.333 689.333C114.6 689.333 114.333 690.267 115.133 693.867C115.8 697.867 115.267 699.067 110.467 704.4C107.4 707.6 105 711.2 105 712.267C105 713.333 103.4 716.667 101.4 719.467C96.8667 726.267 96.4667 734.667 100.6 738.533C107.133 744.667 132.333 740.133 139.933 731.467C141.933 729.2 144.333 727.333 145.4 727.333C146.333 727.333 149 725.733 151.4 723.733C156.867 719.2 158.467 708.933 155.267 699.067C149.933 682.667 149 656.533 151.8 609.867C152.6 596.667 153.4 577.333 153.667 566.667C153.8 556 154.733 541.867 155.533 535.333C156.333 528.667 157.4 517.467 157.8 510.4L158.733 497.467L163.533 496.4L168.333 495.2V479.333C168.333 449.6 169 432.667 170.333 430.667C171.4 429.067 173.133 430.267 180.067 437.333C184.6 442.133 191.667 449.733 195.667 454.4C199.667 458.933 203.267 462.667 203.667 462.667C204.067 462.667 207.267 460 210.733 456.667C214.333 453.333 217.667 450.667 218.467 450.667C219.133 450.667 219.667 453.467 219.667 456.933C219.533 466.267 216.333 495.067 215.267 496.933C214.733 497.867 215.133 505.6 216.333 514.267C219.533 537.6 220.733 549.2 222.467 571.6C223.933 589.2 223.8 593.867 221.933 606.933C219.133 626.133 220.333 648.933 224.467 653.467C228.6 658.133 231 658.8 235.133 656.667C237.267 655.6 239 654.933 239.267 655.2C239.4 655.333 236.6 658.667 232.867 662.533C228.6 666.933 224.2 673.6 221.267 679.867C216.6 689.6 216.467 690.533 216.467 704.667C216.467 717.467 216.867 720.4 220.067 727.733C227.4 745.333 240.733 757.733 258.333 763.333C262.333 764.667 266.733 766.133 267.933 766.8C271.133 768.4 286.333 768.267 286.333 766.667C286.333 765.867 287.4 765.333 288.733 765.333C289.933 765.333 294.067 764.267 297.667 762.933C335.133 749.2 350.067 704.267 328.2 671.333C320.067 658.933 308.733 650.533 294.2 646C288.2 644.133 286.867 643.2 287.267 641.2C287.667 639.867 289.667 638.267 291.8 637.467C297.933 635.333 301.933 621.6 297.933 615.6C295.933 612.533 294.2 612 274.067 608C267.267 606.667 266.333 606.133 266.333 603.333C266.333 600.933 265.533 600.133 262.733 599.733L259 599.333L259.133 586C259.133 574.133 260.6 555.2 265 508.533C265.8 500.533 266.067 492.933 265.667 491.733C265.133 490.533 265.8 480.133 266.867 468.533C269.8 439.067 269.667 420.933 266.333 413.6C264.733 410.133 264.067 406.4 264.467 404.267C265.133 401.067 263.267 398.267 251.933 384.4C233.4 361.867 230.333 357.067 232.067 353.867C232.867 352.533 233.533 350.4 233.667 349.333C233.8 348.267 239.133 341.867 245.533 335.333C257 323.6 257.533 322.8 271.667 294C299.533 236.933 299.933 236.133 297 227.067C296.067 224.267 292.467 217.6 288.867 212.133C285.267 206.667 282.333 200.933 282.333 199.333C282.333 197.333 280.6 195.067 277.4 192.667C274.6 190.667 262.733 179.333 251 167.467C230.2 146.4 229.267 145.6 215.667 138.933C203.267 132.933 189 128.4 173.667 125.867C165.133 124.4 163.8 123.867 159.8 120.533C156.333 117.733 155.667 116.133 155.667 111.467C155.667 105.733 156.867 104.4 163.8 102.267C166.333 101.467 167.533 97.3333 168.867 84.1333C169.667 76.4 170.467 73.8666 172.867 72.1333C175.533 70 175.667 69.4666 174.333 60.6666C173.667 55.4666 173 47.8666 173 43.6C173 33.7333 170.867 29.0666 162.067 19.8666C157 14.5333 153.267 12 149 10.8C145.667 9.86664 140.867 7.59997 138.2 5.86664C128.6 -0.666699 121.8 -1.33337 109 3.06663ZM231.8 228.667C241.4 233.467 249.933 237.333 250.733 237.333C251.533 237.333 253.133 236.4 254.467 235.2C256.467 233.467 257.533 233.333 261.533 234.667C264.2 235.467 266.6 236.667 266.867 237.2C269.133 240.8 251.533 283.067 240.067 301.6C237 306.667 236.867 306.667 228.333 306.667C223.533 306.667 217.533 307.467 215.133 308.533L210.6 310.4L209.667 282.933C208.067 232.667 208.2 224.667 210.2 222.267C211.133 221.067 212.467 220 213.133 220C213.8 220 222.067 223.867 231.8 228.667ZM72.3333 235.2C78.3333 237.733 79.1333 239.867 80.2 254.533C80.7333 261.467 81.9333 271.2 83 276.267C84.0667 281.333 85 289.733 85 294.8V304H80.2C69.6667 304 65.6667 301.6 56.0667 289.6C47.1333 278.4 44.4667 274.4 39.5333 265.6C36.4667 260.267 36.2 254.667 39 254.667C40.0667 254.667 42.3333 253.067 44.0667 251.067C59 233.067 62.4667 231.2 72.3333 235.2ZM290.333 650.933C291.8 653.333 294.2 657.733 295.8 660.667L298.733 666L293.4 674.667L288.067 683.333H276.867C267.133 683.333 265.533 683.067 264.333 680.667C263.533 679.2 261.267 675.2 259.267 671.733L255.533 665.6L258.067 661.067C259.533 658.667 261.933 654.4 263.667 651.6L266.6 646.667H277.133C287.667 646.667 287.667 646.667 290.333 650.933ZM258.333 674.933C261.267 679.6 263.667 684.133 263.667 685.067C263.667 687.067 255.667 701.6 253.8 702.933C253 703.467 248.2 704 243 704C237.933 704 233 703.467 232.2 702.933C231.4 702.4 228.733 698.267 226.2 693.733L221.667 685.467L225 679.2C231.267 667.2 231.933 666.667 243 666.667H253L258.333 674.933ZM327.267 676.133L332.733 685.467L327.4 694.8L321.933 704H311H300.2L297.267 698.267C295.667 695.2 293.267 691.067 292.067 688.933C290.067 685.867 289.933 684.933 291.533 682.533C292.467 680.933 294.467 677.467 295.933 674.8C300.467 666.8 300.6 666.667 311.533 666.667H321.8L327.267 676.133ZM257.533 712.267C264.2 722.8 264.2 723.6 258.6 733.333L253.533 742L245 742.4C233.533 742.933 231.267 742.267 228.6 737.067C227.4 734.667 225.133 730.667 223.533 728.133L220.867 723.733L226.333 714.533L231.8 705.333H242.467H253L257.533 712.267ZM324.733 710.933C326.2 713.333 328.6 717.6 330.2 720.267L332.867 725.2L328.467 732.667C321.4 744.267 321.8 744 310.867 744C299.8 744 300.6 744.533 292.733 729.867L289.8 724.4L295 715.467L300.2 706.667H311.133C322.067 706.667 322.067 706.667 324.733 710.933ZM293 733.6C295.933 738.267 298.333 742.8 298.333 743.867C298.333 744.933 296.067 749.6 293.4 754.267L288.333 762.667H277.667H266.867L261.933 754C259.267 749.333 257 744.8 257 744C257 742.267 263.267 731.067 266.067 727.6C267.667 725.867 270.2 725.333 277.933 725.333H287.8L293 733.6Z" fill="black"/>
</svg>
