<svg width="150" height="450" viewBox="0 0 150 450" fill="none" xmlns="http://www.w3.org/2000/svg">
<path d="M34.0827 187.071C37.751 180.323 41.3366 173.934 44.6465 167.405C46.778 163.201 45.9154 158.593 45.5894 154.136C45.4434 152.141 43.6101 151.72 41.9986 151.171C32.7906 148.037 32.8886 148.039 34.5827 138.861C36.3647 129.207 38.4501 119.568 39.4618 109.825C40.3639 101.137 44.5749 95.881 52.3651 92.5782C56.8737 90.6666 61.7757 89.2428 65.3266 85.6176C59.5943 77.2639 55.9982 68.5707 54.6396 58.5308C54.0104 53.8811 51.9794 48.9261 50.2607 44.221C49.7567 42.8411 48.3472 41.4658 49.62 40.1162C52.6106 36.945 51.1689 33.9857 50.2135 30.4607C48.6403 24.6565 51.6005 19.1909 53.1792 13.7138C53.5979 12.2613 55.5649 12.0484 57.1351 12.2578C60.9036 12.7604 61.9952 11.0176 61.2153 7.56058C60.4653 4.23571 62.1045 1.71424 65.1962 2.17975C71.7008 3.15915 77.7896 0.993276 84.0603 0.478208C89.7954 0.00713059 93.6851 3.09873 98.1561 5.29197C99.3407 5.87306 100.646 7.60468 101.448 7.35705C110.898 4.43732 115.57 15.1716 124.083 15.0794C127.643 15.0409 129.301 18.8015 131.616 21.0238C132.723 22.0861 132.48 24.1213 131.199 25.1157C124.592 30.2412 126.875 37.4951 126.925 43.9559C126.962 48.7206 128.509 53.422 125.525 57.8924C124.827 58.9387 124.514 60.4344 124.513 61.7236C124.508 70.4281 118.605 75.8896 113.573 81.8092C112.639 82.9074 111.253 83.6209 109.886 84.6555C113.021 88.7767 116.36 92.4699 120.634 95.0971C124.545 97.5013 127.33 101.022 130.624 104.049C139.784 112.467 140.197 124.266 142.814 135.067C143.894 139.521 142.838 144.717 141.874 149.394C139.746 159.716 141.083 169.969 141.762 180.236C142.182 186.593 142.614 192.904 140.42 199.021C136.903 208.825 137.905 219.148 137.445 229.194C137.049 237.821 135.917 246.427 136.09 255.092C136.161 258.648 134.795 261.949 133.183 265.086C128.161 274.857 125.836 285.391 124.352 296.16C124.008 298.654 124.255 301.136 124.711 303.618C124.947 304.902 125.39 306.695 124.765 307.499C121.076 312.24 122.939 317.037 125.294 321.002C135.416 338.038 135.609 356.889 135.957 375.714C136.103 383.651 136.946 390.817 141.927 397.784C147.498 405.575 148.812 415.296 149.192 424.896C149.26 426.639 148.924 428.558 147.651 429.511C141.473 434.14 137.113 441.946 126.956 439.212C118.886 437.039 117.69 436.34 118.393 427.855C118.749 423.553 119.181 419.078 118.393 414.904C117.289 409.058 117.05 403.552 118.674 397.737C122.385 384.448 117.62 372.32 112.079 360.717C109.118 354.517 107.682 348.19 106.909 341.598C106.526 338.321 105.755 335.302 103.63 332.873C98.261 326.74 95.2158 319.699 95.0039 311.558C94.9121 308.032 93.249 306.814 89.9833 307.14C89.4887 307.189 88.9841 307.142 88.4842 307.134C79.7694 306.985 79.815 306.993 78.2878 315.447C77.8155 318.062 77.2918 320.726 76.3225 323.182C73.4459 330.47 72.5851 338.013 73.1109 345.739C73.7642 355.336 69.0667 363.879 67.9116 373.116C66.5698 383.845 64.7193 394.514 64.1243 405.332C63.9265 408.928 64.8544 412.167 66.6226 415.343C71.4488 424.014 70.1155 430.715 64.0868 438.807C58.0716 446.881 50.5845 450.148 40.8073 449.313C32.7571 448.625 29.7715 444.635 33.2426 437.307C36.2094 431.045 38.6823 424.183 43.6675 419.241C48.5702 414.38 49.3292 408.851 48.4423 402.749C46.6418 390.361 46.0569 377.907 45.6077 365.417C45.1978 354.023 46.2388 342.823 48.4698 331.664C51.6867 315.574 52.3274 299.292 51.7348 282.927C51.5722 278.436 51.672 273.927 51.8359 269.433C51.9611 266.001 50.7222 264.974 47.3382 265.906C34.9807 269.309 24.4893 264.633 14.4636 258.067C9.88073 255.066 7.42036 250.288 5.5955 245.618C1.96464 236.328 -2.12391 226.877 2.37472 216.483C3.69353 213.436 5.3951 211.127 8.07349 209.187C12.5309 205.96 18.2335 203.849 19.3308 197.298C19.5555 195.956 21.267 194.937 22.5178 195.602C27.4357 198.218 28.9459 194.405 30.9888 191.446C31.9354 190.075 32.9173 188.729 34.0827 187.071ZM50.8578 198.716C52.9933 199.426 54.732 201.36 57.715 200.766C59.6988 194.892 60.8838 188.79 60.3604 182.285C56.0323 186.533 52.1435 190.93 48.4506 195.485C46.7715 197.556 49.0581 197.805 50.8578 198.716Z" fill="black"/>
</svg>
