<?xml version="1.0" standalone="no"?>
<!DOCTYPE svg PUBLIC "-//W3C//DTD SVG 20010904//EN"
 "http://www.w3.org/TR/2001/REC-SVG-20010904/DTD/svg10.dtd">
<svg version="1.0" xmlns="http://www.w3.org/2000/svg"
 width="402.000000pt" height="621.000000pt" viewBox="0 0 402.000000 621.000000"
 preserveAspectRatio="xMidYMid meet">

<g transform="translate(0.000000,621.000000) scale(0.100000,-0.100000)"
fill="#000000" stroke="none">
<path d="M1560 6187 c-36 -12 -82 -35 -103 -52 -46 -36 -126 -139 -131 -169
-24 -130 -27 -161 -20 -237 6 -70 11 -89 33 -114 14 -17 34 -49 44 -71 11 -23
29 -47 41 -54 13 -6 28 -28 35 -47 8 -20 32 -55 56 -78 34 -35 43 -51 47 -89
5 -39 2 -49 -15 -61 -11 -8 -24 -12 -28 -9 -4 2 -39 -11 -76 -30 -37 -19 -93
-46 -123 -60 -154 -71 -186 -99 -240 -212 -23 -46 -59 -103 -81 -127 -21 -23
-65 -80 -96 -127 -31 -47 -77 -106 -102 -132 -25 -27 -46 -59 -48 -75 -2 -15
-6 -46 -9 -69 -4 -31 0 -52 16 -83 38 -76 280 -404 363 -493 19 -21 46 -52 59
-70 26 -33 169 -128 194 -128 20 0 23 -11 34 -116 8 -72 7 -126 -2 -198 l-12
-99 33 -28 c20 -17 36 -41 42 -65 4 -22 9 -175 9 -341 l0 -302 38 -3 37 -3 6
-186 c4 -102 10 -196 15 -210 4 -13 8 -105 9 -204 2 -174 6 -221 41 -460 33
-219 28 -345 -11 -345 -13 0 -15 -7 -9 -34 5 -30 1 -39 -35 -79 -23 -24 -41
-51 -41 -59 0 -8 -12 -33 -27 -54 -34 -51 -37 -114 -6 -143 49 -46 238 -12
295 53 15 17 33 31 41 31 7 0 27 12 45 27 41 34 53 111 29 185 -40 123 -47
319 -26 669 6 99 12 244 14 324 1 80 8 186 14 235 6 50 14 134 17 187 l7 97
36 8 36 9 0 119 c0 223 5 350 15 365 8 12 21 3 73 -50 34 -36 87 -93 117 -128
30 -34 57 -62 60 -62 3 0 27 20 53 45 27 25 52 45 58 45 5 0 9 -21 9 -47 -1
-70 -25 -286 -33 -300 -4 -7 -1 -65 8 -130 24 -175 33 -262 46 -430 11 -132
10 -167 -4 -265 -21 -144 -12 -315 19 -349 31 -35 49 -40 80 -24 16 8 29 13
31 11 1 -1 -20 -26 -48 -55 -32 -33 -65 -83 -87 -130 -35 -73 -36 -80 -36
-186 0 -96 3 -118 27 -173 55 -132 155 -225 287 -267 30 -10 63 -21 72 -26 24
-12 138 -11 138 1 0 6 8 10 18 10 9 0 40 8 67 18 281 103 393 440 229 687 -61
93 -146 156 -255 190 -45 14 -55 21 -52 36 3 10 18 22 34 28 46 16 76 119 46
164 -15 23 -28 27 -179 57 -51 10 -58 14 -58 35 0 18 -6 24 -27 27 l-28 3 1
100 c0 89 11 231 44 581 6 60 8 117 5 126 -4 9 1 87 9 174 22 221 21 357 -4
412 -12 26 -17 54 -14 70 5 24 -9 45 -94 149 -139 169 -162 205 -149 229 6 10
11 26 12 34 1 8 41 56 89 105 86 88 90 94 196 310 209 428 212 434 190 502 -7
21 -34 71 -61 112 -27 41 -49 84 -49 96 0 15 -13 32 -37 50 -21 15 -110 100
-198 189 -156 158 -163 164 -265 214 -93 45 -200 79 -315 98 -64 11 -74 15
-104 40 -26 21 -31 33 -31 68 0 43 9 53 61 69 19 6 28 37 38 136 6 58 12 77
30 90 20 16 21 20 11 86 -5 39 -10 96 -10 128 0 74 -16 109 -82 178 -38 40
-66 59 -98 68 -25 7 -61 24 -81 37 -72 49 -123 54 -219 21z m921 -1692 c72
-36 136 -65 142 -65 6 0 18 7 28 16 15 13 23 14 53 4 20 -6 38 -15 40 -19 17
-27 -115 -344 -201 -483 -23 -38 -24 -38 -88 -38 -36 0 -81 -6 -99 -14 l-34
-14 -7 206 c-12 377 -11 437 4 455 7 9 17 17 22 17 5 0 67 -29 140 -65z
m-1196 -49 c45 -19 51 -35 59 -145 4 -52 13 -125 21 -163 8 -38 15 -101 15
-139 l0 -69 -36 0 c-79 0 -109 18 -181 108 -67 84 -87 114 -124 180 -23 40
-25 82 -4 82 8 0 25 12 38 27 112 135 138 149 212 119z m1635 -3118 c11 -18
29 -51 41 -73 l22 -40 -40 -65 -40 -65 -84 0 c-73 0 -85 2 -94 20 -6 11 -23
41 -38 67 l-28 46 19 34 c11 18 29 50 42 71 l22 37 79 0 c79 0 79 0 99 -32z
m-240 -180 c22 -35 40 -69 40 -76 0 -15 -60 -124 -74 -134 -6 -4 -42 -8 -81
-8 -38 0 -75 4 -81 8 -6 4 -26 35 -45 69 l-34 62 25 47 c47 90 52 94 135 94
l75 0 40 -62z m517 -9 l41 -70 -40 -70 -41 -69 -82 0 -81 0 -22 43 c-12 23
-30 54 -39 70 -15 23 -16 30 -4 48 7 12 22 38 33 58 34 60 35 61 117 61 l77 0
41 -71z m-523 -271 c50 -79 50 -85 8 -158 l-38 -65 -64 -3 c-86 -4 -103 1
-123 40 -9 18 -26 48 -38 67 l-20 33 41 69 41 69 80 0 79 0 34 -52z m504 10
c11 -18 29 -50 41 -70 l20 -37 -33 -56 c-53 -87 -50 -85 -132 -85 -83 0 -77
-4 -136 106 l-22 41 39 67 39 66 82 0 c82 0 82 0 102 -32z m-238 -170 c22 -35
40 -69 40 -77 0 -8 -17 -43 -37 -78 l-38 -63 -80 0 -81 0 -37 65 c-20 35 -37
69 -37 75 0 13 47 97 68 123 12 13 31 17 89 17 l74 0 39 -62z"/>
</g>
</svg>
