<svg version="1.1" id="Layer_1" xmlns="http://www.w3.org/2000/svg" xmlns:xlink="http://www.w3.org/1999/xlink" x="0px" y="0px"
	 width="100%" viewBox="0 0 400 608" enable-background="new 0 0 400 608" xml:space="preserve">
<path fill="#000000" opacity="1.000000" stroke="none" 
	d="
M146.082642,308.071472 
	C149.750931,301.322968 153.336533,294.933838 156.646484,288.404999 
	C158.778000,284.200531 157.915375,279.592621 157.589340,275.136505 
	C157.443314,273.140869 155.610092,272.719910 153.998535,272.171356 
	C144.790604,269.037018 144.888565,269.039246 146.582687,259.860992 
	C148.364639,250.206985 150.450073,240.568207 151.461792,230.825027 
	C152.363892,222.137421 156.574860,216.881027 164.365097,213.578171 
	C168.873703,211.666626 173.775635,210.242813 177.326553,206.617645 
	C171.594238,198.263947 167.998169,189.570709 166.639603,179.530807 
	C166.010406,174.881073 163.979340,169.926117 162.260696,165.220978 
	C161.756668,163.841125 160.347168,162.465820 161.619965,161.116180 
	C164.610550,157.945023 163.168900,154.985748 162.213470,151.460754 
	C160.640289,145.656479 163.600418,140.190918 165.179169,134.713821 
	C165.597855,133.261353 167.564865,133.048401 169.135010,133.257797 
	C172.903595,133.760376 173.995132,132.017563 173.215286,128.560593 
	C172.465240,125.235718 174.104477,122.714249 177.196136,123.179756 
	C183.700745,124.159164 189.789597,121.993286 196.060287,121.478218 
	C201.795380,121.007141 205.685043,124.098740 210.156082,126.291977 
	C211.340652,126.873070 212.645905,128.604691 213.447464,128.357056 
	C222.897797,125.437332 227.570114,136.171631 236.082550,136.079453 
	C239.643341,136.040863 241.300751,139.801514 243.616409,142.023773 
	C244.723419,143.086121 244.480408,145.121353 243.198715,146.115723 
	C236.592194,151.241165 238.875229,158.495148 238.925400,164.955948 
	C238.962402,169.720566 240.509232,174.422058 237.525024,178.892410 
	C236.826569,179.938705 236.513885,181.434402 236.513153,182.723633 
	C236.508255,191.428101 230.605316,196.889603 225.572906,202.809174 
	C224.639236,203.907455 223.252853,204.620865 221.885620,205.655533 
	C225.020615,209.776749 228.359711,213.469879 232.633469,216.097092 
	C236.544510,218.501343 239.329788,222.022263 242.623932,225.049316 
	C251.783936,233.466568 252.197250,245.265518 254.814453,256.067444 
	C255.893463,260.520905 254.838333,265.716888 253.874222,270.393829 
	C251.746399,280.716156 253.083374,290.968658 253.761826,301.235626 
	C254.181931,307.592865 254.613785,313.904480 252.419617,320.021179 
	C248.902740,329.825134 249.905136,340.147705 249.444672,350.193848 
	C249.049240,358.820770 247.917175,367.426605 248.090363,376.092468 
	C248.161438,379.648254 246.795288,382.949249 245.182846,386.086304 
	C240.160858,395.856720 237.836456,406.390839 236.351898,417.160187 
	C236.008087,419.654297 236.255402,422.135956 236.710938,424.618408 
	C236.946472,425.902100 237.390213,427.695251 236.764557,428.499298 
	C233.075623,433.240234 234.938675,438.037140 237.294098,442.001617 
	C247.415924,459.037872 247.609283,477.888824 247.956512,496.713623 
	C248.102921,504.651154 248.945740,511.817322 253.926804,518.783752 
	C259.497620,526.574951 260.812378,536.295898 261.191559,545.895813 
	C261.260437,547.639465 260.924133,549.557556 259.651001,550.511353 
	C253.473129,555.139526 249.113098,562.945740 238.956299,560.211548 
	C230.886169,558.039062 229.690369,557.340393 230.392487,548.855408 
	C230.748474,544.553345 231.180847,540.077637 230.392899,535.904297 
	C229.289154,530.058472 229.050232,524.551514 230.673981,518.736633 
	C234.384659,505.448151 229.619980,493.320251 224.079102,481.717468 
	C221.118011,475.516785 219.681595,469.189850 218.909424,462.597778 
	C218.525558,459.320618 217.755096,456.301849 215.629578,453.873413 
	C210.260925,447.739746 207.215790,440.699432 207.003876,432.557678 
	C206.912079,429.031860 205.248932,427.813904 201.983307,428.139954 
	C201.488708,428.189331 200.984055,428.142303 200.484161,428.133759 
	C191.769333,427.984650 191.814987,427.992706 190.287796,436.447327 
	C189.815475,439.062103 189.291794,441.725647 188.322479,444.181702 
	C185.445847,451.470367 184.585022,459.013489 185.110901,466.738953 
	C185.764191,476.336273 181.066666,484.878876 179.911530,494.115753 
	C178.569717,504.845490 176.719284,515.514343 176.124298,526.331909 
	C175.926498,529.928284 176.854385,533.166809 178.622543,536.343445 
	C183.448730,545.014099 182.115479,551.715332 176.086731,559.807251 
	C170.071579,567.880920 162.584412,571.148071 152.807251,570.312622 
	C144.757095,569.624695 141.771408,565.635010 145.242584,558.307495 
	C148.209396,552.044739 150.682281,545.182922 155.667496,540.240662 
	C160.570175,535.380249 161.329163,529.850952 160.442291,523.748901 
	C158.641769,511.360626 158.056870,498.906891 157.607635,486.417450 
	C157.197769,475.022766 158.238785,463.822937 160.469772,452.664185 
	C163.686646,436.574249 164.327347,420.291565 163.734772,403.927460 
	C163.572128,399.435577 163.671982,394.926971 163.835907,390.432770 
	C163.961060,387.000946 162.722122,385.974457 159.338165,386.906311 
	C146.980667,390.309235 136.489212,385.632782 126.463593,379.067444 
	C121.880684,376.066284 119.420319,371.287628 117.595459,366.618439 
	C113.964600,357.328186 109.876045,347.877228 114.374680,337.482788 
	C115.693489,334.435577 117.395058,332.126678 120.073448,330.187317 
	C124.530891,326.959717 130.233414,324.848816 131.330780,318.297546 
	C131.555481,316.956085 133.266937,315.936737 134.517761,316.602173 
	C139.435654,319.218292 140.945831,315.404724 142.988770,312.446259 
	C143.935364,311.075470 144.917221,309.729095 146.082642,308.071472 
M162.857712,319.715698 
	C164.993240,320.425964 166.731979,322.360077 169.714935,321.765991 
	C171.698761,315.891602 172.883774,309.790161 172.360397,303.284790 
	C168.032257,307.533386 164.143494,311.929718 160.450562,316.484802 
	C158.771469,318.555908 161.058105,318.805359 162.857712,319.715698 
z"/>
</svg>