<svg width="170" height="484" viewBox="0 0 170 484" fill="none" xmlns="http://www.w3.org/2000/svg">
<path d="M148.696 454.466C144.788 456.315 148.984 458.291 148.037 460.478C143.372 461.647 141.01 464.578 143.338 470.094C139.92 470.695 137.659 471.921 136.078 475.173C134.574 478.266 130.686 479.145 127.268 478.289C123.731 477.404 124.716 474.086 124.646 471.555C124.573 468.891 124.776 466.232 125.89 463.721C129.554 455.462 128.142 447.12 126.069 438.84C125.115 435.03 122.774 431.605 123.57 427.324C123.909 425.499 122.466 423.853 121.341 422.436C118.561 418.938 115.637 415.555 112.058 411.273C109.354 421.799 106.902 431.359 104.437 440.915C104.021 442.526 103.771 444.23 103.059 445.705C98.8738 454.373 99.9797 463.202 102.25 472.008C104.377 480.262 103.306 482.174 94.7362 483.046C89.2781 483.601 83.7241 484.216 78.2917 483.794C69.629 483.12 60.9811 483.848 52.342 483.334C51.1802 483.265 49.9993 483.241 48.8677 483.004C46.9066 482.593 45.5556 481.415 45.2711 479.351C45.0107 477.462 46.1027 476.269 47.5473 475.233C50.7806 472.915 54.7155 472.61 58.344 471.521C71.9686 467.432 77.4081 456.558 81.5786 444.41C83.9812 437.411 84.4089 430.089 85.706 422.906C86.6051 417.927 82.5996 413.914 83.5095 408.836C85.6968 396.63 83.7117 386.162 71.5484 379.366C66.7559 376.687 63.2306 372.289 60.6984 366.798C58.3792 361.768 52.7345 358.904 48.4335 355.274C40.6933 348.741 37.1474 341.565 38.9977 330.834C40.3124 323.211 38.2472 315.002 37.6697 307.056C37.5622 305.577 36.462 304.74 35.4182 303.904C34.1834 302.915 33.1333 301.71 33.617 300.073C35.7646 292.806 34.2647 284.863 36.4688 277.942C40.5361 265.171 43.1218 252.249 44.8299 239.04C45.252 235.775 46.1492 232.486 47.3749 229.427C51.1659 219.966 52.275 210.264 50.828 200.21C50.4934 197.885 50.6681 195.562 51.5332 193.321C53.3959 188.496 52.9126 183.54 52.4503 178.359C50.6646 178.53 50.2327 179.987 49.6741 180.956C41.9012 194.442 31.7898 206.211 22.2339 218.38C20.0322 221.184 18.7094 223.908 19.6733 227.528C20.3389 230.028 19.9637 232.592 18.6751 234.799C16.2476 238.955 17.3092 243.608 16.5039 247.985C16.2624 249.297 17.25 249.998 18.1056 250.856C20.3388 253.094 21.7785 256.158 20.0947 258.856C18.4432 261.503 14.8501 260.703 12.2345 260.244C6.5371 259.244 1.90412 254.029 1.00168 248.283C0.229893 243.369 0.397038 238.71 1.85054 233.686C6.27803 218.383 14.5686 204.724 19.7594 189.829C24.4771 176.292 30.3233 163.31 36.0663 150.224C38.8227 143.944 38.4636 136.658 39.4029 129.804C41.601 113.765 39.9666 97.2852 45.7826 81.5943C48.6516 73.8541 54.812 70.9246 60.8067 67.1972C62.3496 66.2378 64.1515 65.6959 65.698 64.7412C67.7769 63.4579 71.9625 64.7961 72.0738 62.0201C72.2258 58.2314 71.7645 53.9615 69.0971 50.7033C66.8727 47.9863 66.6409 44.568 65.3976 41.5137C64.9483 40.4098 64.9348 38.9077 65.7773 38.1709C70.1295 34.365 68.978 29.3016 68.5452 24.7623C67.2057 10.7126 71.2311 4.41896 84.7842 0.955453C97.3876 -2.26535 110.236 4.84354 114.653 15.1091C115.704 17.5509 115.765 19.6388 115.073 22.2619C113.595 27.8689 111.2 33.2744 114.007 39.5693C115.701 43.3686 113.21 47.6446 110.654 51.1062C106.26 57.0592 107.06 60.3739 113.915 63.0569C122.669 66.4826 130.434 71.6598 138.195 76.75C148.731 83.6604 153.095 94.4251 154.4 106.416C155.254 114.259 157.356 121.729 159.783 129.111C161.38 133.97 161.751 138.985 161.936 143.858C162.381 155.57 165.015 166.872 166.731 178.359C168.521 190.339 167.471 202.614 166.875 214.764C166.201 228.52 165.129 242.232 168.195 255.957C171.544 270.953 168.983 278.372 153.581 288.861C151.908 290 150.274 290.98 149.176 292.741C148.428 293.94 147.276 294.744 145.794 294.06C144.268 293.357 144.422 291.88 144.643 290.569C144.891 289.098 145.393 287.672 145.697 286.209C145.896 285.251 146.372 283.649 145.988 283.378C139.974 279.128 143.07 273.222 143.214 267.992C143.371 262.308 144.725 256.729 147.315 251.651C148.965 248.416 149.335 245.096 149.875 241.624C151.441 231.564 149.933 221.636 148.355 211.866C146.417 199.868 146.082 187.713 143.974 175.757C143.454 172.808 142.888 169.924 141.105 167.149C141.105 170.654 141.073 174.159 141.113 177.664C141.176 183.165 140.915 188.437 138.623 193.754C136.005 199.829 139.172 206.174 139.743 212.383C141.11 227.249 139.826 241.786 135.669 256.094C135.393 257.046 135.095 258.065 134.526 258.849C126.7 269.626 126.938 282.267 126.362 294.662C126.204 298.066 125.93 300.939 122.462 302.529C121.162 303.124 120.623 304.356 120.259 305.699C117.084 317.423 113.323 329.103 114.468 341.461C115.157 348.892 116.631 356.249 117.742 363.641C117.915 364.793 118.344 366.01 118.138 367.099C115.152 382.899 125.546 391.856 135.396 401.119C138.543 404.077 142.33 405.946 146.49 406.438C153.573 407.277 158.829 410.044 160.834 417.378C161.213 418.767 163.004 419.516 162.749 421.655C159.839 422.563 155.379 422.947 159.224 428.012C160.062 429.114 158.761 430.466 157.627 431.302C150.4 436.634 146.849 443.347 149.574 452.487C149.721 452.978 149.179 453.673 148.696 454.466ZM80.0592 323.484C79.869 322.057 79.6788 320.63 79.3384 318.075C75.9349 333.62 75.9349 333.62 79.5345 336.119C80.1547 332.045 81.6408 328.295 80.0592 323.484Z" fill="black"/>
</svg>
