<?xml version="1.0" encoding="UTF-8"?>
<svg version="1.1" xmlns="http://www.w3.org/2000/svg" width="406" height="600">
<path d="M0 0 C6.99373465 5.09733337 12.15696777 10.35192571 14 19 C14.16058667 20.68616 14.30565342 22.37384962 14.4375 24.0625 C14.70674709 27.43062864 15.02738292 29.05265947 16.625 32.125 C18.2522134 35.5273553 18.25820224 37.48360812 17.66015625 41.140625 C17 43 17 43 14.4375 45.3125 C11.18850002 48.89473074 11.54661572 51.21200865 11.7265625 55.890625 C11.86191406 57.42976563 11.86191406 57.42976563 12 59 C12.00241699 59.72832031 12.00483398 60.45664063 12.00732422 61.20703125 C12.09552833 63.62691366 12.29794907 65.68013226 13 68 C15.43505495 70.10388748 17.05318511 71.17890185 19.875 72.5 C20.58172852 72.86327393 21.28845703 73.22654785 22.01660156 73.60083008 C24.32706882 74.77342997 26.65873239 75.89030199 29 77 C30.62243284 77.78507977 32.24482841 78.57023657 33.8671875 79.35546875 C39.75138192 82.17593342 45.64414557 84.97185232 51.625 87.58203125 C64.58210679 93.46131845 69.77557855 104.59015404 74.73046875 117.4296875 C78.8061905 127.86777247 83.59088214 136.25407872 90.65625 144.97265625 C93 148 93 148 93 150 C93.5775 150.28875 94.155 150.5775 94.75 150.875 C96.83333333 151.91666667 98.91666667 152.95833333 101 154 C106.68630253 150.53348911 106.68630253 150.53348911 109.625 144.75 C110.18003105 140.6797723 110.36560062 136.72855974 109.51171875 132.69140625 C108.91933998 129.57576522 108.75730269 126.60801158 108.6875 123.4375 C108.65011719 122.32246094 108.61273438 121.20742187 108.57421875 120.05859375 C109.09185233 116.34018005 110.05876448 115.25229747 113 113 C119.09278281 110.9690724 126.46251391 110.88644247 132.375 113.5625 C140.01732166 118.09715559 144.20773878 125.61506939 146.5625 134.00390625 C147.41007189 137.87095298 148.10931207 141.11095827 147 145 C144.73979587 147.29134868 142.31611546 149.02272744 139.68359375 150.87109375 C136.03209997 153.76783918 133.83021027 157.17485669 131.375 161.09375 C130.694375 162.03734375 130.694375 162.03734375 130 163 C129.34 163 128.68 163 128 163 C127.63261719 163.82757813 127.63261719 163.82757813 127.2578125 164.671875 C122.15203356 174.12232298 112.73821347 185.38501208 102.49609375 189.37890625 C96.55066357 190.85828559 90.59783598 190.79933415 84.75 189 C77.23165333 183.53211152 71.66688963 176.27884941 66 169 C65.0772314 167.85408917 64.15265104 166.70963568 63.2265625 165.56640625 C49.6732921 148.75279735 49.6732921 148.75279735 49 140 C46.87808531 140.78684309 46.87808531 140.78684309 46.32983398 142.63427734 C41.31023508 161.56641573 41.36096411 180.28003588 41.14898682 199.71746826 C41.02623232 209.07969449 40.50998991 218.40626404 39.9375 227.75 C39.3564078 237.40476069 38.8686533 247.01015733 39 256.6875 C39.26118597 276.60802448 37.76616334 296.76321503 35.60986328 316.55908203 C34.89820857 323.19021478 34.43154249 329.57956788 36.0625 336.125 C36.9075583 340.04848497 37.27003388 343.09220345 36 347 C32.31265242 349.45823172 29.30300029 350.01242616 25 351 C22.60132943 370.69481017 21.43933388 390.07169352 21.21386719 409.91882324 C21.17802857 412.66263447 21.12459653 415.40600545 21.07145214 418.14952755 C21.00979924 421.46283248 20.96445518 424.77629073 20.91796875 428.08984375 C20.89518356 429.302202 20.87239838 430.51456024 20.84892273 431.76365662 C20.83843399 432.89086624 20.82794525 434.01807587 20.81713867 435.17944336 C20.80398117 436.1623082 20.79082367 437.14517303 20.77726746 438.15782166 C21.02833492 441.36156765 21.92365912 443.98277791 23 447 C23.85719254 456.4299124 22.43851472 465.81190383 21.0625 475.125 C20.88009766 476.424375 20.69769531 477.72375 20.50976562 479.0625 C19.15648459 488.53054624 19.15648459 488.53054624 18 492 C17.52311463 498.24387123 17.77275187 504.12816403 20 510 C22.77867705 512.26916093 22.77867705 512.26916093 26 514 C32.69090921 520.23471085 34.68983674 526.04721772 36 535 C25.85497092 536.53132514 16.11992799 536.00848373 5.9375 535.0625 C4.99624268 534.97572998 4.05498535 534.88895996 3.08520508 534.79956055 C2.19986084 534.71230713 1.3145166 534.62505371 0.40234375 534.53515625 C-0.39695557 534.456604 -1.19625488 534.37805176 -2.01977539 534.29711914 C-4 534 -4 534 -6 533 C-7.2235771 529.3292687 -6.90597776 526.16363978 -6.625 522.375 C-6.57609619 521.65151367 -6.52719238 520.92802734 -6.47680664 520.18261719 C-6.22011693 516.52407004 -5.90076705 512.88899625 -5.4375 509.25 C-3.38383872 491.62826124 -7.25321291 473.90308549 -10.23510742 456.59619141 C-11.88268897 446.99310898 -13.08885738 437.54202993 -13.5625 427.8125 C-13.62836304 426.4989856 -13.62836304 426.4989856 -13.69555664 425.15893555 C-14.11438756 415.60286966 -14.03063816 406.04360149 -13.87524414 396.48168945 C-13.815197 390.23802909 -14.1453245 384.67293887 -15.55688477 378.60229492 C-16.48905585 373.12790838 -16.11938035 367.53327927 -16 362 C-15.94917999 359.58350849 -15.90704614 357.16681338 -15.875 354.75 C-15.85179687 353.69296875 -15.82859375 352.6359375 -15.8046875 351.546875 C-15.73501143 348.83100893 -15.73501143 348.83100893 -18 347 C-18.05534912 347.86689453 -18.11069824 348.73378906 -18.16772461 349.62695312 C-18.37641564 352.87740821 -18.58727808 356.12770793 -18.79956055 359.37792969 C-18.89058556 360.77826495 -18.98077262 362.17865497 -19.07006836 363.57910156 C-19.52781521 370.74961652 -20.04015577 377.87694547 -21 385 C-21.38605248 390.36882292 -20.9637607 395.56972491 -20.28125 400.90307617 C-17.91914627 419.56410576 -18.79114737 437.65651608 -21.265625 456.2578125 C-22.22411078 463.49891033 -22.71898259 470.70206307 -23 478 C-23.07927734 479.39412109 -23.07927734 479.39412109 -23.16015625 480.81640625 C-23.35069707 486.37522755 -22.57962096 491.49954759 -21.5 496.9375 C-20.22072233 503.50068592 -19.66971902 509.87514355 -19.625 516.5625 C-19.61146484 517.38290771 -19.59792969 518.20331543 -19.58398438 519.04858398 C-19.62249749 524.29118119 -20.06234001 531.06234001 -24 535 C-46.59105579 537.3340249 -46.59105579 537.3340249 -54 534 C-55.55024464 530.89951072 -55.28992015 528.42105782 -55 525 C-53.0625 522.25 -53.0625 522.25 -51 520 C-50.67 519.01 -50.34 518.02 -50 517 C-50.99 517.33 -51.98 517.66 -53 518 C-54 517 -54 517 -54.4375 514.75 C-54 512 -54 512 -51.125 509.25 C-48 507 -48 507 -46 506 C-43.30366247 496.20661714 -45.26511393 486.49019713 -47.875 476.9375 C-50.40425742 467.06445719 -52.03645054 457.52684818 -52.81005859 447.37841797 C-53.16004962 442.99588252 -53.62047624 438.62402602 -54.0625 434.25 C-54.14209961 433.42781982 -54.22169922 432.60563965 -54.30371094 431.75854492 C-54.38008789 430.97713135 -54.45646484 430.19571777 -54.53515625 429.390625 C-54.63389038 428.3701709 -54.63389038 428.3701709 -54.73461914 427.32910156 C-54.94698547 425.46527934 -55.22621009 423.6091221 -55.52734375 421.75756836 C-56.04798566 417.61851894 -56.09104095 413.65079571 -56.02734375 409.48828125 C-56.01288489 407.83569802 -55.99898938 406.18310978 -55.9855957 404.53051758 C-55.97726715 403.67712799 -55.9689386 402.8237384 -55.96035767 401.94448853 C-53.94785323 372.19169681 -53.94785323 372.19169681 -62.43359375 345.26953125 C-64.07305383 343.83936971 -64.07305383 343.83936971 -66.625 342.75 C-69 341 -69 341 -69.9375 337.75 C-70 334 -70 334 -68.890625 330.8828125 C-67.72745939 325.81181859 -68.65596498 322.11908685 -69.8125 317.125 C-71.7778437 307.67717238 -72.83444763 298.64687443 -73 289 C-73.02578125 287.8665918 -73.0515625 286.73318359 -73.078125 285.56542969 C-73.63443487 258.34101564 -70.76334919 232.82989468 -64.72558594 206.23681641 C-63.6505301 201.44102559 -62.65672971 196.63064143 -61.6875 191.8125 C-61.52838135 191.04180176 -61.3692627 190.27110352 -61.20532227 189.47705078 C-57.30474043 170.06645038 -60.15358789 152.94903475 -65 134 C-65.556875 134.556875 -66.11375 135.11375 -66.6875 135.6875 C-67.450625 136.450625 -68.21375 137.21375 -69 138 C-69.76441406 138.77085937 -70.52882813 139.54171875 -71.31640625 140.3359375 C-77.69915183 146.67222933 -84.12315154 152.74030071 -91.73828125 157.56640625 C-94.29253849 159.18542595 -96.7710409 160.89302414 -99.25 162.625 C-100.51070312 163.50285156 -100.51070312 163.50285156 -101.796875 164.3984375 C-104.11599743 166.02593337 -104.11599743 166.02593337 -106.5 168.25 C-111.1417097 171.49919679 -116.55536318 172.55098507 -122.0625 173.5625 C-126.81659972 172.65214048 -130.19746266 169.89019476 -134 167 C-134.62261719 166.54367188 -135.24523437 166.08734375 -135.88671875 165.6171875 C-143.78438423 159.40554049 -148.24456048 150.79129969 -152.52734375 141.89453125 C-155.26946783 136.50483909 -158.72464556 131.6350698 -162.4375 126.875 C-164.49830673 123.08311561 -164.14050533 121.10581917 -163 117 C-161.5625 114.5625 -161.5625 114.5625 -160 113 C-159.34 113 -158.68 113 -158 113 C-157.79375 112.443125 -157.5875 111.88625 -157.375 111.3125 C-154.89188155 107.13634624 -151.45714784 104.66521966 -147.125 102.6875 C-139.51452912 101.01319641 -132.18607794 102.00952036 -125 105 C-122.67221085 106.88288747 -121.26375846 108.11966334 -120.3984375 111.0078125 C-120.33160504 117.04501135 -122.17900152 120.70578944 -125.58984375 125.640625 C-127.08059299 128.13484256 -127.59955667 130.14113874 -128 133 C-123.38649964 134.21009846 -120.6210882 134.84108634 -116.3046875 132.6015625 C-113.41493926 130.51863856 -110.70076975 128.32258559 -108 126 C-107.14019531 125.278125 -106.28039062 124.55625 -105.39453125 123.8125 C-95.33881794 115.08195821 -87.14683047 104.84250784 -78.9609375 94.3984375 C-74.94987833 89.49248067 -71.0662528 86.17174478 -65.01953125 84.06640625 C-64.04894775 83.72681885 -63.07836426 83.38723145 -62.07836914 83.03735352 C-55.94028336 80.96893203 -49.78126092 78.9651776 -43.609375 77 C-37.97532725 75.16031094 -33.01347135 73.17236605 -28 70 C-28 65.71 -28 61.42 -28 57 C-29.32 56.34 -30.64 55.68 -32 55 C-35.84112791 50.17115349 -37.12704182 46.294013 -36.890625 40.1640625 C-37.0077042 36.77712857 -37.75619345 34.510429 -39 31.375 C-41.54620819 24.08976377 -42.32148046 17.11990966 -39.9375 9.6875 C-30.16705959 -3.86504638 -15.07504849 -8.5500275 0 0 Z " fill="#080808" transform="translate(215,44)"/>
</svg>
