<svg width="250" height="552" viewBox="0 0 250 552" fill="none" xmlns="http://www.w3.org/2000/svg">
<path d="M141.334 3.06672C130.934 6.66672 123.2 12.4001 121.2 18.2667C120.267 21.0667 120.134 27.2001 120.8 34.9334C121.467 44.6667 122.534 48.5334 125.6 54.5334C130.134 62.9334 132.134 76.0001 129.467 79.2001C128.667 80.1334 120 84.5334 110.267 88.8001C100.534 93.0667 90.8005 97.8667 88.4005 99.6001C83.2005 103.333 76.0005 115.333 72.9338 125.333C71.6005 129.333 67.4671 139.2 63.6005 147.067C57.3338 160.267 56.9338 161.6 59.0671 162.8C63.6005 165.467 61.6005 170 47.3338 189.2C42.9338 195.2 36.0005 206.133 32.0005 213.6C26.5338 223.733 23.8671 227.467 21.3338 228.267C19.4671 228.8 14.5338 230.267 10.4005 231.467C-0.666193 234.667 -1.06619 235.6 2.13381 247.733C4.40047 256.8 5.20047 258 8.13381 258.4C12.6671 258.933 23.3338 252.667 27.7338 246.933C32.6671 240.533 36.6671 236.533 60.1338 215.333C64.2671 211.6 69.7338 205.333 72.2671 201.333C80.6671 188.133 88.6671 174.133 91.0671 168C94.4005 159.733 95.6005 158.933 97.4671 163.467C100 169.733 99.6005 226 96.8005 251.333C94.1338 275.867 95.0671 297.733 100 323.2C102.8 337.333 107.867 353.333 110.8 356.8C112.667 359.067 110.534 365.733 104.667 375.467C99.6005 383.867 97.3338 392.667 97.3338 404C97.3338 410.533 96.4005 413.733 92.1338 422.267C88.0005 430.267 85.8671 437.2 82.8005 452.667C77.8671 477.067 73.4671 491.067 68.8005 498C66.9338 500.933 63.8671 505.467 62.1338 508C58.4005 513.6 48.1338 523.067 39.6005 528.933C32.6671 533.733 30.5338 537.467 31.6005 543.067C32.5338 548.133 38.1338 550.667 48.9338 551.067C64.5338 551.6 71.4671 545.867 76.6671 528.533C77.7338 524.8 79.4671 520.933 80.6671 520C81.7338 519.2 83.7338 515.2 85.3338 511.2C89.0671 500.933 91.6005 496.267 108.267 468.133C116.4 454.533 124 441.2 125.067 438.667C126.134 436.133 127.334 427.733 127.867 420.133C128.4 411.2 129.2 406 130.267 405.733C132.4 404.933 136.4 413.067 139.867 425.333C143.6 438.133 146.4 445.467 148.667 448C149.6 449.067 153.467 456.267 157.334 464C161.067 471.733 164.667 478.933 165.334 480.133C166.267 482 165.2 482.4 157.867 483.067C142.4 484.533 128.134 495.067 124.4 507.867C121.2 518.8 122.534 527.867 128.4 536.267C135.734 546.8 140.134 549.333 153.734 550.267C164.667 551.067 172.934 549.867 181.6 546.533C184 545.6 186.667 542.267 189.867 536.133C195.467 525.6 200.267 520 203.867 520C205.334 520 206.8 518.8 207.334 517.467C207.734 516.133 209.334 514.667 210.667 514.267C212.667 513.733 213.334 512.4 213.334 509.467C213.334 502.8 210.134 497.2 202.267 489.6C196.667 484.267 193.867 480.133 190.8 472.933C185.067 459.067 181.467 444.267 180.934 433.067C180.534 424.267 179.734 421.6 171.6 404.8C162.667 386.267 162.667 386.267 162.667 374.667C162.667 365.467 163.067 362.8 164.667 362.133C167.334 361.2 167.2 356.133 164.534 353.2C162.667 351.2 163.2 349.867 170.267 337.333C174.534 329.867 179.067 322.133 180.267 320.267C181.6 318.267 184.934 312.133 187.867 306.667C190.8 301.2 194.934 294.533 197.067 292C200.8 287.6 201.067 287.467 206.267 289.067C213.734 291.333 219.867 291.067 225.334 288.267C229.867 286 230 285.867 230.934 275.333C231.6 268.133 233.734 259.6 237.467 249.333C246.134 224.933 247.867 217.867 248.8 203.333C249.6 192.267 249.2 188.533 247.334 182.8C245.734 177.733 245.334 173.867 245.867 169.2C247.067 160.667 245.334 154.667 238.667 144C235.734 139.2 231.734 130.533 229.867 124.667C227.867 118.4 225.067 112.4 222.934 110.267C219.2 106.267 199.2 93.8667 189.067 89.2001C180.8 85.4667 175.6 80.8001 175.734 77.2001C175.734 75.4667 176.4 66.1334 177.2 56.6667C178.534 39.6001 180 32.5334 183.6 27.3334C187.467 21.7334 184.667 15.4667 175.6 9.60008C172 7.20008 168.134 5.33341 167.2 5.33341C166.134 5.33341 163.334 4.53338 160.934 3.60005C152.8 0.133382 150.134 0.133382 141.334 3.06672ZM211.467 166.8C213.6 169.733 217.2 174.8 219.467 177.867C221.734 180.933 224 185.067 224.534 187.067C224.934 188.933 224.8 200.667 224 212.933C222.4 240.4 219.467 251.2 211.734 258.933C208.8 261.867 205.734 263.867 204.934 263.6C200.267 262.133 198.667 218.8 201.867 185.333C203.067 174 204 163.867 204 162.933C204 159.6 207.6 161.467 211.467 166.8Z" fill="black"/>
</svg>
