<svg width="140" height="453" viewBox="0 0 140 453" fill="none" xmlns="http://www.w3.org/2000/svg">
<path d="M7.33786 117.071C6.4777 114.795 7.38627 113.169 8.20282 111.519C12.7851 102.264 17.4348 93.0409 21.9266 83.7417C29.3348 68.4049 42.9879 62.3157 58.4304 58.6989C62.797 57.6762 67.1297 56.4157 71.362 54.9332C78.8465 52.3116 81.9574 46.7532 80.3224 39.0025C79.7779 36.4212 78.9093 33.8322 77.7348 31.4727C71.2981 18.5421 76.5093 6.59183 90.5028 2.04729C99.8481 -0.98772 108.121 2.27566 116.529 5.69843C120.373 7.26299 123.995 8.95915 125.34 13.0884C126.131 15.5153 125.745 18.3041 126.356 20.8159C127.327 24.7993 128.94 28.4793 126.393 32.6883C125.115 34.8005 126.826 37.5468 127.866 39.8033C129.294 42.9035 128.966 45.6128 126.547 48.0196C124.023 50.5304 122.218 53.3749 121.548 56.9683C120.772 61.1251 118.021 63.9348 114.158 66.0081C116.468 69.6814 119.962 71.4914 123.041 73.4594C134.988 81.0931 140.323 91.5687 139.477 105.865C138.82 116.987 139.363 128.122 135.717 138.945C134.523 142.488 135.176 146.522 135.724 150.346C136.648 156.794 136.967 162.87 133.188 169.069C130.434 173.586 129.686 179.386 128.349 184.691C126.783 190.904 125.162 196.967 119.353 200.79C117.834 201.789 117.53 203.403 117.504 205.186C117.264 221.986 116.789 238.791 115.131 255.51C114.27 264.188 117.921 271.427 120.976 278.928C121.974 281.379 123.088 283.575 120.872 285.775C118.522 288.108 116.008 287.183 113.513 285.93C106.693 282.504 106.178 282.669 104.667 290.269C101.731 305.04 102.292 319.988 102.834 334.908C103.135 343.184 101.619 351.178 99.1087 358.929C94.4454 373.325 90.972 388.092 85.4769 402.231C84.4677 404.828 84.1292 407.702 84.794 410.595C85.2828 412.724 85.2234 414.939 84.5027 417.023C82.2099 423.654 83.8407 429.831 86.666 435.828C90.1975 443.323 88.7335 447.263 81.127 450.22C70.7884 454.238 67.9317 453.104 64.0791 442.903C62.3533 438.333 59.9031 435.627 54.5358 436.284C45.7868 437.357 42.7167 433.662 45.6211 423.841C47.6363 417.027 52.0971 410.777 51.9877 403.502C51.8682 395.565 52.6799 387.643 48.4771 379.847C39.8801 363.901 34.6165 346.97 34.5434 328.352C34.4934 315.594 34.5356 302.715 32.8483 289.966C32.5016 287.346 31.9063 285.534 28.9026 285.211C26.3621 284.937 25.9041 283.334 26.2433 280.884C27.2972 273.271 26.6535 265.674 26.2821 258.01C25.9073 250.273 26.6203 242.395 26.716 234.575C26.7341 233.096 27.3207 231.25 26.1107 230.257C21.6452 226.59 23.7222 222.782 25.125 218.555C28.6959 207.793 30.5837 196.555 31.4315 185.347C32.287 174.039 34.3081 162.912 35.301 151.646C35.6373 147.83 35.7862 144.059 35.5644 140.042C32.6714 139.617 31.1118 141.701 29.463 143.032C22.3583 148.769 13.9979 147.583 5.95629 147.228C1.61616 147.036 -0.790081 139.738 1.4225 134.257C2.97722 130.406 5.03058 126.755 6.88803 123.028C7.79066 121.217 8.77673 119.439 7.33786 117.071ZM75.1923 277.463C73.8691 274.71 72.5459 271.956 70.7135 268.144C68.9996 275.081 63.924 280.117 67.8476 286.74C68.2594 287.435 68.1737 289.174 67.6685 289.546C62.9584 293.018 64.177 298.271 63.7767 302.827C62.6162 316.036 60.8652 329.324 65.5626 342.304C66.661 345.338 66.7136 348.621 66.0919 351.691C64.0006 362.014 66.7459 372.243 66.3993 382.521C66.3391 384.304 66.9121 386.068 68.7816 387.925C70.1405 382.783 69.785 377.993 69.5431 373.302C68.9799 362.378 67.3388 351.5 71.6851 340.816C74.7203 333.355 75.6156 325.479 74.7424 317.329C74.2348 312.591 74.791 307.793 75.6133 302.973C77.0088 294.793 77.6173 286.454 75.1923 277.463Z" fill="black"/>
</svg>
