<svg version="1.1" id="Layer_1" xmlns="http://www.w3.org/2000/svg" xmlns:xlink="http://www.w3.org/1999/xlink" x="0px" y="0px"
	 width="100%" viewBox="0 0 496 496" enable-background="new 0 0 496 496" xml:space="preserve">
<path fill="#000000" opacity="1.000000" stroke="none" 
	d="
M106.337982,126.071136 
	C105.477821,123.794739 106.386391,122.168556 107.202934,120.519257 
	C111.785210,111.263817 116.434921,102.040901 120.926743,92.741737 
	C128.334961,77.404907 141.988022,71.315666 157.430527,67.698921 
	C161.797104,66.676231 166.129776,65.415665 170.362076,63.933231 
	C177.846664,61.311619 180.957520,55.753197 179.322495,48.002472 
	C178.777985,45.421242 177.909378,42.832184 176.734879,40.472733 
	C170.298187,27.542160 175.509460,15.591846 189.502869,11.047309 
	C198.848190,8.012297 207.120819,11.275681 215.529266,14.698448 
	C219.372772,16.263004 222.995361,17.959164 224.340546,22.088388 
	C225.131165,24.515347 224.744675,27.304121 225.356522,29.815939 
	C226.326828,33.799271 227.940323,37.479324 225.393051,41.688313 
	C224.114731,43.800526 225.826584,46.546787 226.866043,48.803364 
	C228.294098,51.903511 227.966599,54.612797 225.547394,57.019604 
	C223.023605,59.530457 221.218460,62.374935 220.547928,65.968300 
	C219.772232,70.125107 217.020844,72.934853 213.158539,75.008072 
	C215.467941,78.681419 218.961670,80.491432 222.041519,82.459396 
	C233.988251,90.093109 239.323395,100.568718 238.477615,114.865059 
	C237.819641,125.986916 238.362885,137.122421 234.716644,147.945496 
	C233.523056,151.488434 234.175751,155.522369 234.723740,159.346207 
	C235.647720,165.793518 235.966995,171.870468 232.187744,178.068863 
	C229.433716,182.585739 228.686279,188.386093 227.348999,193.691086 
	C225.782806,199.904129 224.162140,205.967148 218.352692,209.790253 
	C216.834335,210.789459 216.529968,212.403275 216.504501,214.185883 
	C216.264511,230.986374 215.789597,247.791367 214.131073,264.509583 
	C213.270187,273.187531 216.921356,280.427490 219.976074,287.928009 
	C220.974457,290.379486 222.088058,292.574615 219.872025,294.775177 
	C217.522400,297.108398 215.007874,296.183441 212.512955,294.930115 
	C205.693390,291.504364 205.177658,291.669098 203.667068,299.268677 
	C200.731003,314.039703 201.292557,328.987823 201.834244,343.908356 
	C202.134720,352.184326 200.619507,360.178375 198.108856,367.928925 
	C193.445557,382.324890 189.972092,397.092194 184.477036,411.231384 
	C183.467773,413.828278 183.129288,416.701538 183.794083,419.595520 
	C184.282944,421.723755 184.223557,423.939148 183.502823,426.023376 
	C181.210037,432.653595 182.840805,438.831116 185.666153,444.827576 
	C189.197586,452.322693 187.733582,456.263458 180.127151,459.219727 
	C169.788544,463.237946 166.931808,462.103943 163.079254,451.902710 
	C161.353455,447.332947 158.903229,444.626587 153.535873,445.284515 
	C144.786896,446.356995 141.716797,442.662323 144.621201,432.841187 
	C146.636383,426.026947 151.097229,419.777008 150.987778,412.502258 
	C150.868347,404.565063 151.680023,396.643127 147.477264,388.847382 
	C138.880203,372.900574 133.616608,355.970245 133.543564,337.351624 
	C133.493530,324.593536 133.535736,311.714905 131.848434,298.966187 
	C131.501709,296.346344 130.906433,294.533875 127.902740,294.210724 
	C125.362228,293.937378 124.904182,292.334137 125.243393,289.883820 
	C126.297348,282.270569 125.653572,274.673737 125.282219,267.009552 
	C124.907387,259.273529 125.620407,251.395340 125.716110,243.575439 
	C125.734207,242.095871 126.320808,240.250244 125.110840,239.256683 
	C120.645340,235.589874 122.722305,231.782303 124.125130,227.554626 
	C127.696045,216.793076 129.583786,205.555252 130.431641,194.347260 
	C131.287079,183.039230 133.308182,171.911728 134.301102,160.646164 
	C134.637466,156.829742 134.786270,153.059174 134.564484,149.041718 
	C131.671509,148.616821 130.111893,150.700516 128.463104,152.031906 
	C121.358467,157.768906 112.997978,156.583145 104.956406,156.227768 
	C100.616280,156.035950 98.210037,148.738220 100.422615,143.257507 
	C101.977333,139.406357 104.030693,135.755234 105.888145,132.028137 
	C106.790779,130.216949 107.776848,128.438705 106.337982,126.071136 
M174.192368,286.462921 
	C172.869171,283.709686 171.545975,280.956451 169.713593,277.143707 
	C167.999680,284.081055 162.924133,289.116669 166.847702,295.740021 
	C167.259476,296.435120 167.173828,298.174072 166.668625,298.546509 
	C161.958557,302.018524 163.177078,307.271332 162.776794,311.827515 
	C161.616318,325.036041 159.865311,338.324158 164.562744,351.303650 
	C165.661087,354.338470 165.713699,357.621521 165.091965,360.690704 
	C163.000732,371.013855 165.745972,381.243347 165.399384,391.521149 
	C165.339249,393.304443 165.912231,395.068390 167.781693,396.925232 
	C169.140594,391.783325 168.785110,386.992859 168.543259,382.301758 
	C167.980042,371.377747 166.338928,360.500214 170.685226,349.815948 
	C173.720444,342.354706 174.615723,334.479156 173.742493,326.328857 
	C173.234909,321.591278 173.791107,316.793182 174.613388,311.973389 
	C176.008896,303.793427 176.617386,295.453979 174.192368,286.462921 
z"/>
</svg>