<svg width="350" height="707" viewBox="0 0 350 707" fill="none" xmlns="http://www.w3.org/2000/svg">
<path d="M79.5334 1.53333C71.8001 3.53333 64.0667 9 58.3334 16.6C51.5334 25.6667 50.3334 31 51.6667 46.2C52.3334 55.2667 52.2001 57.5333 50.4667 58.8667C47.6667 61.2667 47.8001 64.2 51.0001 72.6C53.0001 77.6667 55.1334 80.6 58.8667 83.1333C63.6667 86.4667 71.0001 97.2667 71.0001 101C71.0001 104.067 54.6001 119.533 43.0001 127.267C29.2667 136.6 21.2667 143.667 18.7334 149C15.5334 155.667 12.6001 168.2 11.0001 182.333C10.2001 189.667 8.60008 199 7.40008 203C-0.599917 232.067 -1.13325 237 3.00008 244.733C6.33342 250.867 6.33342 252.067 2.86675 265.8C-0.73325 280.067 0.0667501 295.667 5.13342 313C9.66675 328.467 11.1334 344.2 8.60008 350.067C7.26675 353.133 7.00008 357 7.66675 363.533C8.73342 375 9.40008 376.6 16.8667 385.933C23.0001 393.533 27.0001 395 27.0001 389.667C27.0001 388.067 28.2001 387 29.9334 386.733C33.6667 386.2 36.2001 381.133 37.6667 371.933C38.2001 368.067 40.3334 360.733 42.2001 355.667C46.8667 343.133 46.6001 341.133 40.2001 334.6C35.5334 329.8 35.0001 328.467 35.5334 324.333C37.5334 310.733 38.0667 300.067 38.2001 277.667C38.3334 253.267 38.3334 253 41.9334 247C43.9334 243.667 46.8667 239.533 48.3334 237.667L51.2667 234.333L50.3334 254.6C49.4001 279.8 50.8667 289.4 57.4001 299.933C61.6667 306.867 62.3334 309 63.2667 320.333C64.6001 337.933 66.3334 350.467 68.2001 358.333C70.0667 365.267 72.3334 375.133 74.8667 386.2C75.8001 389.8 77.0001 398.733 77.6667 406.067C79.4001 423.667 81.4001 440.2 83.0001 448.467C83.6667 452.2 85.5334 463.667 87.0001 474.067C88.6001 484.467 90.8667 497.133 92.3334 502.333C96.7334 518.6 97.0001 524.6 93.6667 531.133C91.0001 536.2 90.7334 538.2 91.5334 547C91.9334 552.467 93.0001 559.133 93.8001 561.667C95.8001 568.6 95.2667 588.2 92.3334 607.8C89.2667 629 89.8001 636.333 95.8001 649.533C101.133 661 108.6 669 115.267 670.067C121.267 671 127.667 668.067 130.2 663.267C133.667 656.467 136.467 623.533 136.2 593.267L135.8 565.533L144.733 556.6C156.333 544.867 158.867 539 159 524.333C159 518.067 158.333 506.333 157.533 498.333C155.4 478.6 155.8 473.933 160.2 463.4C166.867 447.667 168.733 436.067 166.333 423.933L165.533 419.667L169 425C170.867 427.933 174.867 435.267 177.667 441.4C183.667 454.2 186.467 457.933 194.333 464.333C213.4 479.667 216.333 482.2 216.333 483.8C216.333 484.867 219.267 491.533 222.867 498.733C226.467 505.8 229.933 513.4 230.467 515.533C230.867 517.533 232.2 519.533 233.133 519.933C234.2 520.333 235 521.133 235 521.667C235 522.2 237 524.733 239.533 527.267C244.867 532.6 246.867 538.6 247.8 553C248.733 567 251.8 583.667 254.467 588.867C255.533 591.133 259.533 604.733 263.133 619C269.4 643.133 269.933 646.467 270.6 665.667C271.667 693.8 273.267 696.867 289.8 699C304.2 700.867 341 702.2 343.8 701C345.267 700.333 347 699.8 347.667 699.8C350.333 699.533 349.667 693.933 346.6 690.2C344.733 688.067 338.733 683.933 333 681C327.4 678.067 319.133 672.467 314.6 668.733C310.2 664.867 306.067 661.667 305.533 661.667C302.6 661.667 301.667 649.667 301.267 604.333C300.733 550.333 300.467 548.6 290.6 523.533C281.4 500.2 274.2 469.533 275.533 460.067C276.067 457 276.733 450.467 277 445.667C277.4 437.8 277.133 436.467 273.533 431.4C271.267 428.2 262.6 411.933 254.2 395C239.667 365.8 238.2 361.933 235.4 345C234.867 341.667 232.867 337.8 230.067 334.6C226.733 330.867 225.667 328.6 226.2 326.467C227 323.267 220.067 307 217.933 307C217.267 307 215.8 303.533 214.6 299.267C213.533 295.133 211.267 287.133 209.8 281.667C204.2 262.467 203.267 257.533 202.333 245.933C201 228.867 198.067 212.867 193.667 198.333C190.067 186.467 189.667 181.667 192.467 181.667C193.133 181.667 195.133 185 197 189.133C199.4 194.6 203.267 199.4 212.2 207.933C224.067 219.267 224.2 219.4 228.333 232.2C230.6 239.267 234.467 248.333 236.867 252.333C239.4 256.333 246.067 268.733 251.8 279.933L262.2 300.2L259.267 306.067C257.667 309.267 256.333 313.267 256.333 314.867C256.333 318.067 265 328.333 267.8 328.333C269.4 328.333 269.667 330.6 269.4 339.133C269 349.267 269.133 350.067 272.333 352.467C274.2 353.8 276.867 356.067 278.333 357.533C279.933 359 283.933 360.333 288.6 361L296.2 361.8L297.533 356.733C301.667 340.6 300.733 328.733 294.867 319.8C292.6 316.467 290.333 310.467 289.533 306.067C288.733 301.8 286.6 293.533 284.867 287.667C283.133 281.8 279.267 267.667 276.467 256.333C270.6 233 267.267 224.6 258.2 210.733C251.533 200.6 229.667 157.8 229.667 155C229.667 154.067 228.867 151.533 227.8 149.267C226.733 146.867 225 142.333 223.667 139C217.667 123 202.2 104.333 192.867 101.8C190.067 101.133 181.667 99.5333 174.333 98.3333C152.733 94.8667 146.867 93.8 137 91.2667L127.667 88.8667L127.8 81.5333C127.8 77.5333 128.867 71.6667 130.2 68.4667C133 61.2667 131.933 47.8 128.333 43.6667C127 42.2 125 37.5333 123.933 33.2667C120.333 19.4 113.267 10.2 101.4 4.2C95.4001 1.13333 85.6667 -0.0666707 79.5334 1.53333Z" fill="black"/>
<path d="M178.2 616.333C168.067 619.667 158.067 626.2 154.067 632.067C147.534 641.933 145.4 650.6 145.934 664.6C146.6 676.6 147 678.2 151.134 684.867C161.4 701.267 175 707.933 195.4 706.6C223.4 704.733 240.734 688.733 240.867 664.333C240.867 648.467 237.667 639.8 228.2 630.6C213.267 615.933 195.134 610.733 178.2 616.333Z" fill="black"/>
</svg>
