<svg width="293" height="734" viewBox="0 0 293 734" fill="none" xmlns="http://www.w3.org/2000/svg">
<path d="M116.8 3.80029C114.934 5.53362 111.2 7.40029 108.267 7.93362C105.467 8.33362 102.8 9.40029 102.534 10.3336C102.134 11.267 99.6003 12.3336 96.667 12.867C91.7337 13.667 90.0003 15.5336 90.0003 20.2003C90.0003 21.5336 89.067 24.6003 87.867 27.0003C85.3337 31.9336 85.2003 39.667 87.2003 59.0003C89.467 80.3336 91.067 87.4003 95.3337 95.5336C97.467 99.8003 99.3337 105.267 99.3337 107.667C99.3337 112.734 100.8 112.067 76.1337 117.134C49.2003 122.6 48.267 123.134 42.4003 139.134C39.067 148.067 38.667 150.734 38.667 168.334C38.5337 189.8 36.667 198.467 30.267 207.667C21.3337 220.334 16.667 239.534 16.667 263.534C16.667 275.8 15.867 282.334 12.0003 299.134C9.46699 310.467 6.13366 323.8 4.66699 329C1.20032 340.867 -0.13301 357.934 1.86699 365.267C3.33366 370.6 3.73366 370.867 11.067 373C15.2003 374.2 19.7337 375.4 21.067 375.8C22.8003 376.334 23.7337 375.534 24.8003 372.734C25.6003 370.734 29.3337 366.334 33.3337 363.134C40.5337 357.267 40.5337 357.134 39.7337 351.134C39.3337 347.8 36.9337 339.134 34.5337 332.067C27.3337 311.4 27.7337 308.867 44.667 273.667C52.1337 258.467 57.7337 244.734 59.467 237.667C62.4003 226.467 64.9337 221.534 66.9337 223.534C67.6003 224.067 68.0003 252.2 68.0003 286.067C68.1337 348.867 68.9337 362.2 73.3337 372.867C74.9337 376.6 75.6003 382.467 75.7337 392.2C75.867 409.934 74.0003 436.2 72.4003 437.134C70.667 438.2 71.2003 449.267 73.3337 459.667C74.4003 464.734 75.3337 471.8 75.3337 475.267C75.3337 479 78.5337 492.067 83.2003 507.934C87.467 522.467 91.467 536.467 92.0003 539C94.4003 550.467 104.934 563.667 116.4 569.134C119.067 570.467 124.534 571.8 128.4 572.067C132.4 572.467 135.867 573.4 136.134 574.334C136.534 575.134 135.2 583.4 133.334 592.467C128.134 617.4 127.734 627.934 131.334 641.534C136.134 659 145.334 667.134 155.467 663C158.267 661.8 160.4 659.134 163.2 653.134C165.334 648.734 167.6 643.4 168 641.267C168.534 639.267 169.467 637.4 170 637C171.6 635.934 174.4 653.134 174.4 665C174.534 674.734 174 676.734 169.6 686.334L164.534 697L164.934 713L165.334 728.867L171.334 730.067C179.467 731.534 205.467 731.934 206.8 730.6C208 729.534 205.6 719.534 202.667 713C201.334 710.2 200.934 704.734 201.2 695C201.467 683.667 202.267 678.6 205.6 668.334C207.867 661.4 210.134 653.267 210.667 650.334C211.2 647.4 213.334 639.4 215.467 632.6C217.6 625.8 220.667 613.667 222.267 605.8L225.067 591.4L221.334 575.534C215.734 551 215.334 529.934 220.134 512.067C220.934 509.134 228.534 507 238.267 507C242.4 507 246.134 506.467 246.667 505.8C247.067 505.134 246.534 501.934 245.334 498.734C243.067 492.067 242.667 473.8 244.8 467C245.467 464.467 246.534 455.4 246.934 446.867C247.6 432.334 247.467 430.867 243.6 418.2C239.6 405.534 239.467 404.067 239.467 380.2C239.467 366.334 238.8 353.934 238 351.8C237.334 349.8 236.667 344.734 236.667 340.467C236.667 334.067 236 331.8 232.8 327.267C230.667 324.334 228.134 321.534 227.334 321C226.267 320.334 226.534 319.134 228 316.734C230.134 313.534 230 312.867 226.534 303.134C224.534 297.534 220.534 289.934 217.734 286.067C214.8 282.334 212.4 277.534 212.267 275.534C212 272.067 212.4 271.667 218.4 270.734C224.267 269.667 226 270.067 237.334 275C251.734 281 257.734 281.667 274 278.334C281.867 276.734 284.8 275.4 287.6 272.334C292.667 266.867 293.6 260.6 290.267 254.2C287.467 248.6 281.867 235 278.934 226.334C276.8 219.8 263.334 198.067 246 173C238.8 162.734 231.867 151.934 230.267 149C226.934 142.467 224.534 140.334 215.467 135.667C211.467 133.667 204.934 129.8 200.8 127C196.667 124.2 187.334 119.4 180.134 116.2C163.2 108.867 158.667 104.6 157.334 95.4003C156.534 89.5336 156.8 87.8003 159.2 84.4669C164.8 76.6003 166.134 70.3336 165.467 53.0003C164.8 35.4003 162.8 25.1336 159.334 21.0003C158.134 19.5336 155.734 16.067 154.134 13.267C150.934 8.06695 144.4 4.33362 138.134 4.33362C136.267 4.33362 132.934 3.40029 130.8 2.33362C125.467 -0.466379 120.534 0.0669544 116.8 3.80029ZM230 237.134C231.467 241.134 232.667 244.734 232.667 245C232.667 245.934 225.2 245.8 222.8 244.867C220.267 243.934 219.867 233.667 222.134 229.534C224.134 225.667 226.534 228.2 230 237.134ZM31.2003 346.734C31.867 347.934 32.8003 351.267 33.3337 354.067C34.1337 358.2 33.867 359.134 31.867 359.8C30.4003 360.2 28.267 361.134 27.067 361.8C23.467 363.667 20.9337 363.267 18.0003 360.334C14.5337 356.867 14.267 347.667 17.7337 345.8C21.6003 343.534 29.7337 344.067 31.2003 346.734ZM158.267 484.6C159.467 485.534 161.867 489 163.6 492.334C166.4 497.667 166.8 500.734 167.334 520.334C168 542.6 167.867 547 166 547C165.467 547 161.734 544.734 157.6 542.067C150.934 537.667 149.734 536.2 147.334 529.134C145.734 524.6 144.134 516.467 143.734 510.734C143.067 502.067 143.334 499.667 145.867 494.734C148.667 488.734 153.334 483 155.067 483C155.734 483 157.067 483.8 158.267 484.6Z" fill="black"/>
<path d="M76 647.533C62.1333 651.933 53.8667 659 47.3333 671.933C44.4 677.533 44 680.067 44 692.333C44 704.6 44.4 707.267 47.4667 713.667C51.7333 722.733 58.2667 729.267 64.8 731C80.8 735.4 106.133 734.733 117.2 729.8C125.467 726.2 131.867 719.933 135.467 712.067C138.133 706.2 138.667 702.867 138.533 692.333C138.533 677.133 136 670.467 126.8 660.6C115.2 648.333 92.2667 642.333 76 647.533Z" fill="black"/>
</svg>
