<svg width="228" height="664" viewBox="0 0 228 664" fill="none" xmlns="http://www.w3.org/2000/svg">
<path d="M80.7999 2.66671C63.5999 7.33338 56.1333 15.6 53.1999 33.4667C51.1999 45.7334 52.6666 52.9334 58.7999 62.1334C61.5999 66.4001 65.0666 71.2001 66.5333 72.6667C69.3333 75.6001 73.3333 86.4001 73.3333 91.0667C73.3333 92.9334 71.7333 95.3334 69.3333 97.2001C64.5333 100.667 47.7333 109.067 36.6666 113.333C18.7999 120.4 16.5333 125.067 13.9999 162C10.9333 204.4 9.33327 223.2 7.99993 230.667C5.19993 246.667 3.8666 270.267 3.73327 302.4C3.73327 320.933 3.99993 336.4 4.39993 336.8C4.79993 337.2 3.8666 341.2 2.53327 345.733C-1.3334 358.267 -0.800066 361.867 5.73327 371.467C9.8666 377.6 12.9333 380.533 17.4666 382.667C27.0666 387.2 29.4666 386.267 31.4666 376.667C32.5333 371.733 32.6666 366.667 31.9999 363.333C30.6666 356.4 29.9999 342.533 30.2666 326C30.3999 313.2 32.7999 301.067 37.7333 287.333C40.1333 280.4 43.0666 264.667 42.3999 262.4C41.9999 261.467 42.5333 258.4 43.4666 255.467C44.5333 252.667 45.4666 245.2 45.4666 238.8C45.7333 228.267 45.7333 227.867 46.6666 234C48.6666 246.667 48.2666 265.067 45.7333 268.8C42.7999 273.333 42.6666 283.067 45.5999 286.267C47.7333 288.533 47.7333 289.067 45.9999 290.8C43.1999 293.6 40.1333 308.4 38.6666 326.933C37.8666 335.467 36.3999 344.667 35.1999 347.333C32.3999 354.267 33.8666 365.067 38.1333 369.867C39.9999 371.733 41.9999 373.333 42.6666 373.333C44.2666 373.333 46.2666 381.067 47.3333 391.333C47.8666 395.733 49.0666 403.2 50.2666 408C51.3333 412.8 52.6666 419.6 53.3333 423.333C53.9999 426.933 55.4666 434.133 56.5333 439.333C60.5333 458.133 62.7999 477.2 61.3333 479.867C58.2666 485.6 60.9333 521.867 65.7333 538.667C69.4666 552 71.0666 563.2 71.4666 578.4C71.8666 590.8 72.3999 594.4 74.6666 598C77.9999 603.333 77.9999 604.8 74.6666 615.067C73.1999 619.6 71.7333 624.933 71.3333 626.8C71.0666 628.667 69.1999 632.4 67.3333 635.2C62.1333 642.933 62.7999 645.6 71.0666 649.733C76.2666 652.4 79.9999 653.333 85.7333 653.333C98.3999 653.333 102.667 649.733 102.667 639.333C102.667 637.067 104.267 631.6 106.267 626.933L109.733 618.533L107.6 603.6C106.4 595.333 104.8 585.067 104 580.667C102.133 569.867 102.267 487.733 104.133 479.2C104.933 475.6 106 460 106.533 444.667C107.067 429.2 108.533 410.4 109.867 402.667C111.2 394.933 112.533 386.533 112.933 384L113.6 379.467L116.133 382.667C117.467 384.533 118.933 388.133 119.467 390.667C119.867 393.2 122.267 401.6 124.8 409.333C129.333 423.6 132 434.533 135.467 454.667C136.533 460.933 138.8 471.333 140.667 478C142.667 485.6 144.133 495.067 144.4 504C144.8 511.733 146 520.667 147.067 524C151.467 537.333 153.467 550.667 154.667 574C155.333 587.467 155.6 600.933 155.2 604C154.4 610.4 157.733 628.267 161.467 637.733C162.933 641.2 164 645.467 164 647.2C164 654 176.267 661.733 189.067 663.067C197.067 664 201.6 662.4 204 658C205.867 654.4 204.267 648.133 199.333 639.333C192.267 626.933 187.467 601.2 187.467 576C187.467 569.067 187.733 546.533 188.133 526C188.667 492.533 188.4 488.133 186.4 483.867C183.467 477.867 183.2 461.2 184.8 409.867C185.867 376.8 186.267 373.333 188.533 370.8C191.067 368.133 191.2 368 192.533 370.267C193.2 371.6 193.867 374.4 193.867 376.667C194 380.4 194.267 380.667 200 381.067C212.267 381.867 221.867 374.667 226.4 361.6C227.867 357.2 226.667 331.6 224.267 316C223.6 311.867 223.867 308.8 225.2 306.133C227.2 301.867 227.067 300.533 221.467 284.8C219.867 280.533 218.133 270.8 217.333 263.2C216.667 255.6 215.2 247.6 214 245.333C212.933 243.2 212 240.4 212 239.2C212 238 211.067 234.267 210 230.8C207.6 223.067 204.267 210 201.867 198.667C198.533 183.467 193.6 158.267 192.667 152C190.133 134.8 185.467 120.267 180.8 114.933C178.133 112 165.6 105.333 162.533 105.333C158.533 105.333 133.867 96.2667 129.067 92.9334C125.733 90.8001 125.333 89.7334 125.333 82.9334C125.333 78.8001 126.4 69.3334 127.6 62.0001C128.8 54.6667 130 43.7334 130.267 37.6C130.8 27.7334 130.533 26 127.6 20.9334C122.533 12.4 117.6 8.53338 106 4.13338C93.7333 -0.66662 93.0666 -0.66662 80.7999 2.66671ZM168.533 221.6C169.6 225.467 171.2 234.4 172 241.333C172.933 248.667 174.533 255.733 176 258.133C177.333 260.533 180.8 269.467 183.733 278.133C191.067 299.6 194.267 307.867 195.867 309.867C198.667 313.2 198.933 322.667 196.667 336.267C195.467 343.867 194.133 352.133 193.733 354.667L193.067 359.333L191.2 354C187.2 343.2 184.267 332.267 181.333 318C178.267 303.467 174 292.8 169.333 287.6C167.067 285.2 167.067 284.667 168.8 282C171.067 278.533 170.4 274.133 166.533 266.4C165.067 263.733 164 259.467 164 257.067C164.267 235.2 165.2 214.667 165.867 214.667C166.267 214.667 167.333 217.867 168.533 221.6Z" fill="black"/>
</svg>
