<svg version="1.1" id="Layer_1" xmlns="http://www.w3.org/2000/svg" xmlns:xlink="http://www.w3.org/1999/xlink" x="0px" y="0px"
	 width="100%" viewBox="0 0 384 624" enable-background="new 0 0 384 624" xml:space="preserve">
<path fill="#000000" opacity="1.000000" stroke="none" 
	d="
M274.808258,540.143921 
	C276.942902,541.176331 278.857330,541.868530 280.515564,542.952576 
	C282.818268,544.457886 283.822357,546.831970 283.042725,549.475647 
	C282.266907,552.106384 280.849487,554.306274 277.505829,554.298279 
	C272.958191,554.287415 269.159332,557.611816 264.101624,556.572815 
	C259.673950,555.663269 255.367249,555.022522 251.520401,552.493958 
	C248.494781,550.505127 245.721664,549.863525 241.563431,550.339050 
	C235.206818,551.065979 227.598907,553.139954 222.352798,546.066833 
	C218.275620,540.569763 218.199585,533.816406 220.447678,528.923218 
	C225.753815,517.374023 223.229889,506.053925 222.125443,494.598114 
	C220.496964,477.706696 216.880447,461.136292 213.740250,444.481110 
	C212.591003,438.385620 213.196625,431.887360 214.432999,425.652100 
	C214.774673,423.928986 214.628250,422.361633 213.944855,420.789001 
	C208.711288,408.745667 207.059418,395.815552 204.686844,383.072174 
	C204.038605,379.590302 203.225266,376.701172 198.947464,376.176880 
	C196.544586,375.882324 195.904846,374.030792 195.412155,371.543854 
	C193.326172,361.014648 195.362305,349.785461 189.600906,339.063049 
	C188.738434,341.210846 187.770233,342.866852 187.410294,344.645905 
	C185.632477,353.433136 183.929413,362.238068 182.401764,371.071625 
	C182.011902,373.326019 181.287460,374.853271 178.946350,375.275360 
	C176.567841,375.704163 175.561234,377.398773 175.425171,379.531372 
	C174.171844,399.174683 167.954132,417.647949 162.133087,436.213409 
	C161.473053,438.318451 161.139893,440.438416 161.271072,442.611053 
	C162.482895,462.680939 158.900360,482.460571 157.662201,502.381256 
	C157.162277,510.424408 156.759903,518.959839 159.885742,526.035828 
	C163.377869,533.940918 165.146393,543.264160 172.965042,548.968994 
	C175.179565,550.584778 177.079987,552.835938 178.429626,555.399414 
	C181.221054,560.701538 178.776474,565.812805 172.999359,567.124451 
	C165.862640,568.744812 158.712875,568.344666 151.670059,567.098145 
	C140.919342,565.195435 132.018188,551.014465 134.026627,540.069275 
	C135.275284,533.264587 138.889557,526.885864 137.607224,519.608276 
	C136.741074,514.692627 136.128601,509.732147 135.407471,504.791046 
	C132.742599,486.531708 128.715088,468.433289 129.576309,449.777405 
	C129.951447,441.651093 130.561234,433.854492 133.751923,426.035339 
	C137.189484,417.611206 136.752274,408.060699 138.671295,399.121429 
	C140.049088,392.703400 139.828186,386.212677 139.951904,379.724945 
	C140.010422,376.655792 139.181290,374.583618 135.708389,374.195892 
	C130.914795,373.660797 129.880600,370.861938 130.999893,366.443909 
	C133.204895,357.740509 135.146759,348.975555 135.299622,339.920349 
	C135.324722,338.433594 136.091995,336.615082 134.442520,335.856110 
	C126.731590,332.308258 126.201256,324.890625 125.511490,318.173798 
	C124.084625,304.279510 121.848656,290.480286 119.307831,276.821259 
	C117.111786,265.015656 114.828186,253.355087 114.419609,241.322357 
	C114.180618,234.284058 115.986168,227.484772 116.016808,220.475555 
	C116.043617,214.343689 117.082733,208.217972 117.624207,202.085098 
	C117.725906,200.933167 118.073257,199.328979 117.483742,198.668182 
	C114.090446,194.864624 115.996040,191.008316 116.838165,187.023178 
	C119.622040,173.849152 121.817978,160.565079 126.695755,147.882355 
	C130.048615,139.164566 134.609924,132.764297 144.518448,130.282562 
	C152.795990,128.209335 160.574997,124.138519 168.162720,119.965668 
	C171.300293,118.240143 172.882828,115.773315 173.487457,112.594612 
	C174.492401,107.311310 173.647751,101.957626 173.669113,96.634438 
	C173.674393,95.318832 172.668350,94.681335 171.851837,93.829384 
	C167.381454,89.164986 164.517899,84.031807 167.086731,77.253098 
	C167.513062,76.128098 167.095993,74.652000 166.958221,73.349846 
	C166.089584,65.140068 167.299637,57.327034 172.049728,50.448570 
	C177.717300,42.241539 189.031570,38.495995 198.631088,41.260258 
	C200.549210,41.812595 202.491470,42.384621 204.462158,42.630001 
	C209.096176,43.207008 211.973862,45.727989 213.669830,49.998131 
	C215.448181,54.475693 218.560165,58.719822 219.150314,63.314995 
	C220.650330,74.994667 219.960327,86.435272 214.818924,97.666710 
	C212.318115,103.129768 208.171417,107.998802 207.448883,114.315308 
	C207.059219,117.721596 207.690384,119.809410 210.952972,122.082390 
	C218.079834,127.047531 226.396118,128.116028 234.246582,130.638748 
	C238.790649,132.098984 241.958878,134.670059 244.869171,138.334915 
	C254.193954,150.077332 260.579071,163.478912 266.044586,177.181274 
	C270.705109,188.865555 277.902313,198.601166 285.530823,208.223053 
	C295.275269,220.513794 299.331116,235.417938 304.840210,249.673187 
	C307.651794,256.948273 311.300018,263.875793 310.508942,272.140747 
	C309.553070,282.127655 308.135590,291.920776 302.974182,300.755646 
	C300.368896,305.215149 289.104218,307.363251 285.072662,304.268677 
	C283.520569,303.077301 283.515594,301.733246 284.705048,300.440216 
	C286.166748,298.851288 287.745026,296.994629 290.072632,297.119232 
	C296.028320,297.438110 297.019562,293.841675 296.848694,289.116364 
	C296.778320,287.171814 297.376129,285.135223 296.034363,283.285126 
	C293.785004,283.246490 293.707184,285.371857 292.813782,286.564728 
	C290.679626,289.414215 288.452942,291.765747 284.487610,289.895386 
	C283.241119,289.307404 282.313843,289.915710 281.256317,290.503204 
	C265.000336,299.534302 254.235779,298.331818 241.136627,286.095612 
	C240.931656,285.904144 240.529129,285.924103 240.158997,285.830200 
	C234.841858,291.821198 235.629105,298.815979 237.642166,305.542877 
	C242.880600,323.047943 244.576843,341.077393 246.391434,359.112885 
	C246.641037,361.593903 246.933731,364.081604 247.412033,366.526001 
	C248.138687,370.239746 249.680038,373.947998 245.000092,376.490723 
	C243.732086,377.179626 244.369019,379.282684 244.118912,380.737488 
	C241.281754,397.241882 243.395218,413.456390 246.550537,429.690033 
	C249.665833,445.717834 248.293304,461.856018 246.855209,477.961945 
	C246.041168,487.078888 245.187454,496.198547 244.694870,505.335510 
	C244.415833,510.511292 245.487442,515.032654 249.643448,519.245361 
	C257.290924,526.997192 263.674561,536.056946 274.808258,540.143921 
M262.844177,211.750153 
	C255.210999,200.967880 243.518448,194.152100 235.697769,183.414352 
	C233.394180,204.512360 234.369736,225.296066 234.642181,246.200439 
	C243.750137,232.488739 256.135223,227.113434 273.518646,230.802673 
	C269.019135,224.113953 265.731689,218.432510 262.844177,211.750153 
M136.342804,253.497986 
	C136.334396,261.809479 135.954239,270.142944 136.443497,278.425018 
	C136.790863,284.305267 137.132843,290.503815 141.444214,295.707977 
	C145.017639,290.126099 145.763229,284.653564 144.414490,275.280212 
	C144.056015,272.788971 143.354004,270.087585 144.920715,268.004486 
	C149.127121,262.411774 148.754486,256.688629 146.087967,250.744705 
	C145.108673,248.561768 145.611145,246.576370 146.488922,244.511444 
	C151.609161,232.466431 149.035965,220.501419 145.908096,208.594055 
	C145.456039,206.873123 145.216339,204.800568 143.596786,203.560425 
	C136.415451,219.343491 135.024750,235.727051 136.342804,253.497986 
z"/>
</svg>