<svg width="197" height="529" viewBox="0 0 197 529" fill="none" xmlns="http://www.w3.org/2000/svg">
<path d="M160.808 500.144C162.943 501.176 164.857 501.869 166.516 502.953C168.818 504.458 169.822 506.832 169.043 509.476C168.267 512.106 166.849 514.306 163.506 514.298C158.958 514.287 155.159 517.612 150.102 516.573C145.674 515.663 141.367 515.023 137.52 512.494C134.495 510.505 131.722 509.864 127.563 510.339C121.207 511.066 113.599 513.14 108.353 506.067C104.276 500.57 104.2 493.816 106.448 488.923C111.754 477.374 109.23 466.054 108.125 454.598C106.497 437.707 102.88 421.136 99.7402 404.481C98.591 398.386 99.1966 391.887 100.433 385.652C100.775 383.929 100.628 382.362 99.9449 380.789C94.7113 368.746 93.0594 355.816 90.6868 343.072C90.0386 339.59 89.2253 336.701 84.9475 336.177C82.5446 335.882 81.9048 334.031 81.4122 331.544C79.3262 321.015 81.3623 309.785 75.6009 299.063C74.7384 301.211 73.7702 302.867 73.4103 304.646C71.6325 313.433 69.9294 322.238 68.4018 331.072C68.0119 333.326 67.2875 334.853 64.9464 335.275C62.5678 335.704 61.5612 337.399 61.4252 339.531C60.1718 359.175 53.9541 377.648 48.1331 396.213C47.4731 398.318 47.1399 400.438 47.2711 402.611C48.4829 422.681 44.9004 442.461 43.6622 462.381C43.1623 470.424 42.7599 478.96 45.8857 486.036C49.3779 493.941 51.1464 503.264 58.965 508.969C61.1796 510.585 63.08 512.836 64.4296 515.399C67.2211 520.702 64.7765 525.813 58.9994 527.124C51.8626 528.745 44.7129 528.345 37.6701 527.098C26.9193 525.195 18.0182 511.014 20.0266 500.069C21.2753 493.265 24.8896 486.886 23.6072 479.608C22.7411 474.693 22.1286 469.732 21.4075 464.791C18.7426 446.532 14.7151 428.433 15.5763 409.777C15.9515 401.651 16.5612 393.854 19.7519 386.035C23.1895 377.611 22.7523 368.061 24.6713 359.121C26.0491 352.703 25.8282 346.213 25.9519 339.725C26.0104 336.656 25.1813 334.584 21.7084 334.196C16.9148 333.661 15.8806 330.862 16.9999 326.444C19.2049 317.741 21.1468 308.976 21.2996 299.92C21.3247 298.434 22.092 296.615 20.4425 295.856C12.7316 292.308 12.2013 284.891 11.5115 278.174C10.0846 264.28 7.84866 250.48 5.30783 236.821C3.11179 225.016 0.828189 213.355 0.419612 201.322C0.180621 194.284 1.98617 187.485 2.01681 180.476C2.04362 174.344 3.08274 168.218 3.62421 162.085C3.72591 160.933 4.07326 159.329 3.48374 158.668C0.0904489 154.865 1.99604 151.008 2.83817 147.023C5.62204 133.849 7.81798 120.565 12.6958 107.882C16.0486 99.1646 20.6099 92.7643 30.5185 90.2826C38.796 88.2093 46.575 84.1385 54.1627 79.9657C57.3003 78.2401 58.8828 75.7733 59.4875 72.5946C60.4924 67.3113 59.6478 61.9576 59.6691 56.6344C59.6744 55.3188 58.6684 54.6813 57.8518 53.8294C53.3815 49.165 50.5179 44.0318 53.0867 37.2531C53.5131 36.1281 53.096 34.652 52.9582 33.3498C52.0896 25.1401 53.2996 17.327 58.0497 10.4486C63.7173 2.24153 75.0316 -1.50401 84.6311 1.26025C86.5492 1.81259 88.4915 2.38462 90.4622 2.63C95.0962 3.207 97.9739 5.72798 99.6698 9.99813C101.448 14.4757 104.56 18.7198 105.15 23.315C106.65 34.9947 105.96 46.4353 100.819 57.6667C98.3181 63.1298 94.1714 67.9988 93.4489 74.3153C93.0592 77.7216 93.6904 79.8094 96.953 82.0824C104.08 87.0475 112.396 88.116 120.247 90.6387C124.791 92.099 127.959 94.6701 130.869 98.3349C140.194 110.077 146.579 123.479 152.045 137.181C156.705 148.866 163.902 158.601 171.531 168.223C181.275 180.514 185.331 195.418 190.84 209.673C193.652 216.948 197.3 223.876 196.509 232.141C195.553 242.128 194.136 251.921 188.974 260.756C186.369 265.215 175.104 267.363 171.073 264.269C169.521 263.077 169.516 261.733 170.705 260.44C172.167 258.851 173.745 256.995 176.073 257.119C182.028 257.438 183.02 253.842 182.849 249.116C182.778 247.172 183.376 245.135 182.034 243.285C179.785 243.246 179.707 245.372 178.814 246.565C176.68 249.414 174.453 251.766 170.488 249.895C169.241 249.307 168.314 249.916 167.256 250.503C151 259.534 140.236 258.332 127.137 246.096C126.932 245.904 126.529 245.924 126.159 245.83C120.842 251.821 121.629 258.816 123.642 265.543C128.881 283.048 130.577 301.077 132.391 319.113C132.641 321.594 132.934 324.082 133.412 326.526C134.139 330.24 135.68 333.948 131 336.491C129.732 337.18 130.369 339.283 130.119 340.737C127.282 357.242 129.395 373.456 132.551 389.69C135.666 405.718 134.293 421.856 132.855 437.962C132.041 447.079 131.187 456.199 130.695 465.336C130.416 470.511 131.487 475.033 135.643 479.245C143.291 486.997 149.675 496.057 160.808 500.144ZM148.844 171.75C141.211 160.968 129.518 154.152 121.698 143.414C119.394 164.512 120.37 185.296 120.642 206.2C129.75 192.489 142.135 187.113 159.519 190.803C155.019 184.114 151.732 178.433 148.844 171.75ZM22.3428 213.498C22.3344 221.809 21.9542 230.143 22.4435 238.425C22.7909 244.305 23.1328 250.504 27.4442 255.708C31.0176 250.126 31.7632 244.654 30.4145 235.28C30.056 232.789 29.354 230.088 30.9207 228.004C35.1271 222.412 34.7545 216.689 32.088 210.745C31.1087 208.562 31.6111 206.576 32.4889 204.511C37.6092 192.466 35.036 180.501 31.9081 168.594C31.456 166.873 31.2163 164.801 29.5968 163.56C22.4155 179.343 21.0248 195.727 22.3428 213.498Z" fill="black"/>
</svg>
